<?xml version="1.0" encoding="UTF-8"?>
<svg xmlns="http://www.w3.org/2000/svg" width="200" height="90" viewBox="0 0 200 90" fill="none">
  <path d="M3.37309 40.0004H22.8124V45.4635L15.5023 46.0248C3.69382 46.9096 0 50.0341 0 58.7982V60.565C0 66.9797 4.49833 70.8473 11.4049 70.8473C16.8681 70.8473 20.0006 69.5615 23.8575 65.6247H24.4989V69.8021H32.29V31.4849H3.37309V40.0004ZM22.8124 58.4775C20.4069 60.883 16.7879 62.4868 13.8157 62.4868C10.6084 62.4868 9.23721 61.2813 9.3174 58.6298C9.39759 54.936 10.7634 54.0513 16.9483 53.49L22.8124 52.9287V58.4775Z" fill="#FF8800"></path>
  <path fill-rule="evenodd" clip-rule="evenodd" d="M48.6732 31.4877H63.6943V39.279H71.8864V69.8023H62.3286V40.0835H48.6732V69.8023H39.1127V20H48.6732V31.4877ZM188.448 46.9098L182.664 46.3458C179.457 46.0251 178.655 45.2232 178.655 42.652C178.655 39.7601 179.78 39.0357 184.268 39.0357C188.277 39.0357 189.408 39.6799 189.972 42.4115H198.968C198.728 33.2545 195.916 30.9184 184.749 30.9184C172.54 30.9184 169.487 33.2491 169.487 42.6467C169.487 51.2425 171.735 53.5706 180.815 54.4551L185.553 54.9362C189.811 55.3371 190.854 56.1417 190.854 58.7128C190.854 61.8456 189.568 62.6472 184.348 62.6472C179.769 62.6472 178.564 61.9257 178.324 58.9534H169.236C169.476 68.4311 172.368 70.8421 183.936 70.8421C196.787 70.8421 200 68.2709 200 57.8284C200.013 50.0423 197.685 47.7918 188.448 46.9098ZM139.238 47.6316C139.238 35.2618 134.983 30.9238 122.771 30.9238C110.722 30.9238 105.983 36.5367 105.983 50.5234C105.983 65.7879 110.16 70.8369 123.655 70.8369C133.376 70.8369 137.471 67.8646 138.837 59.5095H129.6C128.555 62.0914 127.432 62.6527 123.508 62.6527C117.564 62.6527 116.038 60.966 115.717 53.8164H138.61C138.993 51.7761 139.203 49.707 139.238 47.6316ZM115.784 46.2657C115.864 40.8853 118.032 38.8781 123.174 38.8781C128.073 38.8781 130.081 40.8853 130.244 46.2657H115.784ZM144.802 33.1716V69.8023H154.363V39.6798H165.856V31.485H154.363V30.4427C154.44 28.1921 155.004 27.5507 156.851 27.5507H167.294V20H156.044C148.416 20 144.802 22.328 144.802 33.1716ZM88.4545 69.8023H78.8964V31.4878H102.674V40.4844H88.4545V69.8023Z" fill="#00438B"></path>
</svg>
