<?xml version="1.0" encoding="UTF-8"?>
<svg xmlns="http://www.w3.org/2000/svg" width="200" height="90" viewBox="0 0 200 90" fill="none">
  <path d="M117.022 30.6661C117.022 35.4801 113.255 39.0274 108.634 39.0274C104.012 39.0274 100.246 35.4801 100.246 30.6661C100.246 25.8181 104.012 22.3047 108.634 22.3047C113.255 22.3047 117.022 25.8181 117.022 30.6661ZM113.35 30.6661C113.35 27.6578 111.167 25.5995 108.634 25.5995C106.1 25.5995 103.918 27.6578 103.918 30.6661C103.918 33.6442 106.1 35.7327 108.634 35.7327C111.167 35.7327 113.35 33.6404 113.35 30.6661Z" fill="#EA4335"></path>
  <path d="M135.117 30.6661C135.117 35.4801 131.351 39.0274 126.729 39.0274C122.107 39.0274 118.341 35.4801 118.341 30.6661C118.341 25.8219 122.107 22.3047 126.729 22.3047C131.351 22.3047 135.117 25.8181 135.117 30.6661ZM131.445 30.6661C131.445 27.6578 129.262 25.5995 126.729 25.5995C124.196 25.5995 122.013 27.6578 122.013 30.6661C122.013 33.6442 124.196 35.7327 126.729 35.7327C129.262 35.7327 131.445 33.6404 131.445 30.6661Z" fill="#FBBC05"></path>
  <path d="M152.458 22.8098V37.8211C152.458 43.996 148.816 46.518 144.511 46.518C140.458 46.518 138.019 43.8075 137.099 41.5909L140.296 40.2602C140.866 41.6211 142.26 43.227 144.507 43.227C147.263 43.227 148.971 41.5268 148.971 38.3263V37.1237H148.842C148.021 38.1378 146.437 39.0237 144.439 39.0237C140.259 39.0237 136.428 35.3821 136.428 30.6962C136.428 25.9765 140.259 22.3047 144.439 22.3047C146.433 22.3047 148.017 23.1906 148.842 24.1745H148.971V22.8136H152.458V22.8098ZM149.231 30.6962C149.231 27.752 147.267 25.5995 144.767 25.5995C142.234 25.5995 140.112 27.752 140.112 30.6962C140.112 33.6103 142.234 35.7327 144.767 35.7327C147.267 35.7327 149.231 33.6103 149.231 30.6962Z" fill="#4285F4"></path>
  <path d="M158.207 14.0112V38.5148H154.625V14.0112H158.207Z" fill="#34A853"></path>
  <path d="M172.162 33.4184L175.012 35.3183C174.092 36.6792 171.876 39.024 168.046 39.024C163.296 39.024 159.748 35.3523 159.748 30.6626C159.748 25.6903 163.326 22.3013 167.635 22.3013C171.974 22.3013 174.096 25.7544 174.79 27.6204L175.17 28.5704L163.993 33.1997C164.849 34.8773 166.18 35.733 168.046 35.733C169.915 35.733 171.212 34.8132 172.162 33.4184ZM163.39 30.4101L170.862 27.3075C170.451 26.2633 169.214 25.5357 167.759 25.5357C165.893 25.5357 163.296 27.1831 163.39 30.4101V30.4101Z" fill="#EA4335"></path>
  <path d="M86.6899 28.4911V24.9437H98.6439C98.7608 25.562 98.8211 26.2933 98.8211 27.085C98.8211 29.7464 98.0935 33.0375 95.7487 35.3823C93.468 37.7572 90.554 39.0239 86.6937 39.0239C79.5387 39.0239 73.5221 33.1958 73.5221 26.0408C73.5221 18.8857 79.5387 13.0576 86.6937 13.0576C90.652 13.0576 93.4718 14.6108 95.5904 16.6351L93.0873 19.1383C91.568 17.7133 89.5097 16.605 86.6899 16.605C81.465 16.605 77.3786 20.8158 77.3786 26.0408C77.3786 31.2657 81.465 35.4765 86.6899 35.4765C90.079 35.4765 92.0091 34.1156 93.2456 32.8791C94.2484 31.8764 94.9081 30.4439 95.1682 28.4873L86.6899 28.4911Z" fill="#4285F4"></path>
  <path d="M83.3327 52.2012L79.6514 62.384H87.1624L83.4514 52.2012H83.3327ZM76.4748 71.2013H73.2686L81.7592 48.6387H85.0545L93.5452 71.2013H90.3389L88.1717 65.0856H78.6717L76.4748 71.2013Z" fill="#747474"></path>
  <path d="M95.0068 55.764H97.7975V57.9015H97.9162C98.3467 57.1519 99.0221 56.5284 99.935 56.0312C100.863 55.519 101.813 55.2593 102.785 55.2593C104.685 55.2593 106.14 55.8085 107.149 56.8921C108.173 57.9608 108.693 59.4972 108.693 61.4937V71.2015H105.783V61.7015C105.724 59.1706 104.455 57.9015 101.983 57.9015C100.833 57.9015 99.8608 58.3765 99.074 59.3265C98.3022 60.2616 97.9162 61.3675 97.9162 62.6515V71.2015H95.0068V55.764Z" fill="#747474"></path>
  <path d="M114.062 66.4812C114.062 67.2382 114.374 67.8691 115.012 68.3812C115.643 68.8785 116.393 69.1234 117.269 69.1234C118.471 69.1234 119.554 68.6781 120.505 67.7874C121.469 66.882 121.959 65.8132 121.959 64.5812C121.046 63.8687 119.777 63.5124 118.159 63.5124C116.987 63.5124 116.007 63.8019 115.22 64.3734C114.448 64.93 114.062 65.6351 114.062 66.4812ZM117.803 55.2593C119.94 55.2593 121.618 55.8382 122.85 56.9812C124.097 58.1316 124.72 59.705 124.72 61.7015V71.2015H121.959V69.064H121.84C120.631 70.8304 119.028 71.7062 117.031 71.7062C115.324 71.7062 113.899 71.2015 112.756 70.1921C111.628 69.1828 111.064 67.9285 111.064 66.4218C111.064 64.8187 111.665 63.557 112.875 62.6218C114.077 61.6718 115.695 61.1968 117.714 61.1968C119.436 61.1968 120.846 61.5085 121.959 62.1171V61.464C121.959 60.4546 121.551 59.6085 120.742 58.9109C119.948 58.1984 119.02 57.8421 117.951 57.8421C116.326 57.8421 115.049 58.5249 114.122 59.8905L111.569 58.2874C112.971 56.2687 115.049 55.2593 117.803 55.2593Z" fill="#747474"></path>
  <path d="M130.79 48.6387V71.2013H127.881V48.6387H130.79Z" fill="#747474"></path>
  <path d="M147.893 55.7642L138.215 78.0002H135.246L138.839 70.222L132.456 55.7642H135.603L140.204 66.8673H140.264L144.746 55.7642H147.893Z" fill="#747474"></path>
  <path d="M155.863 71.4388C154.616 71.4388 153.577 71.0529 152.745 70.281C151.914 69.5092 151.484 68.433 151.469 67.0451V58.406H148.738V55.7638H151.469V51.0435H154.349V55.7638H158.149V58.406H154.349V66.0951C154.349 67.1267 154.541 67.8318 154.942 68.2029C155.358 68.5591 155.811 68.7373 156.308 68.7373C156.545 68.7373 156.768 68.7224 156.991 68.6779C157.206 68.6185 157.414 68.5517 157.614 68.4701L158.505 71.0529C157.748 71.3053 156.872 71.4388 155.863 71.4388Z" fill="#747474"></path>
  <path d="M164.494 50.4498C164.494 51.0065 164.286 51.4889 163.87 51.9045C163.47 52.3053 162.995 52.4983 162.445 52.4983C161.866 52.4983 161.384 52.3053 160.991 51.9045C160.59 51.4889 160.397 51.0065 160.397 50.4498C160.397 49.8783 160.59 49.3959 160.991 48.9951C161.384 48.6018 161.866 48.4014 162.445 48.4014C162.995 48.4014 163.47 48.6018 163.87 48.9951C164.286 49.3959 164.494 49.8783 164.494 50.4498ZM163.9 55.7639V71.2014H160.991V55.7639H163.9Z" fill="#747474"></path>
  <path d="M173.673 71.7062C171.372 71.7062 169.472 70.9269 167.973 69.3609C166.488 67.78 165.746 65.8206 165.746 63.4827C165.746 61.1077 166.488 59.1484 167.973 57.6046C169.472 56.046 171.372 55.2593 173.673 55.2593C175.254 55.2593 176.627 55.6601 177.799 56.4468C178.965 57.2409 179.848 58.3319 180.442 59.7124L177.799 60.8109C176.983 58.8737 175.551 57.9015 173.495 57.9015C172.166 57.9015 171.016 58.4359 170.051 59.5046C169.101 60.5734 168.626 61.9019 168.626 63.4827C168.626 65.071 169.101 66.3921 170.051 67.4609C171.016 68.5296 172.166 69.064 173.495 69.064C175.61 69.064 177.094 68.0992 177.948 66.1546L180.531 67.2531C179.974 68.641 179.091 69.732 177.888 70.5187C176.679 71.3054 175.276 71.7062 173.673 71.7062Z" fill="#747474"></path>
  <path d="M194.868 66.9265C194.868 68.2773 194.275 69.4128 193.087 70.3406C191.914 71.2461 190.445 71.7062 188.664 71.7062C187.12 71.7062 185.754 71.298 184.567 70.489C183.394 69.68 182.555 68.6113 182.043 67.2828L184.626 66.1843C185.019 67.1195 185.576 67.8394 186.289 68.3515C187.016 68.871 187.81 69.1234 188.664 69.1234C189.591 69.1234 190.363 68.9304 190.979 68.5296C191.61 68.1363 191.929 67.6613 191.929 67.1046C191.929 66.1175 191.165 65.3976 189.643 64.9374L187.001 64.2843C183.988 63.5124 182.489 62.0577 182.489 59.9202C182.489 58.5175 183.06 57.3894 184.21 56.5358C185.353 55.6897 186.823 55.2593 188.604 55.2593C189.97 55.2593 191.202 55.5858 192.315 56.239C193.421 56.8921 194.193 57.7679 194.631 58.8515L192.048 59.9202C191.751 59.2671 191.261 58.7624 190.593 58.4062C189.94 58.0351 189.205 57.8421 188.396 57.8421C187.639 57.8421 186.957 58.0351 186.348 58.4062C185.754 58.7847 185.457 59.2523 185.457 59.8015C185.457 60.6773 186.289 61.3081 187.951 61.7015L190.267 62.2952C193.332 63.0523 194.868 64.596 194.868 66.9265Z" fill="#747474"></path>
  <path d="M45.85 20.6077V68.4276C45.85 73.7824 49.5406 76.7598 53.4577 76.7598C57.0804 76.7598 61.0654 74.2239 61.0654 68.4276V20.97C61.0654 16.068 57.4427 13 53.4577 13C49.4727 13 45.85 16.385 45.85 20.6077Z" fill="#F8AB00"></path>
  <path d="M25.9249 44.8797V68.4273C25.9249 73.7821 29.6156 76.7596 33.5326 76.7596C37.1553 76.7596 41.1403 74.2237 41.1403 68.4273V45.2419C41.1403 40.34 37.5176 37.272 33.5326 37.272C29.5476 37.272 25.9249 40.6569 25.9249 44.8797V44.8797Z" fill="#E37300"></path>
  <path d="M21.2154 69.1521C21.2154 73.3522 17.8078 76.7598 13.6077 76.7598C9.40762 76.7598 6 73.3522 6 69.1521C6 64.952 9.40762 61.5444 13.6077 61.5444C17.8078 61.5444 21.2154 64.952 21.2154 69.1521Z" fill="#E37300"></path>
</svg>
