<?xml version="1.0" encoding="UTF-8"?>
<svg xmlns="http://www.w3.org/2000/svg" width="200" height="90" viewBox="0 0 200 90" fill="none">
  <g clip-path="url(#clip0_3511_257)">
    <path d="M16.691 35.8116C20.0808 34.1465 23.833 33.3563 27.6063 33.5127C34.9049 33.7649 38.9142 37.4659 39.0731 44.7271C39.2507 52.3342 39.1946 59.8757 39.1664 67.4734C39.1664 70.567 38.3533 71.2769 35.2975 71.2769H31.064C28.3631 71.2769 27.5221 70.4546 27.466 67.7352V47.3719C27.466 44.2225 25.98 42.9233 22.7934 43.0543C22.2386 43.0637 21.6857 43.1167 21.1391 43.2131C16.9619 44.0636 16.7187 44.3625 16.7187 48.6239V66.7725C16.7187 70.6509 16.0553 71.3049 12.233 71.3049H7.99993C6.00936 71.3049 5.13093 70.3706 5 68.3146V20.3637C5 16.8591 5.74772 16.1211 9.19612 16.1211H12.9341C15.8313 16.1211 16.719 16.934 16.7753 19.8591C16.8593 24.242 16.7753 28.6248 16.7753 32.9985C16.691 33.8025 16.691 34.6715 16.691 35.8116Z" fill="black"></path>
    <path d="M79.0806 53.5771C78.8282 55.5954 78.6785 58.1839 78.1458 60.7074C77.3031 66.392 72.8901 70.8847 67.221 71.8285C63.3469 72.6605 59.335 72.6096 55.4834 71.6786C50.6028 70.7382 46.7141 67.0463 45.5213 62.2211C43.7564 56.1349 43.7564 49.6731 45.5213 43.5867C47.3904 37.1945 52.2777 33.7648 59.4365 33.5214C62.0193 33.3838 64.6092 33.5437 67.1557 33.9981C73.9123 35.3533 77.7438 39.9326 78.6132 47.4085C78.8282 49.3062 78.8933 51.1377 79.0806 53.5771ZM67.2866 53.7266C67.1557 51.6423 67.0811 50.2218 66.9499 48.8199C66.868 48.085 66.7175 47.3596 66.5015 46.6518C66.0725 44.2936 63.9288 42.6427 61.5393 42.8297C59.2087 42.6534 57.1223 44.268 56.7075 46.5677C55.6477 50.7695 55.6477 55.1691 56.7075 59.3708C57.1436 61.7105 59.3149 63.3148 61.6793 63.0435C63.9193 63.1982 65.9233 61.659 66.3518 59.4553C66.7665 57.5606 67.0783 55.645 67.2866 53.7171V53.7266V53.7266Z" fill="black"></path>
    <path d="M153.834 47.9137C154.348 44.0073 153.479 42.8019 149.713 42.9793C146.643 43.2384 143.594 43.6908 140.582 44.3341C138.031 44.7923 136.162 44.1473 135.807 42.1664C135.227 38.8958 135.452 36.0919 138.078 35.307C144.144 33.3112 150.636 32.9882 156.871 34.3723C162.534 35.7271 165.282 39.4746 165.282 45.5866V67.2301C165.282 68.8657 165.282 70.5479 163.338 71.1834C161.174 71.9726 158.747 71.3049 157.292 69.5199L156.693 68.6509C153.379 71.3022 149.202 72.6337 144.965 72.3889C135.76 72.0526 130.47 63.2773 134.47 54.9321C136.339 50.9604 140.078 49.7079 143.937 49.0914C147.264 48.5956 150.563 48.2873 153.834 47.9137ZM154.012 54.2869C151.778 54.6234 149.815 54.81 147.909 55.2217C145.921 55.4798 144.42 57.1515 144.376 59.156C143.956 61.1699 145.022 63.1993 146.918 63.9966C148.787 64.7257 152.759 63.9966 153.675 62.7261C153.851 62.4798 153.948 62.1868 153.955 61.8848C154.012 59.4269 154.012 56.9782 154.012 54.259V54.2869V54.2869Z" fill="black"></path>
    <path d="M87.0892 34.8211V29.9897C86.9192 28.5087 87.8756 27.1318 89.3229 26.7748C91.2286 26.1359 93.1658 25.5931 95.1263 25.1486C96.5417 24.6785 98.0705 25.4451 98.5409 26.8605C98.6665 27.2388 98.7069 27.6406 98.659 28.0363C98.7243 30.1204 98.659 32.1858 98.659 34.5034H104.201C106.902 34.5689 107.827 35.4375 107.939 38.2413C108.089 43.9232 107.78 44.2414 102.164 44.2414H98.9019C98.8149 44.7483 98.7556 45.2602 98.7243 45.7736V57.7641C98.7243 61.5021 99.8459 62.6422 103.481 62.9038C106.668 63.1375 107.537 63.8386 107.537 66.4365C107.649 70.5763 106.808 71.9782 103.481 72.1745C100.842 72.3731 98.1893 72.2382 95.5842 71.7729C90.1734 70.6793 87.2578 67.1651 87.08 61.4462C86.9211 56.4557 87.0146 51.4557 86.9961 46.4934V44.2504H83.7253C82.1855 44.3742 80.8357 43.2293 80.7069 41.6899C80.7069 41.6025 80.7069 41.5187 80.7069 41.4376C80.258 37.6153 80.9404 36.5967 84.5758 35.5684L87.0892 34.8211Z" fill="black"></path>
    <path d="M127.732 58.0633C127.732 64.5389 127.854 71.0154 127.732 77.4915C127.701 84.9599 121.621 90.989 114.153 90.957C113.442 90.9539 112.733 90.8953 112.032 90.7807C109.425 90.4537 108.499 89.4259 108.462 86.725V84.3229C108.574 82.0615 109.275 81.2764 111.518 80.8651C114.976 80.2208 116.107 78.9212 116.116 75.3051V38.4752C116.116 35.3536 116.911 34.5218 120.041 34.4194H124.293C126.807 34.5312 127.751 35.4473 127.769 37.9794V57.9412L127.732 58.0633Z" fill="black"></path>
    <path d="M179.935 37.0634C182.997 34.8669 186.645 33.6333 190.411 33.5215C194.149 33.5215 195.009 34.3066 195 38.0074V39.671C195 42.0636 194.009 42.9138 191.673 43.1568C189.474 43.4251 187.29 43.8089 185.131 44.3063C183.683 44.615 183.131 45.4933 183.159 47.11C183.271 53.8666 183.159 60.5671 183.159 67.2867C183.159 70.5855 182.44 71.2769 179.103 71.3425H174.291C172.907 71.4555 171.694 70.4256 171.58 69.0415C171.567 68.8744 171.57 68.7059 171.59 68.5392V37.456C171.483 36.0719 172.518 34.8627 173.902 34.7555C173.904 34.7551 173.906 34.7551 173.908 34.7551H174.02C176.347 34.3627 178.795 33.9983 179.935 37.0634Z" fill="black"></path>
    <path d="M126.48 27.84C128.592 20.2516 127.835 16.4293 124.125 15.6908C124.695 18.2703 125.33 20.915 122.621 22.6999C121.2 23.6344 120.079 23.2792 117.564 21.3448C116.405 23.7279 116.798 26.1016 117.331 28.6434C113.724 28.0173 110.882 26.5219 109.565 23.0363C108.206 19.8695 108.95 16.1921 111.434 13.803C112.302 12.9221 113.24 12.1126 114.238 11.3825C118.294 8.33592 119.078 5.38285 116.938 0.803619C116.843 0.541348 116.765 0.272988 116.705 0C121.215 0.685308 125.48 2.49472 129.106 5.26159C137.013 11.7284 136.06 23.3446 127.331 27.6157C127.035 27.6384 126.747 27.7141 126.48 27.84Z" fill="#EE4854"></path>
  </g>
  <defs>
    <clipPath id="clip0_3511_257">
      <rect width="200" height="90" fill="white"></rect>
    </clipPath>
  </defs>
</svg>
