<?xml version="1.0" encoding="UTF-8"?>
<svg xmlns="http://www.w3.org/2000/svg" width="200" height="90" viewBox="0 0 200 90" fill="none">
  <path d="M5 45.2463V45.1357C5 33.7359 13.7181 24.3283 26.0593 24.3283C31.1542 24.2176 36.0226 25.7671 39.9854 28.8661C40.8912 29.5301 41.3441 30.6369 41.3441 31.633C41.3441 33.5145 39.759 35.064 37.721 35.064C36.9284 35.064 36.2492 34.8426 35.683 34.3999C32.9657 32.0757 29.5691 30.7476 25.946 30.7476C18.1337 30.7476 12.4726 37.1669 12.4726 45.0249V45.1357C12.4726 52.9937 18.1337 59.4129 25.946 59.4129C29.6822 59.5237 33.4186 58.0849 36.1359 55.5393C36.7021 54.9859 37.4946 54.7646 38.2872 54.7646C40.0987 54.7646 41.5705 56.2033 41.6838 58.0849C41.6838 59.081 41.2309 59.9663 40.5516 60.6304C36.5888 64.2827 31.2673 66.1643 25.7196 66.0537C13.8313 65.9429 5 56.7568 5 45.2463Z" fill="#388AED"></path>
  <path d="M44.2871 56.5356V56.4248C44.2871 49.8948 49.4953 46.6853 56.9679 46.6853C59.7985 46.6853 62.5158 47.1279 65.2331 47.9028V47.1279C65.2331 42.8115 62.5158 40.4873 57.6472 40.4873C55.2696 40.4873 53.0052 40.8193 50.8541 41.7048C50.5144 41.8154 50.1746 41.9261 49.7219 41.9261C48.1368 41.9261 46.778 40.7087 46.778 39.0485C46.778 37.8311 47.5706 36.7243 48.7028 36.2816C51.873 35.0641 55.1565 34.5107 58.553 34.5107C63.1951 34.5107 66.5918 35.7282 68.7429 37.9417C71.0075 40.1553 72.0264 43.365 72.0264 47.3493V62.2908C72.0264 64.0616 70.5546 65.6111 68.7429 65.6111H68.6298C66.8182 65.7217 65.3464 64.5042 65.2331 62.7334C65.2331 62.7334 65.2331 62.7334 65.2331 62.6228V61.5161C62.7423 64.3936 59.1192 66.0538 55.2696 65.9431C49.3821 65.9431 44.2871 62.6228 44.2871 56.5356ZM65.3464 54.322V52.2192C63.082 51.4444 60.7043 51.0017 58.3267 51.0017C53.7977 51.0017 51.0804 52.8831 51.0804 56.0928V56.2034C51.0804 59.1917 53.6845 60.8519 57.0812 60.8519C61.7232 60.8519 65.3464 58.1956 65.3464 54.322Z" fill="#388AED"></path>
  <path d="M78.4807 26.431C78.4807 24.5495 79.9525 23 81.8773 23C83.802 23 85.3871 24.5495 85.3871 26.431V62.0691C85.3871 63.9505 83.802 65.5001 81.8773 65.5001C79.9525 65.5001 78.3674 63.9505 78.3674 62.0691V26.431H78.4807Z" fill="#388AED"></path>
  <path d="M92.8591 26.431C92.8591 24.5495 94.331 23 96.2557 23C98.1804 23 99.7655 24.5495 99.7655 26.431V62.0691C99.7655 63.9505 98.1804 65.5001 96.2557 65.5001C94.331 65.5001 92.7458 63.9505 92.7458 62.0691L92.8591 26.431Z" fill="#388AED"></path>
  <path d="M110.41 26.4308C110.41 25.6561 111.09 24.992 111.882 24.8813H127.507C132.488 24.8813 136.564 26.4308 138.942 28.8657C140.98 30.8579 141.999 33.5142 141.999 36.3918V36.5025C141.999 43.2537 136.904 47.1275 130.111 48.0129L141.659 62.8436C141.886 63.1756 142.112 63.5078 142.112 63.8397C142.112 64.7251 141.433 65.3892 140.527 65.3892C139.961 65.3892 139.508 65.0572 139.169 64.6145L126.827 48.5662H113.467V63.9504C113.467 64.7251 112.788 65.3892 111.995 65.5C111.203 65.5 110.523 64.8358 110.41 64.0611V26.4308ZM127.167 45.9101C133.96 45.9101 139.055 42.479 139.055 36.7238V36.6131C139.055 31.19 134.753 27.759 127.394 27.759H113.467V45.9101H127.167Z" fill="#388AED"></path>
  <path d="M145.961 56.7576V56.6468C145.961 50.5596 151.283 47.1287 158.981 47.1287C162.266 47.1287 165.662 47.5713 168.832 48.346V47.1287C168.832 41.152 165.209 38.1637 159.095 38.1637C156.15 38.1637 153.321 38.8279 150.603 40.1559C150.377 40.2666 150.15 40.2666 149.924 40.3773C149.245 40.3773 148.565 39.824 148.565 39.0492C148.565 38.4957 148.905 38.0531 149.358 37.8318C152.415 36.3929 155.698 35.6182 159.095 35.6182C163.058 35.6182 166.341 36.7249 168.492 38.8279C170.643 41.0413 171.663 44.0296 171.549 47.1287V64.1729C171.549 64.9476 170.984 65.6117 170.191 65.6117C169.397 65.6117 168.718 65.0584 168.718 64.2836V64.1729V60.5206C166.114 64.1729 161.925 66.1651 157.396 66.0545C151.849 65.9437 145.961 62.8448 145.961 56.7576ZM168.832 54.3226V51.0023C165.549 50.1168 162.152 49.6742 158.756 49.6742C152.415 49.6742 149.018 52.4412 149.018 56.5362V56.6468C149.018 60.8526 153.094 63.3981 157.623 63.3981C163.624 63.2875 168.832 59.6351 168.832 54.3226Z" fill="#388AED"></path>
  <path d="M179.475 25.8773C179.475 24.9919 180.154 24.2171 181.173 24.1064C181.173 24.1064 181.173 24.1064 181.286 24.1064C182.306 24.1064 183.098 24.8812 183.098 25.7666V26.7627C183.098 27.7588 182.306 28.5335 181.286 28.5335C180.381 28.5335 179.588 27.7588 179.588 26.8734C179.588 26.8734 179.588 26.8734 179.588 26.7627V25.8773H179.475ZM179.815 37.1664C179.815 36.3916 180.381 35.7276 181.173 35.7276C181.965 35.7276 182.644 36.2809 182.644 37.0557V37.1664V64.061C182.758 64.8357 182.192 65.3891 181.4 65.4997H181.286C180.494 65.4997 179.815 64.9463 179.815 64.1716V64.061V37.1664Z" fill="#388AED"></path>
  <path d="M192.041 24.4388C192.041 23.6641 192.608 23 193.401 23C193.401 23 193.401 23 193.514 23C194.307 23 194.986 23.6641 194.986 24.4388V64.0613C195.099 64.836 194.532 65.3894 193.739 65.5001H193.626C192.834 65.5001 192.155 64.9466 192.155 64.1719V64.0613V24.4388H192.041Z" fill="#388AED"></path>
</svg>
