<?xml version="1.0" encoding="UTF-8"?>
<svg xmlns="http://www.w3.org/2000/svg" width="200" height="90" viewBox="0 0 200 90" fill="none">
  <path fill-rule="evenodd" clip-rule="evenodd" d="M136.957 49.0382C136.671 48.6372 136.327 48.5226 135.811 48.809C135.066 49.2101 134.15 49.4966 133.233 49.4966C130.654 49.4966 128.878 47.7204 128.878 45.1993C128.878 42.6782 130.654 40.9019 133.233 40.9019C134.092 40.9019 135.066 41.1311 135.811 41.5895C136.327 41.876 136.671 41.8187 136.957 41.3603L137.244 40.9592C137.53 40.5008 137.473 40.0998 137.072 39.8133C135.926 39.0684 134.723 38.7246 133.29 38.7246C131.285 38.7246 129.508 39.4122 128.248 40.6727C127.045 41.876 126.414 43.4803 126.414 45.2566C126.414 47.0328 127.045 48.6372 128.248 49.8404C129.508 51.101 131.227 51.7885 133.29 51.7885C134.78 51.7885 135.983 51.4448 137.186 50.6426C137.53 50.3561 137.587 50.0123 137.301 49.5539L136.957 49.0382Z" fill="#1856ED"></path>
  <path fill-rule="evenodd" clip-rule="evenodd" d="M143.031 42.1055C140.28 42.1055 138.103 44.2255 138.103 46.8612C138.103 49.5542 140.28 51.6742 143.031 51.6742C145.838 51.6742 148.016 49.5542 148.016 46.8612C147.958 44.2255 145.724 42.1055 143.031 42.1055ZM143.031 49.6115C141.541 49.6115 140.395 48.4082 140.395 46.9185C140.395 45.3715 141.541 44.1682 143.031 44.1682C144.521 44.1682 145.666 45.3715 145.666 46.9185C145.609 48.4082 144.463 49.6115 143.031 49.6115Z" fill="#1856ED"></path>
  <path fill-rule="evenodd" clip-rule="evenodd" d="M154.72 42.1055C153.402 42.1055 152.37 42.6784 151.912 43.6525V43.1368C151.912 42.6212 151.625 42.3347 151.11 42.3347H150.308C149.792 42.3347 149.505 42.6212 149.505 43.1368V50.7002C149.505 51.2158 149.792 51.5023 150.308 51.5023H151.11C151.625 51.5023 151.912 51.2158 151.912 50.7002V47.0331C151.912 46.059 152.37 44.1682 154.204 44.1682C155.178 44.1682 155.751 44.9704 155.751 46.3455V50.6429C155.751 51.1585 156.037 51.445 156.553 51.445H157.355C157.871 51.445 158.157 51.1585 158.157 50.6429V46.2309C158.157 43.6525 156.84 42.1055 154.72 42.1055Z" fill="#1856ED"></path>
  <path fill-rule="evenodd" clip-rule="evenodd" d="M176.034 42.2775H175.232C174.717 42.2775 174.43 42.564 174.43 43.0797V43.4808C173.742 42.564 172.654 42.0483 171.451 42.0483C168.872 42.0483 166.981 44.0538 166.981 46.8041C166.981 49.5544 168.872 51.6171 171.451 51.6171C172.711 51.6171 173.742 51.1014 174.43 50.1846V50.5857C174.43 51.1014 174.717 51.3879 175.232 51.3879H176.034C176.55 51.3879 176.837 51.1014 176.837 50.5857V43.137C176.894 42.6213 176.55 42.2775 176.034 42.2775ZM171.909 49.6117C170.419 49.6117 169.388 48.4657 169.388 46.8614C169.388 45.257 170.419 44.1111 171.909 44.1111C173.399 44.1111 174.487 45.257 174.487 46.8614C174.487 48.523 173.399 49.6117 171.909 49.6117Z" fill="#1856ED"></path>
  <path fill-rule="evenodd" clip-rule="evenodd" d="M183.77 44.1684C184.056 44.1684 184.686 44.2257 185.317 44.5122C185.832 44.7413 186.176 44.684 186.463 44.283L186.692 43.9965C186.864 43.7673 186.921 43.5381 186.864 43.3662C186.806 43.1943 186.692 43.0224 186.463 42.8505C185.374 42.2202 184.343 42.0483 183.655 42.0483C180.561 42.0483 178.441 44.0538 178.441 46.9187C178.441 49.669 180.618 51.6171 183.655 51.6171C184.285 51.6171 185.259 51.5025 186.233 50.9868C186.52 50.8149 186.749 50.5857 186.806 50.3565C186.864 50.1274 186.806 49.9555 186.635 49.7263L186.405 49.4398C186.119 49.0387 185.775 48.9814 185.259 49.2679C184.572 49.6117 183.827 49.6117 183.712 49.6117C181.993 49.6117 180.79 48.4657 180.79 46.8614C180.79 45.3143 182.051 44.1684 183.77 44.1684Z" fill="#1856ED"></path>
  <path fill-rule="evenodd" clip-rule="evenodd" d="M194.771 49.8981L194.198 49.1532C194.083 49.0386 194.026 48.9813 193.911 48.9813C193.797 48.9813 193.682 49.0386 193.568 49.1532L193.51 49.2105C193.453 49.3251 193.166 49.5543 192.823 49.6116C192.708 49.6116 192.593 49.6689 192.479 49.6116C191.963 49.5543 191.677 49.2105 191.677 48.5229V44.111H193.854C194.141 44.111 194.312 43.9391 194.312 43.6526V42.7358C194.312 42.4494 194.141 42.2775 193.854 42.2775H191.677V41.4753V40.5585C191.677 40.0428 191.39 39.7563 190.875 39.7563H190.13C189.614 39.7563 189.327 40.0428 189.327 40.5585V42.2202H188.411C188.124 42.2202 187.952 42.3921 187.952 42.6785V43.5953C187.952 43.8818 188.124 44.0537 188.411 44.0537H189.327V44.8559V48.4656C189.327 51.2732 191.276 51.6743 192.422 51.6743C192.823 51.6743 193.166 51.617 193.51 51.5597C193.682 51.5024 193.854 51.4451 194.026 51.3305C194.312 51.2159 194.484 51.044 194.713 50.8149C194.828 50.7003 194.943 50.5857 195 50.4711C195 50.2992 194.943 50.07 194.771 49.8981Z" fill="#1856ED"></path>
  <path fill-rule="evenodd" clip-rule="evenodd" d="M165.549 49.1532C165.434 49.0386 165.377 48.9813 165.262 48.9813C165.148 48.9813 165.033 49.0386 164.919 49.1532L164.861 49.2105C164.804 49.3251 164.517 49.5543 164.174 49.6116C164.059 49.6116 163.945 49.6689 163.83 49.6116C163.314 49.5543 163.028 49.2105 163.028 48.5229V44.111H165.205C165.492 44.111 165.663 43.9391 165.663 43.6526V42.7358C165.663 42.4494 165.492 42.2775 165.205 42.2775H163.028V41.4753V40.5585C163.028 40.0428 162.741 39.7563 162.226 39.7563H161.423C160.908 39.7563 160.621 40.0428 160.621 40.5585V42.2202H159.704C159.418 42.2202 159.246 42.3921 159.246 42.6785V43.5953C159.246 43.8818 159.418 44.0537 159.704 44.0537H160.621V44.8559V48.4656C160.621 51.2732 162.569 51.6743 163.715 51.6743C164.116 51.6743 164.46 51.617 164.804 51.5597C164.976 51.5024 165.148 51.4451 165.32 51.3305C165.606 51.2159 165.778 51.044 166.007 50.8149C166.122 50.7003 166.236 50.5857 166.294 50.4711C166.466 50.2992 166.408 50.07 166.236 49.8408L165.549 49.1532Z" fill="#1856ED"></path>
  <path fill-rule="evenodd" clip-rule="evenodd" d="M54.219 48.9811C53.9325 48.58 53.5887 48.4654 53.073 48.7519C52.3281 49.153 51.4114 49.4395 50.4946 49.4395C47.9162 49.4395 46.14 47.6633 46.14 45.1421C46.14 42.621 47.9162 40.8448 50.4946 40.8448C51.3541 40.8448 52.3281 41.074 53.073 41.5324C53.5887 41.8189 53.9325 41.7616 54.219 41.3032L54.5055 40.9021C54.792 40.4437 54.7347 40.0426 54.3336 39.7561C53.1876 39.0113 51.9844 38.6675 50.5519 38.6675C48.5465 38.6675 46.7702 39.3551 45.5097 40.6156C44.3064 41.8189 43.6761 43.4232 43.6761 45.1994C43.6761 46.9757 44.3064 48.58 45.5097 49.7833C46.7702 51.0438 48.4892 51.7314 50.5519 51.7314C52.0416 51.7314 53.2449 51.3876 54.4482 50.5855C54.792 50.299 54.8492 49.9552 54.5628 49.4968L54.219 48.9811Z" fill="#1856ED"></path>
  <path fill-rule="evenodd" clip-rule="evenodd" d="M60.2926 42.1055C57.5423 42.1055 55.3649 44.2255 55.3649 46.8612C55.3649 49.5542 57.5423 51.6742 60.2926 51.6742C63.1002 51.6742 65.2775 49.5542 65.2775 46.8612C65.2202 44.2255 62.9856 42.1055 60.2926 42.1055ZM60.2926 49.6115C58.8028 49.6115 57.6568 48.4082 57.6568 46.9185C57.6568 45.3715 58.8028 44.1682 60.2926 44.1682C61.7823 44.1682 62.9283 45.3715 62.9283 46.9185C62.871 48.4082 61.725 49.6115 60.2926 49.6115Z" fill="#1856ED"></path>
  <path fill-rule="evenodd" clip-rule="evenodd" d="M71.9813 42.1055C70.6635 42.1055 69.6321 42.6784 69.1737 43.6525V43.1368C69.1737 42.6212 68.8872 42.3347 68.3716 42.3347H67.5694C67.0537 42.3347 66.7672 42.6212 66.7672 43.1368V50.7002C66.7672 51.2158 67.0537 51.5023 67.5694 51.5023H68.3716C68.8872 51.5023 69.1737 51.2158 69.1737 50.7002V47.0331C69.1737 46.059 69.6321 44.1682 71.4656 44.1682C72.4397 44.1682 73.0127 44.9704 73.0127 46.3455V50.6429C73.0127 51.1585 73.2992 51.445 73.8149 51.445H74.617C75.1327 51.445 75.4192 51.1585 75.4192 50.6429V46.2309C75.4192 43.6525 74.1013 42.1055 71.9813 42.1055Z" fill="#1856ED"></path>
  <path fill-rule="evenodd" clip-rule="evenodd" d="M81.4355 46.1163L80.2322 45.7152C79.602 45.5433 79.3728 45.2569 79.3728 44.8558C79.3728 44.3401 79.8312 43.9963 80.4041 43.9963C80.8052 43.9963 81.0917 44.1109 81.3209 44.3974C81.6074 44.7412 81.8939 44.8558 82.3523 44.7985L82.7533 44.6839C83.0398 44.6266 83.269 44.4547 83.3263 44.2255C83.3836 44.0536 83.3836 43.8244 83.2117 43.5952C82.6388 42.6212 81.6647 42.1055 80.3468 42.1055C78.456 42.1055 77.0809 43.3087 77.0809 44.9704C77.0809 46.1736 77.883 47.0904 79.5447 47.5488L80.6906 47.9499C81.3782 48.1791 81.6074 48.4655 81.6074 48.8093C81.6074 49.325 81.0917 49.7261 80.3468 49.7261C79.7739 49.7261 79.2009 49.4969 78.9144 49.0958C78.6279 48.752 78.3987 48.5228 77.883 48.6374L77.4246 48.752C77.1382 48.8093 76.909 48.9812 76.8517 49.1531C76.7944 49.325 76.7944 49.5542 76.909 49.7834C77.4819 50.9294 78.7425 51.6169 80.3468 51.6169C82.7534 51.6169 83.842 50.1845 83.842 48.752C83.842 47.8926 83.3836 46.7466 81.4355 46.1163Z" fill="#1856ED"></path>
  <path fill-rule="evenodd" clip-rule="evenodd" d="M101.203 42.2775H100.401C99.8854 42.2775 99.5989 42.564 99.5989 43.0797V43.4808C98.9113 42.564 97.8226 42.0483 96.6194 42.0483C94.041 42.0483 92.1501 44.0538 92.1501 46.8041C92.1501 49.5544 94.041 51.6171 96.6194 51.6171C97.8799 51.6171 98.9113 51.1014 99.5989 50.1846V50.5857C99.5989 51.1014 99.8854 51.3879 100.401 51.3879H101.203C101.719 51.3879 102.005 51.1014 102.005 50.5857V43.0797C102.063 42.564 101.719 42.2775 101.203 42.2775ZM97.0778 49.6117C95.588 49.6117 94.5567 48.4657 94.5567 46.8614C94.5567 45.257 95.588 44.1111 97.0778 44.1111C98.5675 44.1111 99.6562 45.257 99.6562 46.8614C99.6562 48.4657 98.5675 49.6117 97.0778 49.6117Z" fill="#1856ED"></path>
  <path fill-rule="evenodd" clip-rule="evenodd" d="M109.397 42.1055C108.079 42.1055 107.048 42.6784 106.589 43.6525V43.1368C106.589 42.6212 106.303 42.3347 105.787 42.3347H104.985C104.469 42.3347 104.183 42.6212 104.183 43.1368V50.7002C104.183 51.2158 104.469 51.5023 104.985 51.5023H105.787C106.303 51.5023 106.589 51.2158 106.589 50.7002V47.0331C106.589 46.059 107.048 44.1682 108.881 44.1682C109.855 44.1682 110.428 44.9704 110.428 46.3455V50.6429C110.428 51.1585 110.715 51.445 111.23 51.445H112.033C112.548 51.445 112.835 51.1585 112.835 50.6429V46.2309C112.835 43.6525 111.517 42.1055 109.397 42.1055Z" fill="#1856ED"></path>
  <path fill-rule="evenodd" clip-rule="evenodd" d="M120.112 49.0959C119.997 48.9813 119.94 48.924 119.825 48.924C119.71 48.924 119.596 48.9813 119.481 49.0959L119.424 49.1532C119.367 49.2678 119.08 49.497 118.736 49.5543C118.622 49.5543 118.507 49.6116 118.393 49.5543C117.877 49.497 117.59 49.1532 117.59 48.4656V44.0537H119.768C120.054 44.0537 120.226 43.8818 120.226 43.5953V42.7358C120.226 42.4494 120.054 42.2775 119.768 42.2775H117.59V41.4753V40.5585C117.59 40.0428 117.304 39.7563 116.788 39.7563H116.043C115.528 39.7563 115.241 40.0428 115.241 40.5585V42.2202H114.324C114.038 42.2202 113.866 42.3921 113.866 42.6785V43.5953C113.866 43.8818 114.038 44.0537 114.324 44.0537H115.241V48.4656C115.241 51.2732 117.189 51.6743 118.335 51.6743C118.736 51.6743 119.08 51.617 119.424 51.5597C119.596 51.5024 119.768 51.4451 119.94 51.3305C120.226 51.2159 120.398 51.044 120.627 50.8149C120.742 50.7003 120.856 50.5857 120.914 50.4711C121.086 50.2992 121.028 50.07 120.856 49.8408L120.112 49.0959Z" fill="#1856ED"></path>
  <path fill-rule="evenodd" clip-rule="evenodd" d="M90.8896 49.0959C90.775 48.9813 90.7177 48.924 90.6031 48.924C90.4886 48.924 90.374 48.9813 90.2594 49.0959L90.2021 49.1532C90.1448 49.2678 89.8583 49.497 89.5145 49.5543C89.3999 49.5543 89.2853 49.6116 89.1707 49.5543C88.655 49.497 88.3685 49.1532 88.3685 48.4656V44.0537H90.5459C90.8323 44.0537 91.0042 43.8818 91.0042 43.5953V42.7358C91.0042 42.4494 90.8323 42.2775 90.5459 42.2775H88.3685V41.4753V40.5585C88.3685 40.0428 88.082 39.7563 87.5664 39.7563H86.8215C86.3058 39.7563 86.0193 40.0428 86.0193 40.5585V42.2202H85.1026C84.8161 42.2202 84.6442 42.3921 84.6442 42.6785V43.5953C84.6442 43.8818 84.8161 44.0537 85.1026 44.0537H86.0193V44.8559V48.4656C86.0193 51.2732 87.9674 51.6743 89.1134 51.6743C89.5145 51.6743 89.8583 51.617 90.2021 51.5597C90.374 51.5024 90.5459 51.4451 90.7178 51.3305C91.0042 51.2159 91.1761 51.044 91.4053 50.8149C91.5199 50.7003 91.6345 50.5857 91.6918 50.4711C91.8637 50.2992 91.8064 50.07 91.6345 49.8408L90.8896 49.0959Z" fill="#1856ED"></path>
  <path fill-rule="evenodd" clip-rule="evenodd" d="M25.7991 42.22C26.0856 43.0794 26.8878 43.5951 27.8046 43.5951C28.0338 43.5951 28.263 43.5378 28.4921 43.4805C29.5808 43.0794 30.1538 41.8762 29.7527 40.7875C29.0651 38.8967 27.6327 37.407 25.6273 36.4902C24.5959 36.0318 23.3353 36.4902 22.8197 37.5215C22.3613 38.5529 22.8197 39.8135 23.851 40.3291C24.8824 40.7875 25.5127 41.4178 25.7991 42.22Z" fill="#FF9E1A"></path>
  <path fill-rule="evenodd" clip-rule="evenodd" d="M25.1116 29.0414C23.9656 28.8122 22.8769 29.5571 22.6478 30.7031C22.4186 31.849 23.1634 32.9377 24.3094 33.1669C29.0651 34.0837 32.2738 37.2923 33.076 41.9335C33.2479 42.9648 34.1646 43.6524 35.1387 43.6524C35.2533 43.6524 35.3679 43.6524 35.4825 43.5951C36.6285 43.3659 37.3733 42.2773 37.2014 41.1886C36.1128 34.8858 31.5862 30.302 25.1116 29.0414Z" fill="#FF9E1A"></path>
  <path fill-rule="evenodd" clip-rule="evenodd" d="M19.7829 50.0126C17.8921 50.0126 16.2877 48.4656 16.2877 46.5174C16.2877 44.6266 17.8348 43.0223 19.7829 43.0223C20.9289 43.0223 21.9029 42.1055 21.9029 40.9023C21.9029 39.699 20.9862 38.7822 19.7829 38.7822C15.5429 38.7822 12.105 42.2201 12.105 46.4602C12.105 50.7002 15.5429 54.1381 19.7829 54.1381C24.023 54.1381 27.4608 50.7002 27.4608 46.4602C27.4608 45.3142 26.5441 44.3401 25.3408 44.3401C24.1948 44.3401 23.2208 45.2569 23.2208 46.4602C23.2781 48.4656 21.6737 50.0126 19.7829 50.0126Z" fill="#1856ED"></path>
  <path fill-rule="evenodd" clip-rule="evenodd" d="M32.4457 44.4545C31.2998 44.4545 30.3257 45.3713 30.3257 46.5745C30.3257 52.4189 25.57 57.1747 19.7256 57.1747C13.8812 57.1747 9.12545 52.4189 9.12545 46.5745C9.12545 40.7302 13.8812 35.9744 19.7256 35.9744C20.8715 35.9744 21.8456 35.0577 21.8456 33.8544C21.8456 32.7084 20.9288 31.7344 19.7256 31.7344C11.6466 31.7344 5 38.3809 5 46.5172C5 54.6536 11.6466 61.3001 19.7829 61.3001C27.9192 61.3001 34.5657 54.6536 34.5657 46.5172C34.5657 45.3713 33.649 44.4545 32.4457 44.4545Z" fill="#1856ED"></path>
</svg>
