<?xml version="1.0" encoding="UTF-8"?>
<svg xmlns="http://www.w3.org/2000/svg" width="200" height="90" viewBox="0 0 200 90" fill="none">
  <path fill-rule="evenodd" clip-rule="evenodd" d="M15.6186 66.2709V82.8653H10.3589V41.875H24.3314C27.8805 41.875 30.8967 43.058 33.38 45.4241C35.8952 47.7901 37.1528 50.6731 37.1528 54.073C37.1528 57.5474 35.8952 60.4464 33.38 62.7698C30.9286 65.1039 27.9124 66.2709 24.3314 66.2709H15.6186ZM15.6186 46.9109V61.2191H24.4273C26.5269 61.2191 28.2642 60.5157 29.639 59.1088C31.0565 57.6913 31.7653 56.0127 31.7653 54.073C31.7653 52.1652 31.0565 50.5026 29.639 49.0851C28.2642 47.6356 26.5269 46.9109 24.4273 46.9109H15.6186Z" fill="#757777"></path>
  <path fill-rule="evenodd" clip-rule="evenodd" d="M51.2366 53.8965C55.1268 53.8965 58.2016 54.9356 60.4611 57.0139C62.7099 59.0922 63.8343 61.9485 63.8343 65.5829V82.8646H58.7984V78.9798H58.5746C56.3897 82.1879 53.4855 83.7919 49.8618 83.7919C46.771 83.7919 44.1864 82.8753 42.1082 81.0421C40.0299 79.209 38.9907 76.9175 38.9907 74.1678C38.9907 71.2689 40.0885 68.9614 42.284 67.2455C44.4795 65.5189 47.4051 64.6556 51.0608 64.6556C54.1942 64.6556 56.7734 65.2312 58.7984 66.3822V65.1832C58.7984 63.35 58.0737 61.794 56.6242 60.515C55.1747 59.2361 53.4748 58.5966 51.5244 58.5966C48.5828 58.5966 46.2541 59.8329 44.5382 62.3056L39.902 59.396C42.4599 55.7296 46.2381 53.8965 51.2366 53.8965ZM44.4263 74.2797C44.4263 75.6546 45.0071 76.8003 46.1688 77.7169C47.3305 78.6335 48.6947 79.0918 50.2614 79.0918C52.4783 79.0918 54.4553 78.2711 56.1926 76.6298C57.9298 74.9885 58.7984 73.0594 58.7984 70.8425C57.1571 69.5423 54.8657 68.8921 51.9241 68.8921C49.7925 68.8921 48.0073 69.4091 46.5685 70.4429C45.1403 71.4767 44.4263 72.7556 44.4263 74.2797Z" fill="#757777"></path>
  <path d="M69.7976 54.8076H74.8335V59.3958H75.0573C76.624 55.8041 79.8533 54.0082 84.7453 54.0082L85.8324 54.1202V59.6196L83.4823 59.3958C81.031 59.3958 79.0167 60.1472 77.4393 61.65C75.8513 63.1634 75.0573 65.0818 75.0573 67.4052V82.8645H69.7976V54.8076ZM102.667 83.3281C100.375 83.3281 98.4727 82.6247 96.9593 81.2179C95.4565 79.8004 94.6838 77.834 94.6412 75.3187V59.6196H89.7172V54.8076H94.6412V46.2227H99.9168V54.8076H106.791V59.6196H99.9168V73.5921C99.9168 75.4679 100.279 76.7362 101.004 77.397C101.729 78.0685 102.549 78.4042 103.466 78.4042C103.882 78.4042 104.292 78.3562 104.697 78.2603C105.091 78.1644 105.464 78.0418 105.816 77.8926L107.463 82.5927C106.098 83.083 104.5 83.3281 102.667 83.3281V83.3281Z" fill="#757777"></path>
  <path d="M112.115 54.8077H117.151V58.7085H117.375C118.174 57.3337 119.405 56.1879 121.068 55.2713C122.73 54.3548 124.457 53.8965 126.247 53.8965C129.69 53.8965 132.333 54.877 134.177 56.8381C136.031 58.8098 136.959 61.6075 136.959 65.2312V82.8646H131.699V65.5829C131.582 61 129.269 58.7085 124.761 58.7085C122.661 58.7085 120.908 59.5558 119.501 61.2504C118.083 62.9557 117.375 64.9913 117.375 67.3574V82.8646H112.115V54.8077Z" fill="#757777"></path>
  <path fill-rule="evenodd" clip-rule="evenodd" d="M155.743 83.7919C151.619 83.7919 148.219 82.3797 145.544 79.5554C142.879 76.731 141.547 73.1606 141.547 68.8442C141.547 64.5704 142.842 61.0106 145.432 58.165C148.032 55.3193 151.352 53.8965 155.391 53.8965C159.559 53.8965 162.873 55.2394 165.335 57.9252C167.797 60.6216 169.028 64.3945 169.028 69.2439L168.964 69.8194H146.918C146.993 72.5691 147.91 74.7806 149.668 76.4539C151.427 78.1379 153.526 78.9798 155.967 78.9798C159.324 78.9798 161.957 77.3012 163.865 73.944L168.565 76.2301C167.307 78.5962 165.559 80.4453 163.321 81.7775C161.093 83.1204 158.568 83.7919 155.743 83.7919ZM147.318 65.455H163.417C163.268 63.5152 162.474 61.9059 161.035 60.6269C159.607 59.348 157.688 58.7085 155.28 58.7085C153.297 58.7085 151.592 59.316 150.164 60.531C148.725 61.7567 147.776 63.398 147.318 65.455V65.455Z" fill="#757777"></path>
  <path d="M179.1 82.8655H173.84V54.8086H178.876V59.3968H179.1C179.633 57.9047 180.73 56.6365 182.393 55.592C184.056 54.5368 185.686 54.0093 187.285 54.0093C188.82 54.0093 190.12 54.2384 191.186 54.6967L189.587 59.7965C188.937 59.5301 187.903 59.3968 186.486 59.3968C184.503 59.3968 182.777 60.1962 181.306 61.7949C179.835 63.4042 179.1 65.2747 179.1 67.4063V82.8655Z" fill="#757777"></path>
  <path d="M34.3232 17.9102C34.4511 18.5497 34.515 19.2957 34.515 20.1484C34.515 23.772 33.3693 26.6763 31.0778 28.8612C28.7544 31.078 25.8235 32.1865 22.2851 32.1865C19.951 32.1865 17.7395 31.5896 15.6505 30.3959C13.5616 29.2236 11.9309 27.6302 10.7586 25.6159C9.58618 23.6122 9 21.438 9 19.0932C9 16.7698 9.58618 14.6116 10.7586 12.6186C11.9522 10.5722 13.5829 8.9629 15.6505 7.79053C17.7395 6.59684 19.951 6 22.2851 6C25.7382 6 28.7331 7.20434 31.2697 9.61303L28.7438 12.139C26.9106 10.4337 24.7577 9.58106 22.2851 9.58106C19.6526 9.58106 17.4304 10.5083 15.6186 12.3628C13.8067 14.1853 12.9008 16.4288 12.9008 19.0932C12.9008 21.7577 13.8067 24.0065 15.6186 25.8397C17.4304 27.6835 19.6526 28.6054 22.2851 28.6054C24.5659 28.6054 26.4843 27.9872 28.0403 26.7509C29.639 25.504 30.5769 23.7507 30.854 21.4913H22.2851V17.9102H34.3232Z" fill="#457BBE"></path>
  <path fill-rule="evenodd" clip-rule="evenodd" d="M50.2625 17.7503C51.9038 19.349 52.7245 21.3527 52.7245 23.7614C52.7245 26.1168 51.9038 28.1151 50.2625 29.7564C48.6425 31.3764 46.6442 32.1864 44.2675 32.1864C41.8801 32.1864 39.8764 31.3764 38.2564 29.7564C36.6151 28.1151 35.7944 26.1168 35.7944 23.7614C35.7944 21.3527 36.6044 19.349 38.2244 17.7503C39.8444 16.1303 41.8588 15.3203 44.2675 15.3203C46.6442 15.3203 48.6425 16.1303 50.2625 17.7503V17.7503ZM49.0156 23.7614C49.0156 22.2693 48.5573 21.0543 47.6407 20.1164C46.7348 19.1358 45.6104 18.6456 44.2675 18.6456C42.9246 18.6456 41.7948 19.1358 40.8782 20.1164C39.9617 21.0543 39.5034 22.2693 39.5034 23.7614C39.5034 25.2108 39.9617 26.4205 40.8782 27.3904C41.7948 28.3709 42.9246 28.8612 44.2675 28.8612C45.589 28.8612 46.7028 28.3709 47.6087 27.3904C48.5466 26.3992 49.0156 25.1895 49.0156 23.7614V23.7614Z" fill="#EE2F2D"></path>
  <path d="M91.4282 6.89551H95.1372V31.6751H91.4282V6.89551Z" fill="#1AAC4D"></path>
  <path fill-rule="evenodd" clip-rule="evenodd" d="M68.7274 17.7503C70.3687 19.349 71.1894 21.3527 71.1894 23.7614C71.1894 26.1168 70.3687 28.1151 68.7274 29.7564C67.1074 31.3764 65.1037 32.1864 62.7163 32.1864C60.3396 32.1864 58.3413 31.3764 56.7213 29.7564C55.0799 28.1151 54.2593 26.1168 54.2593 23.7614C54.2593 21.3527 55.0693 19.349 56.6893 17.7503C58.3093 16.1303 60.3183 15.3203 62.7163 15.3203C65.1037 15.3203 67.1074 16.1303 68.7274 17.7503V17.7503ZM67.4804 23.7614C67.4804 22.2693 67.0221 21.0543 66.1055 20.1164C65.1889 19.1358 64.0592 18.6456 62.7163 18.6456C61.3734 18.6456 60.249 19.1358 59.3431 20.1164C58.4265 21.0543 57.9682 22.2693 57.9682 23.7614C57.9682 25.2108 58.4265 26.4205 59.3431 27.3904C60.249 28.3709 61.3734 28.8612 62.7163 28.8612C64.0379 28.8612 65.157 28.3709 66.0736 27.3904C67.0115 26.3992 67.4804 25.1895 67.4804 23.7614V23.7614Z" fill="#FCB512"></path>
  <path fill-rule="evenodd" clip-rule="evenodd" d="M109.445 26.5271L112.323 28.4455C110.618 30.9395 108.273 32.1864 105.289 32.1864C102.901 32.1864 100.908 31.3764 99.3098 29.7564C97.7218 28.1364 96.9277 26.1381 96.9277 23.7614C96.9277 21.3527 97.6791 19.3383 99.1819 17.7183C100.717 16.1197 102.614 15.3203 104.873 15.3203C105.705 15.3203 106.493 15.4482 107.239 15.704C107.985 15.9598 108.667 16.3275 109.286 16.8071C109.904 17.2867 110.453 17.8569 110.932 18.5177C111.412 19.1785 111.801 19.9032 112.099 20.6919L112.467 21.6511L101.196 26.3033C102.07 28.0085 103.434 28.8612 105.289 28.8612C107.015 28.8612 108.401 28.0831 109.445 26.5271V26.5271ZM100.589 23.5056L108.135 20.3722C107.921 19.8393 107.527 19.4076 106.951 19.0772C106.376 18.7468 105.726 18.5816 105.001 18.5816C103.85 18.5816 102.806 19.0506 101.868 19.9885C100.972 20.905 100.546 22.0774 100.589 23.5056V23.5056Z" fill="#EE2F2D"></path>
  <path fill-rule="evenodd" clip-rule="evenodd" d="M85.3695 15.8319H88.8706V30.9714C88.8706 33.7851 88.1618 35.954 86.7443 37.4781C85.3375 38.9915 83.3764 39.7482 80.8612 39.7482C80.0086 39.7482 79.1986 39.6256 78.4312 39.3805C77.6638 39.1354 76.9551 38.7997 76.3049 38.3733C75.6548 37.9364 75.0846 37.4141 74.5943 36.8066C74.1041 36.1991 73.6991 35.5224 73.3793 34.7763L76.6087 33.4334C76.9924 34.3287 77.5572 35.0534 78.3033 35.6076C79.0493 36.1618 79.902 36.4389 80.8612 36.4389C83.8667 36.4389 85.3695 34.6697 85.3695 31.1313V30.268H85.2416C84.1758 31.547 82.6943 32.1864 80.7972 32.1864C78.6443 32.1864 76.7472 31.3658 75.1059 29.7245C73.5179 28.0618 72.7239 26.0848 72.7239 23.7933C72.7239 21.4699 73.5179 19.4769 75.1059 17.8143C76.7259 16.1516 78.623 15.3203 80.7972 15.3203C82.6943 15.3203 84.1758 15.9491 85.2416 17.2068H85.3695V15.8319ZM85.6253 23.7933C85.6253 22.3439 85.1883 21.1182 84.3143 20.1164C83.4617 19.1358 82.3959 18.6456 81.117 18.6456C79.838 18.6456 78.7296 19.1465 77.7917 20.1483C76.8751 21.1289 76.4168 22.3439 76.4168 23.7933C76.4168 25.2108 76.8645 26.4099 77.7597 27.3904C78.6763 28.3709 79.7954 28.8612 81.117 28.8612C82.3746 28.8612 83.4404 28.3816 84.3143 27.4224C85.1883 26.4205 85.6253 25.2108 85.6253 23.7933Z" fill="#457BBE"></path>
</svg>
