<?xml version="1.0" encoding="UTF-8"?>
<svg xmlns="http://www.w3.org/2000/svg" width="87" height="87" viewBox="0 0 87 87" fill="none">
  <g clip-path="url(#clip0_3425_126)">
    <path d="M18.4199 0H22.3281V3.87422H25.9305V0H29.8387V11.7246H25.9305V7.81641H22.3621V11.7246H18.4199M35.0043 3.9082H31.5549V0H42.3789V3.9082H38.9125V11.7246H35.0043M44.0951 0H48.1902L50.7051 4.1291L53.2199 0H57.315V11.7246H53.4068V5.91328L50.6711 10.1273L47.9354 5.91328V11.7246H44.0951M59.2522 0H63.1604V7.85039H68.6998V11.7246H59.2522" fill="black"></path>
    <path d="M18.2832 80.0332L12.6758 17.0941H74.3234L68.716 79.9992L43.4486 87" fill="#E44D26"></path>
    <path d="M43.5 81.6475V22.2598H68.6994L63.8906 75.9551" fill="#F16529"></path>
    <path d="M24.1289 29.9572H43.5V37.6717H32.591L33.3047 45.573H43.5V53.2705H26.2359M26.5758 57.1447H34.3242L34.868 63.3129L43.5 65.6238V73.6781L27.6633 69.2601" fill="#EBEBEB"></path>
    <path d="M62.8029 29.9572H43.4658V37.6717H62.0893M61.3926 45.573H43.4658V53.2875H52.9814L52.0809 63.3129L43.4658 65.6238V73.6441L59.2686 69.2601" fill="white"></path>
  </g>
  <defs>
    <clipPath id="clip0_3425_126">
      <rect width="87" height="87" fill="white"></rect>
    </clipPath>
  </defs>
</svg>
