<?xml version="1.0" encoding="UTF-8"?>
<svg xmlns="http://www.w3.org/2000/svg" width="78" height="78" viewBox="0 0 78 78" fill="none">
  <path d="M78 39C78 60.5391 60.5391 78 39 78C17.4609 78 0 60.5391 0 39C0 17.4609 17.4609 0 39 0C60.5391 0 78 17.4609 78 39Z" fill="#4E5B92"></path>
  <path fill-rule="evenodd" clip-rule="evenodd" d="M39.508 25.6703C39.5291 25.6914 39.5464 25.742 39.5464 25.7828C39.5464 25.8389 38.6415 30.6377 38.5682 30.9704C38.5317 31.1362 38.413 31.1283 41.2484 31.1477C43.7643 31.1649 43.8987 31.1688 44.2939 31.2356C45.1881 31.3866 45.814 31.5745 46.4428 31.8807C47.3336 32.3144 47.9994 32.965 48.3284 33.7234C48.5605 34.2582 48.666 34.9363 48.6069 35.5139C48.5882 35.6969 48.1529 38.299 47.6396 41.2964C46.9741 45.1824 46.6918 46.7623 46.6558 46.8021C46.6086 46.8543 46.444 46.8578 44.0697 46.8578C41.8072 46.8578 41.5287 46.8524 41.4838 46.8078C41.4562 46.7802 41.4335 46.7505 41.4335 46.7418C41.4335 46.733 41.8586 44.4863 42.3781 41.749C42.8976 39.0117 43.3367 36.6376 43.3538 36.4732C43.4365 35.6786 43.1756 35.3011 42.4358 35.1449C42.1344 35.0812 37.8628 35.0747 37.7762 35.1378C37.7331 35.1693 37.4703 36.4325 36.565 40.9597C35.6667 45.4528 35.396 46.7545 35.3506 46.7997C35.2952 46.8549 35.1726 46.8578 32.8812 46.8578C30.7266 46.8578 30.4658 46.8525 30.4284 46.8077C30.3933 46.7655 30.7215 45.0677 32.4719 36.2346C34.0843 28.0975 34.5693 25.7027 34.6109 25.6719C34.6876 25.6152 39.4511 25.6136 39.508 25.6703ZM25.6165 31.1783C28.8071 31.5334 30.6926 33.0262 31.2109 35.6076C31.3313 36.2074 31.3699 36.7355 31.3482 37.4857C31.3268 38.2238 31.2977 38.5132 31.1782 39.177C30.5027 42.9312 27.7269 45.8713 24.0812 46.694C23.3242 46.8648 23.2798 46.8667 20.1629 46.8598C17.787 46.8546 17.2579 46.8611 17.2108 46.8961C17.1648 46.9302 17.0581 47.4371 16.6752 49.44C16.0944 52.4784 16.1384 52.2656 16.0801 52.3236C16.0383 52.3653 15.7226 52.3714 13.6259 52.3714C11.797 52.3714 11.2104 52.3623 11.1812 52.3332C11.1601 52.3121 11.1429 52.2622 11.1429 52.2222C11.1429 52.1821 12.0712 47.4655 13.2059 41.7408C14.3407 36.016 15.269 31.3189 15.269 31.3026C15.269 31.2864 15.2978 31.2445 15.333 31.2094C15.3964 31.1462 15.4395 31.1457 20.3628 31.1459C23.4766 31.1461 25.436 31.1581 25.6165 31.1783ZM61.3013 31.2332C62.3215 31.4083 62.9995 31.6144 63.6798 31.9564C64.2827 32.2595 64.5987 32.486 65.0569 32.9437C65.6454 33.5315 65.9876 34.091 66.2534 34.9C66.493 35.6289 66.5797 36.2514 66.5786 37.2329C66.5773 38.2867 66.4505 39.2111 66.1777 40.1546C65.1383 43.7505 62.1605 46.3495 58.53 46.8294C58.3211 46.8571 57.4522 46.8654 55.3607 46.8597C52.1469 46.851 52.3978 46.8331 52.3535 47.074C52.3415 47.1392 52.113 48.3383 51.8456 49.7388C51.4463 51.8306 51.3489 52.2928 51.3 52.3284C51.2508 52.3643 50.8223 52.3704 48.8274 52.3637C46.6668 52.3563 46.411 52.3502 46.3824 52.305C46.3334 52.2277 50.4976 31.2403 50.573 31.1847C50.6172 31.152 51.6366 31.146 55.7625 31.1539C60.8684 31.1638 60.8992 31.1642 61.3013 31.2332ZM19.5632 35.1537C19.4784 35.2387 18.2158 42.8181 18.2747 42.8887C18.3104 42.9316 18.503 42.9377 19.807 42.9376C21.1441 42.9374 21.3447 42.9307 21.7462 42.872C23.6448 42.5945 24.6985 41.9212 25.3796 40.5502C25.7826 39.739 26.0644 38.4412 26.0618 37.4082C26.0608 37.0112 26.0512 36.9337 25.9749 36.7046C25.6884 35.8451 24.9013 35.3011 23.6973 35.1306C23.5691 35.1124 22.6497 35.0986 21.5463 35.0983C19.7484 35.0977 19.6154 35.1014 19.5632 35.1537ZM54.7926 35.1451C54.7664 35.1712 54.7367 35.2322 54.7266 35.2806C54.7166 35.3289 54.4346 37.0106 54.1 39.0177C53.7654 41.0247 53.4838 42.7045 53.4742 42.7506C53.4631 42.8043 53.4755 42.8528 53.5089 42.886C53.5553 42.9322 53.7169 42.9378 55.0301 42.9378C56.6615 42.9378 57.0009 42.9103 57.8121 42.713C59.8516 42.2168 60.8996 40.8547 61.2331 38.2671C61.3112 37.6607 61.3157 37.138 61.2451 36.8525C61.1778 36.5799 60.9836 36.2081 60.7987 35.9975C60.4213 35.5678 59.807 35.275 59.0098 35.1449C58.5804 35.0748 54.863 35.075 54.7926 35.1451Z" fill="#FEFEFE"></path>
</svg>
