<svg width="25" height="25" viewBox="0 0 25 25" fill="none" xmlns="http://www.w3.org/2000/svg">
<path d="M23.0563 25L14.1421 16.0858C13.4942 16.622 12.7234 17.0465 11.8298 17.3593C10.9361 17.672 9.98659 17.8284 8.98123 17.8284C6.45666 17.8284 4.32864 16.9571 2.59719 15.2145C0.865729 13.4719 0 11.3718 0 8.91421C0 6.45666 0.871314 4.35657 2.61394 2.61394C4.35657 0.871314 6.45666 0 8.91421 0C11.3941 0 13.4942 0.871314 15.2145 2.61394C16.9348 4.35657 17.7949 6.45666 17.7949 8.91421C17.7949 9.89723 17.6497 10.8244 17.3592 11.6957C17.0688 12.567 16.6332 13.3937 16.0523 14.1756L25 23.0563L23.0563 25ZM8.94772 15.1475C10.668 15.1475 12.1314 14.5387 13.3378 13.321C14.5442 12.1034 15.1475 10.6345 15.1475 8.91421C15.1475 7.19392 14.5442 5.72498 13.3378 4.50737C12.1314 3.28977 10.668 2.68097 8.94772 2.68097C7.18275 2.68097 5.69146 3.28977 4.47386 4.50737C3.25626 5.72498 2.64745 7.19392 2.64745 8.91421C2.64745 10.6345 3.25626 12.1034 4.47386 13.321C5.69146 14.5387 7.18275 15.1475 8.94772 15.1475Z" fill="#0BAEAD"/>
</svg>
