<?xml version="1.0" encoding="UTF-8"?>
<svg xmlns="http://www.w3.org/2000/svg" width="169" height="50" viewBox="0 0 169 50" fill="none">
  <path fill-rule="evenodd" clip-rule="evenodd" d="M67.3645 21.1066C67.3645 23.7405 66.7476 25.9235 65.5137 27.6557C64.1256 29.6252 62.2035 30.6396 59.7476 30.6989C57.8968 30.7582 55.9926 30.1769 54.035 28.9549V40.2022L50.8672 39.0633V14.1126C51.3892 13.4719 52.0596 12.9202 52.8782 12.4575C54.7646 11.3541 57.0544 10.7906 59.7476 10.7668L59.801 10.8202C62.2688 10.7846 64.1671 11.7931 65.4959 13.8456C66.7417 15.7321 67.3645 18.1524 67.3645 21.1066ZM63.7162 20.893C63.7162 15.7083 62.2391 13.0448 59.2849 12.9024C58.1104 12.8431 56.9655 13.027 55.8502 13.4541C54.9604 13.7744 54.3553 14.0948 54.035 14.4151V26.7837C55.9333 27.9701 57.6121 28.5218 59.0714 28.4388C62.168 28.2371 63.7162 25.7218 63.7162 20.893Z" fill="#646464"></path>
  <path d="M86.7443 28.4744C86.7443 32.0099 86.3943 34.4599 85.6943 35.8243C84.9824 37.1768 83.624 38.2565 81.6189 39.0633C80.0053 39.7039 78.2553 40.0539 76.3689 40.1133L75.8528 38.12C77.763 37.859 79.1096 37.598 79.8926 37.337C81.4231 36.815 82.479 36.0201 83.0604 34.9523C83.5231 34.0862 83.7545 32.4192 83.7545 29.9515V29.1328C81.5833 30.1176 79.3113 30.6099 76.9384 30.6099C75.3723 30.6099 73.996 30.1176 72.8096 29.1328C71.4808 28.065 70.8164 26.7066 70.8164 25.0574V11.8524L73.9842 10.7668V24.043C73.9842 25.4667 74.441 26.5642 75.3545 27.3354C76.2681 28.0947 77.4545 28.4625 78.9138 28.4388C80.3613 28.4032 81.9155 27.8396 83.5765 26.7481V11.2473H86.7443V28.4744Z" fill="#646464"></path>
  <path d="M99.1309 30.521C98.7512 30.5447 98.4012 30.5566 98.0809 30.5566C96.2894 30.5566 94.8953 30.1295 93.8987 29.2753C92.9021 28.421 92.4038 27.2405 92.4038 25.7338V13.2406H90.2148V11.2474H92.4038V5.94405L95.5716 4.82288V11.2474H99.1309V13.2406H95.5716V25.6448C95.5716 26.8312 95.886 27.6736 96.5148 28.1719C97.0724 28.5753 97.9444 28.8066 99.1309 28.8659V30.521Z" fill="#646464"></path>
  <path d="M118.333 30.254H115.148V18.01C115.148 16.7643 114.857 15.6965 114.276 14.8067C113.611 13.7982 112.68 13.294 111.482 13.294C110.034 13.294 108.219 14.0592 106.036 15.5897V30.254H102.868V0.996605L106.036 0V13.3296C108.065 11.8584 110.277 11.1228 112.674 11.1228C114.359 11.1228 115.723 11.6864 116.767 12.8135C117.811 13.9406 118.333 15.3406 118.333 17.0134V30.254Z" fill="#646464"></path>
  <path fill-rule="evenodd" clip-rule="evenodd" d="M138.657 20.4125C138.657 23.2481 137.933 25.6032 136.486 27.4777C134.884 29.5896 132.683 30.6455 129.883 30.6455C127.107 30.6455 124.936 29.5955 123.37 27.4777C121.946 25.6032 121.234 23.2481 121.234 20.4125C121.234 17.7431 122.006 15.4948 123.548 13.6677C125.161 11.7338 127.285 10.7668 129.919 10.7668C132.553 10.7668 134.694 11.7338 136.344 13.6677C137.886 15.4948 138.657 17.7431 138.657 20.4125ZM135.187 20.377C135.187 18.3956 134.807 16.7524 134.048 15.4473C133.146 13.8575 131.758 13.0211 129.883 12.938C126.407 13.1397 124.669 15.6312 124.669 20.4125C124.669 22.5956 125.031 24.4227 125.755 25.8939C126.692 27.7684 128.086 28.6879 129.937 28.6523C133.437 28.6286 135.187 25.8701 135.187 20.377Z" fill="#646464"></path>
  <path d="M156.828 30.254H153.66V17.3337C153.66 15.91 153.233 14.8007 152.379 14.0058C151.524 13.2109 150.385 12.8253 148.962 12.849C147.467 12.8846 146.037 13.377 144.673 14.3261V30.254H141.505V13.9346C143.332 12.6058 145.011 11.7397 146.541 11.3363C147.989 10.9567 149.264 10.7668 150.368 10.7668C151.115 10.7668 151.821 10.838 152.485 10.9804C153.731 11.277 154.745 11.8168 155.529 12.5999C156.395 13.466 156.828 14.5041 156.828 15.7143V30.254Z" fill="#646464"></path>
  <path fill-rule="evenodd" clip-rule="evenodd" d="M24.5281 1.51281C27.1086 1.93993 29.2975 3.87975 29.2975 6.47803V15.5542C29.2975 18.2237 27.1798 20.4127 24.5281 20.4127H14.9892C11.7502 20.4127 9.02734 23.1889 9.02734 26.3389V30.6991H5.75278C2.97653 30.6991 1.35705 28.6881 0.680781 25.8584C-0.244636 22.0678 -0.209043 19.7898 0.680781 16.1593C1.42823 12.9916 3.86635 11.3187 6.64261 11.3187H19.7586V10.1085H10.2197V6.47803C10.2197 3.71958 10.9494 2.22467 14.9892 1.51281C16.3595 1.26366 17.9256 1.12129 19.5451 1.12129C21.1823 1.1035 22.8908 1.22807 24.5281 1.51281ZM12.6044 5.87295C12.6044 6.86956 13.4053 7.6882 14.3841 7.6882C15.3807 7.6882 16.1815 6.86956 16.1815 5.87295C16.1815 4.85855 15.3807 4.03992 14.3841 4.03992C13.4053 4.03992 12.6044 4.85855 12.6044 5.87295Z" fill="url(#paint0_linear_3433_203)"></path>
  <path fill-rule="evenodd" clip-rule="evenodd" d="M34.067 11.3186C36.8433 11.3186 38.1424 13.4008 38.8365 16.1593C39.7975 19.9855 39.8331 22.8685 38.8365 25.8583C37.8755 28.7592 36.8433 30.699 34.067 30.699H19.7586V31.9091H29.2976V35.5396C29.2976 38.2981 26.9306 39.704 24.5281 40.3981C20.9154 41.4481 18.0146 41.2879 14.9892 40.3981C12.4621 39.6506 10.2197 38.1379 10.2197 35.5396V26.4634C10.2197 23.8473 12.3731 21.605 14.9892 21.605H24.5281C27.6959 21.605 30.4899 18.8465 30.4899 15.5542V11.3186H34.067ZM23.3357 36.1447C23.3357 37.1591 24.1366 37.9777 25.1154 37.9777C26.112 37.9777 26.9128 37.1591 26.9128 36.1447C26.9128 35.1481 26.112 34.3295 25.1154 34.3295C24.1366 34.3295 23.3357 35.1481 23.3357 36.1447Z" fill="url(#paint1_linear_3433_203)"></path>
  <path d="M163.002 4.92959H161.686V4.52026H164.871V4.92959H163.554V8.4177H163.002V4.92959ZM165.369 4.52026H166.135L167.131 7.86601L168.306 4.52026H169V8.4177H168.484V5.24992L167.398 8.4177H166.882L165.85 5.23212V8.4177H165.369V4.52026Z" fill="#646464"></path>
  <path opacity="0.4" d="M32.6605 46.5734C32.6605 47.9438 26.93 49.0472 19.8648 49.0472C12.7996 49.0472 7.08691 47.9438 7.08691 46.5734C7.08691 45.2031 12.7996 44.0997 19.8648 44.0997C26.93 44.0997 32.6605 45.2031 32.6605 46.5734Z" fill="url(#paint2_radial_3433_203)"></path>
  <defs>
    <linearGradient id="paint0_linear_3433_203" x1="-13.1293" y1="17.0136" x2="8.52903" y2="35.8245" gradientUnits="userSpaceOnUse">
      <stop stop-color="#4D9FD3"></stop>
      <stop offset="1" stop-color="#2F6A9A"></stop>
    </linearGradient>
    <linearGradient id="paint1_linear_3433_203" x1="44.3178" y1="21.6406" x2="36.6119" y2="10.6245" gradientUnits="userSpaceOnUse">
      <stop stop-color="#FDD535"></stop>
      <stop offset="1" stop-color="#FBE971"></stop>
    </linearGradient>
    <radialGradient id="paint2_radial_3433_203" cx="0" cy="0" r="1" gradientUnits="userSpaceOnUse" gradientTransform="translate(19.8648 46.5734) scale(2.47371)">
      <stop stop-color="#B7B8B8" stop-opacity="0.5"></stop>
      <stop offset="1" stop-color="#7E8080" stop-opacity="0"></stop>
    </radialGradient>
  </defs>
</svg>
