<?xml version="1.0" encoding="UTF-8"?>
<svg xmlns="http://www.w3.org/2000/svg" width="200" height="90" viewBox="0 0 200 90" fill="none">
  <path d="M136.179 41.9334C136.179 38.817 134.231 36.5771 130.628 36.5771H118.747V52.7432H122.642V47.1922H127.219L131.699 52.7432H136.082V52.3537L131.699 47.0948C134.523 46.5105 136.179 44.4654 136.179 41.9334ZM130.141 43.8811H122.642V39.8883H130.141C131.504 39.8883 132.381 40.6674 132.381 41.9334C132.478 43.1994 131.602 43.8811 130.141 43.8811Z" fill="black"></path>
  <path d="M195 36.48H191.397V42.6153H181.561V36.48H177.665V52.646H181.561V46.316H191.397V52.646H195V36.48Z" fill="black"></path>
  <path d="M108.326 36.48L104.041 50.0166H103.847L99.4643 36.48H92.5499V52.646H96.2505V39.4016H96.4453L100.73 52.646H106.671L111.053 39.4016H111.248V52.646H115.046V36.48H108.326Z" fill="black"></path>
  <path d="M65.9636 43.1021C64.6002 43.0047 62.0681 42.7126 60.6073 42.6152C59.2439 42.5178 58.4649 42.0309 58.4649 41.1544C58.4649 40.2779 59.3413 39.5962 62.6525 39.5962C65.574 39.5962 68.3008 40.2779 70.7355 41.3492V37.7459C68.3982 36.5773 65.7688 36.0903 62.4577 36.0903C57.8805 36.0903 54.6668 38.0381 54.6668 41.2518C54.6668 43.9786 56.5171 45.5368 60.3152 45.9263C61.6786 46.1211 64.0159 46.3159 65.574 46.4132C67.327 46.5106 67.8139 47.0949 67.8139 47.874C67.8139 48.9453 66.5479 49.627 63.5289 49.627C60.4126 49.627 57.1988 48.5557 54.8616 47.1923V50.893C56.7119 52.159 59.8283 53.1329 63.4315 53.1329C68.3982 53.1329 71.612 51.1852 71.612 47.7766C71.612 45.1472 69.9564 43.4917 65.9636 43.1021Z" fill="black"></path>
  <path d="M74.2415 36.48V52.646H89.2389V49.3349H77.9422V46.0238H89.0442V42.7127H77.9422V39.7911H89.2389V36.48H74.2415Z" fill="black"></path>
  <path d="M169.582 43.1021C168.219 43.0047 165.687 42.7126 164.226 42.6152C162.862 42.5178 162.083 42.0309 162.083 41.1544C162.083 40.2779 162.96 39.5962 166.271 39.5962C169.193 39.5962 171.919 40.1805 174.354 41.3492V37.7459C172.017 36.5773 169.387 36.0903 166.076 36.0903C161.499 36.0903 158.285 38.0381 158.285 41.2518C158.285 43.9786 160.136 45.5368 163.934 45.9263C165.297 46.1211 167.634 46.3159 169.193 46.4132C170.946 46.5106 171.432 47.0949 171.432 47.874C171.432 48.9453 170.166 49.627 167.147 49.627C164.031 49.627 160.817 48.5557 158.48 47.1923V50.893C160.33 52.159 163.447 53.1329 167.05 53.1329C172.017 53.1329 175.23 51.1852 175.23 47.7766C175.23 45.1472 173.478 43.4917 169.582 43.1021Z" fill="black"></path>
  <path d="M151.76 36.48V44.7578C151.76 47.8741 149.813 49.6271 146.989 49.6271C144.067 49.6271 142.217 47.9715 142.217 44.7578V36.48H138.321V44.3682C138.321 50.2114 142.022 53.133 146.989 53.133C151.858 53.133 155.559 50.3088 155.559 44.563V36.48H151.76Z" fill="black"></path>
  <path d="M41.4223 44.4654C41.4223 45.2445 41.0328 45.3419 40.0589 45.3419C38.9877 45.3419 38.7929 45.1471 38.6955 44.368C38.5008 42.3229 37.1374 40.57 34.8001 40.4726C34.1184 40.3752 33.9236 40.1804 33.9236 39.2066C33.9236 38.3301 34.021 37.9405 34.7027 37.9405C38.5981 38.0379 41.4223 41.2517 41.4223 44.4654ZM47.1681 44.4654C47.1681 38.4275 43.0779 32 33.5341 32H14.7386C14.349 32 14.0569 32.1948 14.0569 32.5843C14.0569 32.7791 14.1543 32.9739 14.349 33.0712C15.0308 33.6556 16.0046 34.2399 17.368 34.9216C18.634 35.6033 19.7053 35.9928 20.6791 36.3824C21.0687 36.5771 21.2635 36.7719 21.2635 36.9667C21.2635 37.2588 21.0687 37.551 20.5817 37.551H5.6817C5.19477 37.4536 5 37.7458 5 38.0379C5 38.3301 5.09739 38.5249 5.29216 38.7196C6.46079 39.9856 8.40851 41.5438 11.2327 43.2968C13.6673 44.8549 16.7837 46.5105 19.2183 47.6791C19.6079 47.8739 19.8027 48.0687 19.8027 48.3608C19.8027 48.653 19.6079 48.8478 19.121 48.8478H12.2066C11.817 48.8478 11.6222 49.0425 11.6222 49.3347C11.6222 49.5295 11.7196 49.7242 11.9144 49.919C13.4726 51.3798 16.0046 52.8406 19.3157 54.3014C23.7955 56.1517 28.2752 57.3203 33.3393 57.3203C42.9805 57.3203 47.1681 50.1138 47.1681 44.4654ZM34.6053 53.1327C29.9308 53.1327 25.938 49.3347 25.938 44.4654C25.938 39.7909 29.8334 35.9928 34.6053 35.9928C39.4746 35.9928 43.2727 39.7909 43.2727 44.4654C43.2727 49.2373 39.4746 53.1327 34.6053 53.1327Z" fill="#FF642D"></path>
</svg>
