<?xml version="1.0" encoding="UTF-8"?>
<svg xmlns="http://www.w3.org/2000/svg" width="90" height="90" viewBox="0 0 90 90" fill="none">
  <g clip-path="url(#clip0_3709_19)">
    <path d="M15.9375 0H74.0625C82.875 0 90 7.30769 90 16.3462V73.6538C90 82.6923 82.875 90 74.0625 90H15.9375C7.125 90 0 82.6923 0 73.6538V16.3462C0 7.30769 7.125 0 15.9375 0Z" fill="#001E36"></path>
    <path d="M20.25 61.5375V22.95C20.25 22.6875 20.3625 22.5375 20.625 22.5375C21.2625 22.5375 21.8625 22.5375 22.725 22.5C23.625 22.4625 24.5625 22.4625 25.575 22.425C26.5875 22.3875 27.675 22.3875 28.8375 22.35C30 22.3125 31.125 22.3125 32.25 22.3125C35.325 22.3125 37.875 22.6875 39.975 23.475C41.85 24.1125 43.575 25.1625 45 26.55C46.2 27.75 47.1375 29.2125 47.7375 30.825C48.3 32.4 48.6 34.0125 48.6 35.7C48.6 38.925 47.85 41.5875 46.35 43.6875C44.85 45.7875 42.75 47.3625 40.3125 48.2625C37.7625 49.2 34.95 49.5375 31.875 49.5375C30.975 49.5375 30.375 49.5375 30 49.5C29.625 49.4625 29.1 49.4625 28.3875 49.4625V61.5C28.425 61.7625 28.2375 61.9875 27.975 62.025C27.9375 62.025 27.9 62.025 27.825 62.025H20.7C20.4 62.025 20.25 61.875 20.25 61.5375ZM28.425 29.775V42.375C28.95 42.4125 29.4375 42.45 29.8875 42.45H31.875C33.3375 42.45 34.8 42.225 36.1875 41.775C37.3875 41.4375 38.4375 40.725 39.2625 39.7875C40.05 38.85 40.425 37.575 40.425 35.925C40.4625 34.7625 40.1625 33.6 39.5625 32.5875C38.925 31.6125 38.025 30.8625 36.9375 30.45C35.55 29.8875 34.05 29.6625 32.5125 29.7C31.5375 29.7 30.675 29.7 29.9625 29.7375C29.2125 29.7 28.6875 29.7375 28.425 29.775Z" fill="#31A8FF"></path>
    <path d="M72 40.0875C70.875 39.4875 69.675 39.075 68.4 38.8125C67.0125 38.5125 65.625 38.325 64.2 38.325C63.45 38.2875 62.6625 38.4 61.95 38.5875C61.4625 38.7 61.05 38.9625 60.7875 39.3375C60.6 39.6375 60.4875 40.0125 60.4875 40.35C60.4875 40.6875 60.6375 41.025 60.8625 41.325C61.2 41.7375 61.65 42.075 62.1375 42.3375C63 42.7875 63.9 43.2 64.8 43.575C66.825 44.25 68.775 45.1875 70.575 46.3125C71.8125 47.1 72.825 48.15 73.5375 49.425C74.1375 50.625 74.4375 51.9375 74.4 53.2875C74.4375 55.05 73.9125 56.8125 72.9375 58.275C71.8875 59.775 70.425 60.9375 68.7375 61.6125C66.9 62.4 64.65 62.8125 61.95 62.8125C60.225 62.8125 58.5375 62.6625 56.85 62.325C55.5375 62.1 54.225 61.6875 53.025 61.125C52.7625 60.975 52.575 60.7125 52.6125 60.4125V53.8875C52.6125 53.775 52.65 53.625 52.7625 53.55C52.875 53.475 52.9875 53.5125 53.1 53.5875C54.5625 54.45 56.1 55.05 57.75 55.425C59.175 55.8 60.675 55.9875 62.175 55.9875C63.6 55.9875 64.6125 55.8 65.2875 55.4625C65.8875 55.2 66.3 54.5625 66.3 53.8875C66.3 53.3625 66 52.875 65.4 52.3875C64.8 51.9 63.5625 51.3375 61.725 50.625C59.8125 49.95 58.05 49.05 56.4 47.925C55.2375 47.1 54.2625 46.0125 53.55 44.7375C52.95 43.5375 52.65 42.225 52.6875 40.9125C52.6875 39.3 53.1375 37.7625 53.9625 36.375C54.9 34.875 56.2875 33.675 57.9 32.925C59.6625 32.025 61.875 31.6125 64.5375 31.6125C66.075 31.6125 67.65 31.725 69.1875 31.95C70.3125 32.1 71.4 32.4 72.4125 32.8125C72.5625 32.85 72.7125 33 72.7875 33.15C72.825 33.3 72.8625 33.45 72.8625 33.6V39.7125C72.8625 39.8625 72.7875 40.0125 72.675 40.0875C72.3375 40.1625 72.15 40.1625 72 40.0875Z" fill="#31A8FF"></path>
  </g>
  <defs>
    <clipPath id="clip0_3709_19">
      <rect width="90" height="90" fill="white"></rect>
    </clipPath>
  </defs>
</svg>
