<?xml version="1.0" encoding="UTF-8"?>
<svg xmlns="http://www.w3.org/2000/svg" width="90" height="90" viewBox="0 0 90 90" fill="none">
  <path d="M19.5968 6.67605L44.9093 4L70.2218 6.67605L89.8186 32.983L44.9093 85.2794L0 32.983L19.5968 6.67605Z" fill="#FDB300"></path>
  <path d="M18.1905 32.983L44.9093 85.2794L0 32.983H18.1905Z" fill="#EA6C00"></path>
  <path d="M71.628 32.983L44.9092 85.2794L89.8185 32.983H71.628Z" fill="#EA6C00"></path>
  <path d="M18.1905 32.983H71.6281L44.9093 85.2794L18.1905 32.983Z" fill="#FDAD00"></path>
  <path d="M44.9093 4L19.5967 6.67602L18.1905 32.983L44.9093 4Z" fill="#FDD231"></path>
  <path d="M44.9092 4L70.2218 6.67602L71.628 32.983L44.9092 4Z" fill="#FDD231"></path>
  <path d="M89.8186 32.983L70.2217 6.67602L71.6281 32.983H89.8186ZM0 32.983L19.5967 6.67602L18.1905 32.983H0Z" fill="#FDAD00"></path>
  <path d="M44.9093 4L18.1905 32.983H71.6281L44.9093 4Z" fill="#FEEEB7"></path>
</svg>
