<?xml version="1.0" encoding="UTF-8"?>
<svg xmlns="http://www.w3.org/2000/svg" width="57" height="57" viewBox="0 0 57 57" fill="none">
  <path fill-rule="evenodd" clip-rule="evenodd" d="M50.4906 1.92249V2.83982H51.6657H52.841L48.456 7.22454L44.071 11.6094L40.1386 7.6832C36.4969 4.04725 36.1772 3.75715 35.8116 3.75715C35.4442 3.75715 35.0525 4.12133 30.1111 9.05816L24.8054 14.3592L21.7897 11.3515C19.0163 8.58551 18.7423 8.34379 18.3797 8.34379C18.0115 8.34379 17.5523 8.77666 11.4472 14.8787L4.90895 21.4137L5.56855 22.0732L6.22814 22.7328L12.3041 16.6579L18.38 10.5831L21.3964 13.5914C24.1679 16.3556 24.4446 16.5997 24.8062 16.5997C25.1722 16.5997 25.5701 16.2296 30.5058 11.2984L35.812 5.99704L39.7437 9.9224C43.3838 13.5567 43.7046 13.8478 44.0697 13.8478C44.4363 13.8478 44.8052 13.507 49.3121 9.00496L54.1601 4.16215V5.33564V6.50913H55.0775H55.9948V4.03866C55.9948 0.738451 56.2616 1.00516 52.9612 1.00516H50.4906V1.92249ZM42.5158 16.8813L42.2342 17.1626V24.397V31.6314L42.5158 31.9128C42.7949 32.192 42.8149 32.1943 44.9864 32.1943C47.1578 32.1943 47.1778 32.192 47.457 31.9128L47.7385 31.6314V24.397V17.1626L47.457 16.8813C47.1778 16.602 47.1578 16.5997 44.9864 16.5997C42.8149 16.5997 42.7949 16.602 42.5158 16.8813ZM26.003 18.7159L25.7215 18.9973V25.3144V31.6314L26.003 31.9128C26.2821 32.192 26.3022 32.1943 28.4736 32.1943C30.6451 32.1943 30.6651 32.192 30.9442 31.9128L31.2258 31.6314V25.3144V18.9973L30.9442 18.7159C30.6651 18.4367 30.6451 18.4344 28.4736 18.4344C26.3022 18.4344 26.2821 18.4367 26.003 18.7159ZM45.9037 24.397V30.3597H44.9864H44.069V24.397V18.4344H44.9864H45.9037V24.397ZM29.391 25.3144V30.3597H28.4736H27.5563V25.3144V20.2691H28.4736H29.391V25.3144ZM34.2594 21.4679L33.9779 21.7493V26.6904V31.6314L34.2594 31.9128C34.5385 32.192 34.5586 32.1943 36.73 32.1943C38.9014 32.1943 38.9215 32.192 39.2006 31.9128L39.4821 31.6314V26.6904V21.7493L39.2006 21.4679C38.9215 21.1887 38.9014 21.1864 36.73 21.1864C34.5586 21.1864 34.5385 21.1887 34.2594 21.4679ZM37.6474 26.6904V30.3597H36.73H35.8126V26.6904V23.021H36.73H37.6474V26.6904ZM17.7467 25.1372L17.4652 25.4186V28.525V31.6314L17.7467 31.9128C18.0258 32.192 18.0459 32.1943 20.2173 32.1943C22.3887 32.1943 22.4088 32.192 22.6879 31.9128L22.9694 31.6314V28.525V25.4186L22.6879 25.1372C22.4088 24.858 22.3887 24.8557 20.2173 24.8557C18.0459 24.8557 18.0258 24.858 17.7467 25.1372ZM21.1347 28.525V30.3597H20.2173H19.2999V28.525V26.6904H20.2173H21.1347V28.525ZM50.6626 32.8148C50.4103 32.8953 48.8251 33.6694 47.14 34.535L44.076 36.109L43.6999 35.6794C42.7138 34.5534 41.1785 33.9553 39.5367 34.0577C38.4437 34.1259 38.3752 34.1563 32.3151 37.2644C29.8092 38.5497 29.787 38.5583 28.9897 38.5583H28.187L25.0335 36.8978C21.5988 35.0893 20.6212 34.6874 19.029 34.4292C17.7123 34.2157 16.7846 34.2148 15.4011 34.4258C14.0227 34.6362 12.9023 35.0198 11.5387 35.7484C10.8086 36.1385 10.4482 36.2769 10.4164 36.1793C10.3906 36.1003 10.2533 35.4755 10.1115 34.7908C9.81071 33.3402 9.60247 32.997 9.02326 32.997C8.44543 32.997 1.63026 34.4807 1.32696 34.6725C1.18602 34.7616 1.03947 34.9593 1.00117 35.1117C0.920559 35.433 5.01961 55.128 5.26811 55.6133C5.35652 55.7857 5.5541 55.9583 5.7073 55.9968C6.02689 56.077 13.1089 54.6122 13.5934 54.3657C14.0281 54.1444 14.0845 53.7787 13.8592 52.6439C13.7523 52.1058 13.6813 51.6539 13.7016 51.6395C13.8603 51.5276 16.8464 50.9988 17.3179 50.9991C17.6469 50.9993 20.743 51.3135 24.1982 51.6973C31.2349 52.4788 31.8824 52.498 33.6691 51.9785C35.3684 51.4843 34.1338 52.2598 47.5932 43.2337C51.8114 40.405 55.2922 37.9945 55.4221 37.8123C56.4534 36.3637 56.0021 34.5117 54.3504 33.4155C53.2825 32.7068 51.7718 32.4607 50.6626 32.8148ZM53.2338 34.8695C53.7572 35.2159 54.1589 35.7813 54.1596 36.1726C54.1599 36.311 54.044 36.5507 53.9021 36.7053C53.4769 37.1687 35.4909 49.1764 34.4366 49.7009C33.4158 50.2086 32.1096 50.5409 31.1346 50.5409C30.8268 50.5409 29.6507 50.4389 28.521 50.3141C20.5401 49.433 17.9155 49.1649 17.2703 49.1649C16.6634 49.1649 14.8336 49.4745 13.5586 49.7931L13.2796 49.8628L12.0986 44.2105C11.449 41.1018 10.92 38.4927 10.9233 38.4127C10.9312 38.2091 12.3177 37.3353 13.2827 36.9257C14.6854 36.3302 15.5348 36.1641 17.1785 36.1633C19.5404 36.1621 20.0754 36.3449 24.4028 38.6311C26.0426 39.4974 27.6315 40.2679 27.9335 40.3431C28.2476 40.4213 28.8616 40.4557 29.3669 40.4235C30.2494 40.3672 30.2592 40.3629 34.689 38.1153L39.127 35.8637H39.9252C41.0181 35.8637 42.0042 36.3566 42.5562 37.179C42.9638 37.7861 42.9754 38.146 42.5997 38.5233C42.3454 38.7787 32.2861 44.7465 31.4027 45.166C30.3172 45.6817 29.2406 45.8723 27.7535 45.8121C26.6192 45.7662 25.9265 45.6291 21.901 44.6531C19.3898 44.0444 17.27 43.5463 17.1903 43.5463C17.0558 43.5463 16.6254 45.1452 16.7303 45.2554C16.7547 45.2809 18.8779 45.8129 21.4487 46.4376C25.9337 47.5273 26.1879 47.5758 27.7283 47.6361C29.5934 47.7092 30.7462 47.5005 32.1776 46.831C33.1474 46.3774 43.1398 40.467 43.7204 40.0038C44.1926 39.6269 44.6347 38.814 44.6391 38.3143C44.6409 38.1171 44.7069 37.9042 44.7857 37.8413C44.8646 37.7783 46.3676 36.9924 48.1257 36.0948L51.3224 34.4628L52.0398 34.5085C52.5793 34.5428 52.8755 34.6324 53.2338 34.8695ZM8.40048 35.5483C8.46939 35.8794 9.31521 39.9069 10.2802 44.4982C11.245 49.0895 12.0051 52.8629 11.9691 52.8835C11.8085 52.9756 6.79679 54.0152 6.74817 53.9666C6.64153 53.86 2.97846 36.2075 3.04841 36.1376C3.10299 36.083 7.82265 34.9994 8.19728 34.9555C8.24017 34.9504 8.33156 35.2173 8.40048 35.5483ZM5.90889 37.3244C5.23806 37.464 5.08498 37.5346 5.12832 37.6842C5.15791 37.7866 5.24425 38.1965 5.31994 38.5952C5.44321 39.244 5.48312 39.3143 5.69916 39.2642C5.83195 39.2333 6.24178 39.1477 6.60988 39.0737C7.20927 38.9533 7.27314 38.9134 7.22154 38.6914C7.18977 38.5552 7.10434 38.147 7.03153 37.7843C6.95871 37.4216 6.86411 37.1307 6.82122 37.1378C6.77845 37.1448 6.36781 37.2288 5.90889 37.3244Z" fill="#02E0DF" stroke="#02E0DF" stroke-width="0.2"></path>
</svg>
