<?xml version="1.0" encoding="UTF-8"?>
<svg xmlns="http://www.w3.org/2000/svg" width="56" height="56" viewBox="0 0 56 56" fill="none">
  <path fill-rule="evenodd" clip-rule="evenodd" d="M34.6698 6.28416L41.0138 11.5684L41.0683 7.79867L41.1227 4.0289L41.3798 3.82096C41.6229 3.62412 41.8652 3.6129 45.8763 3.6129H50.1158L50.3831 3.88018L50.6504 4.14735V11.8717V19.5963L52.5831 21.1972C53.6461 22.0777 54.6261 22.918 54.7609 23.0644C55.0879 23.4198 55.0786 23.909 54.7386 24.2488C54.4752 24.5123 54.4441 24.5161 52.5608 24.5161H50.6504V39.4908V54.4656L50.3831 54.7327L50.1158 55H28.0018H5.88771L5.6205 54.7327L5.35318 54.4656V39.4908V24.5161H3.44275C1.55943 24.5161 1.5284 24.5123 1.265 24.2488C0.972308 23.9563 0.91242 23.4705 1.13379 23.1839C1.20859 23.087 7.21592 18.0559 14.4833 12.0038C25.3032 2.99321 27.7536 1 28.0111 1C28.2665 1 29.5198 1.99464 34.6698 6.28416ZM16.1418 12.8915L4.34347 22.7198L5.51172 22.7742C6.57413 22.8237 6.6987 22.8519 6.88762 23.0857C7.08983 23.3357 7.09538 23.7454 7.09538 38.3004V53.2581H28.0018H48.9082V38.3004C48.9082 23.7454 48.9137 23.3357 49.1159 23.0857C49.3052 22.8515 49.4288 22.8237 50.5042 22.7742L51.6848 22.7198L50.4095 21.6588C49.7082 21.0754 49.0834 20.5029 49.0212 20.3868C48.9463 20.2468 48.9082 17.6786 48.9082 12.7653V5.35484H45.8593H42.8105V9.52209C42.8105 13.167 42.7886 13.7207 42.6361 13.9383C42.3805 14.3033 41.9781 14.4264 41.622 14.2487C41.4607 14.1684 38.377 11.642 34.7692 8.63469C31.1615 5.62734 28.149 3.14356 28.0748 3.11504C28.0008 3.08662 22.6309 7.4861 16.1418 12.8915ZM24.6846 16.2357C26.5409 17.1495 27.4951 19.4187 26.9661 21.6616C26.7779 22.4602 26.5339 22.9684 26.0152 23.6417L25.6406 24.1281L26.1286 24.4514C27.1704 25.1413 27.5306 25.8718 29.1799 30.6401L29.4718 31.4838L31.0924 31.4839C33.088 31.4839 33.4373 31.5765 34.1576 32.2967C34.775 32.9141 34.9706 33.4094 34.9706 34.356V34.971L38.1455 34.9422L41.3204 34.9133L41.5755 34.1572C41.7157 33.7414 41.8305 33.3617 41.8305 33.3134C41.8305 33.2652 40.6033 33.2258 39.1034 33.2258H36.3762L36.109 32.9585C35.7553 32.605 35.7553 32.1047 36.109 31.7511L36.3762 31.4839H39.4208H42.4653L43.7728 27.5636L45.0803 23.6433L39.0276 23.6715L32.9748 23.6996L32.0685 26.4214C31.1126 29.2918 30.9862 29.5242 30.3803 29.5242C29.9926 29.5242 29.5262 29.0948 29.5262 28.7377C29.5262 28.599 29.9912 27.0903 30.5594 25.3849C31.2794 23.2246 31.6628 22.2265 31.8237 22.0938C32.0387 21.9165 32.5624 21.9032 39.3431 21.9032H46.6314L46.8987 22.1705C47.0457 22.3175 47.166 22.5507 47.166 22.6887C47.166 22.8268 46.2634 25.646 45.1603 28.9537L43.1546 34.9677H44.4574C45.6956 34.9677 45.7736 34.981 46.0276 35.235L46.2949 35.5022V42.371V49.2397L46.0276 49.5069C45.674 49.8605 45.1735 49.8605 44.82 49.5069L44.5527 49.2397V42.9747V36.7097H41.9394H39.3261V42.9747V49.2397L39.0588 49.5069C38.7052 49.8605 38.2048 49.8605 37.8512 49.5069L37.5839 49.2397V42.9747V36.7097H32.6246H27.6652L27.398 36.4424C27.2294 36.274 27.1307 36.0508 27.1307 35.8387C27.1307 35.6266 27.2294 35.4034 27.398 35.235L27.6652 34.9677H30.4599H33.2545L33.2062 34.2983C33.1299 33.2448 33.0848 33.2258 30.6502 33.2258C29.4491 33.2258 28.5545 33.1796 28.4261 33.1109C28.1285 32.9517 27.7859 32.1305 26.8911 29.4323C26.0557 26.913 25.7387 26.3085 24.971 25.7716L24.4992 25.4415L21.5219 25.408C19.5605 25.3859 18.3898 25.4161 18.0912 25.4965C17.6051 25.6274 16.8517 26.2516 16.5432 26.7792L16.3545 27.1019L17.2699 27.1499C18.4135 27.2099 18.9541 27.5112 19.2247 28.2391C19.3205 28.4968 19.7195 31.1328 20.1111 34.0968C20.5028 37.0608 20.851 39.6429 20.8849 39.8348L20.9465 40.1839L23.922 40.2159C28.1939 40.2619 27.9148 39.9268 28.2103 45.3649C28.3251 47.4788 28.4247 47.9493 28.8697 48.4823C29.1167 48.7781 29.2461 48.8347 29.7759 48.8786C30.2732 48.9199 30.4069 48.8959 30.4606 48.7561C30.5462 48.5333 29.8646 40.5279 29.7404 40.2958C29.5552 39.9497 29.2896 39.846 26.6781 39.1017C24.7128 38.5413 23.9782 38.2861 23.8368 38.1145C23.6645 37.9052 23.6463 37.562 23.6463 34.5153V31.1474L23.9136 30.8802C24.2672 30.5266 24.7676 30.5266 25.1212 30.8802L25.3885 31.1474V34.03C25.3885 36.6818 25.4037 36.9172 25.579 36.9679C25.6839 36.9983 26.7251 37.3001 27.8929 37.6386C29.0607 37.977 30.1802 38.3544 30.3805 38.477C30.8335 38.7543 31.3455 39.4481 31.4789 39.9654C31.5344 40.1807 31.7367 42.2593 31.9287 44.5845C32.3076 49.1774 32.3028 49.3252 31.7524 49.9792C30.9101 50.9802 29.0114 50.7884 27.8025 49.5804C27.1814 48.9597 26.9518 48.4074 26.7466 47.0407C26.6532 46.4185 26.5535 45.7991 26.5249 45.6643L26.4732 45.4194H22.882H19.2908V46.2837V47.1481L21.352 47.1819C23.2342 47.2128 23.4394 47.2352 23.7136 47.4402C24.3228 47.8955 24.4601 48.1984 24.501 49.1774C24.537 50.0346 24.5227 50.1054 24.2611 50.367C23.8964 50.7316 23.4006 50.7361 23.0425 50.3779C22.823 50.1585 22.7752 50.0028 22.7752 49.5069V48.9032H18.4197H14.0642V49.5069C14.0642 50.0028 14.0164 50.1585 13.7969 50.3779C13.4387 50.7361 12.943 50.7316 12.5783 50.367C12.3166 50.1054 12.3024 50.0346 12.3383 49.1774C12.3793 48.1984 12.5166 47.8955 13.1258 47.4402C13.4 47.2352 13.6051 47.2128 15.4873 47.1819L17.5486 47.1481V46.2837V45.4194L14.6903 45.4176C11.9366 45.4159 11.816 45.4068 11.3964 45.1727C10.5632 44.7074 10.585 44.8206 9.70857 36.4086C9.25549 32.0603 8.95267 28.7084 8.9934 28.4914C9.08737 27.9906 9.66153 27.4002 10.2 27.2507C10.4395 27.1843 11.4736 27.13 12.5065 27.1297L14.379 27.129L14.7869 26.3529C15.6672 24.6779 16.8766 23.7963 18.4584 23.6766C18.9162 23.642 19.2908 23.6025 19.2908 23.5888C19.2908 23.5749 19.1708 23.349 19.0241 23.0867C17.528 20.4103 19.0567 16.6515 21.9458 15.9028C22.1324 15.8545 22.6699 15.8331 23.1401 15.8556C23.8243 15.8881 24.1326 15.964 24.6846 16.2357ZM21.8255 17.8259C20.8068 18.3335 20.23 19.3886 20.2217 20.7601C20.2134 22.1106 20.6515 22.9331 21.6191 23.3837C23.1954 24.1174 24.7318 23.2087 25.2349 21.2451C25.6256 19.7203 25.107 18.3573 23.9271 17.8079C23.1928 17.4661 22.5363 17.4717 21.8255 17.8259ZM10.6887 28.9687C10.6887 29.0225 11.0317 32.2995 11.4509 36.251C11.8701 40.2025 12.2131 43.4899 12.2131 43.5565C12.2131 43.6439 14.1595 43.6774 19.2363 43.6774H26.2596V42.8064V41.9355H23.0425H19.8253L19.5581 41.6682C19.4111 41.5212 19.2908 41.3312 19.2908 41.246C19.2908 41.0937 17.8291 30.0782 17.7029 29.2792L17.6383 28.871H14.1635C12.1825 28.871 10.6887 28.913 10.6887 28.9687Z" fill="#02E0DF" stroke="#02E0DF" stroke-width="0.4"></path>
</svg>
