<?xml version="1.0" encoding="UTF-8"?>
<svg xmlns="http://www.w3.org/2000/svg" width="90" height="90" viewBox="0 0 90 90" fill="none">
  <g clip-path="url(#clip0_3709_29)">
    <path d="M15.9375 0H74.0625C82.875 0 90 7.30769 90 16.3462V73.6538C90 82.6923 82.875 90 74.0625 90H15.9375C7.125 90 0 82.6923 0 73.6538V16.3462C0 7.30769 7.125 0 15.9375 0Z" fill="#470137"></path>
    <path d="M47.2147 26.8308L35.9647 45.3933L47.9647 65.0808C48.0397 65.2308 48.0772 65.3808 48.0397 65.5308C48.0022 65.6808 47.8522 65.5683 47.6272 65.6058H39.0397C38.4397 65.6058 38.0272 65.5683 37.7647 65.1933C36.9772 63.6183 36.1522 62.0808 35.3647 60.5058C34.5772 58.9683 33.7147 57.3933 32.8147 55.7808C31.9147 54.1683 31.0147 52.5558 30.1147 50.9058H30.0397C29.2522 52.5183 28.3897 54.1308 27.5272 55.7433C26.6647 57.3558 25.8022 58.9683 24.9772 60.5433C24.1147 62.1183 23.2522 63.7308 22.3897 65.2683C22.2397 65.6433 21.9397 65.6808 21.5272 65.6808H13.2772C13.1272 65.6808 13.0147 65.7558 13.0147 65.5683C12.9772 65.4183 13.0147 65.2683 13.0897 65.1558L24.7522 46.0308L13.3897 26.7933C13.2772 26.6433 13.2397 26.4933 13.3147 26.4183C13.3897 26.3058 13.5397 26.2683 13.6897 26.2683H22.2022C22.3897 26.2683 22.5772 26.3058 22.7272 26.3433C22.8772 26.4183 22.9897 26.5308 23.1022 26.6808C23.8147 28.2933 24.6397 29.9058 25.5022 31.5183C26.4022 33.1308 27.2647 34.7058 28.2022 36.2808C29.1022 37.8558 29.9272 39.4308 30.7147 41.0433H30.7897C31.5772 39.3933 32.4022 37.7808 33.2272 36.2058C34.0522 34.6308 34.9147 33.0558 35.7772 31.4808C36.6397 29.9058 37.4647 28.2933 38.2897 26.7558C38.3272 26.6058 38.4022 26.4558 38.5147 26.3808C38.6647 26.3058 38.8147 26.2683 39.0022 26.3058H46.9147C47.1022 26.2683 47.2897 26.3808 47.3272 26.5683C47.3647 26.6058 47.2897 26.7558 47.2147 26.8308Z" fill="#FF61F6"></path>
    <path d="M64.5397 66.3933C61.7647 66.4308 58.9897 65.8683 56.4772 64.7058C54.1147 63.6183 52.1647 61.8183 50.8147 59.6058C49.4272 57.3183 48.7522 54.4683 48.7522 51.0558C48.7147 48.2808 49.4272 45.5433 50.8147 43.1433C52.2397 40.7058 54.3022 38.6808 56.7772 37.3308C59.4022 35.8683 62.5522 35.1558 66.2647 35.1558C66.4522 35.1558 66.7147 35.1558 67.0522 35.1933C67.3897 35.2308 67.7647 35.2308 68.2147 35.2683V23.4183C68.2147 23.1558 68.3272 23.0058 68.5897 23.0058H76.2022C76.3897 22.9683 76.5397 23.1183 76.5772 23.2683C76.5772 23.3058 76.5772 23.3433 76.5772 23.3433V59.0433C76.5772 59.7183 76.6147 60.4683 76.6522 61.2933C76.7272 62.0808 76.7647 62.8308 76.8022 63.4683C76.8022 63.7308 76.6897 63.9558 76.4272 64.0683C74.4772 64.8933 72.4147 65.4933 70.3147 65.8683C68.4022 66.2058 66.4897 66.3933 64.5397 66.3933ZM68.2147 58.8933V42.3933C67.8772 42.3183 67.5397 42.2433 67.2022 42.2058C66.7897 42.1683 66.3772 42.1308 65.9647 42.1308C64.5022 42.1308 63.0397 42.4308 61.7272 43.1058C60.4522 43.7433 59.3647 44.6808 58.5397 45.8808C57.7147 47.0808 57.3022 48.6933 57.3022 50.6433C57.2647 51.9558 57.4897 53.2683 57.9397 54.5058C58.3147 55.5183 58.8772 56.4183 59.6272 57.1683C60.3397 57.8433 61.2022 58.3683 62.1772 58.6683C63.1897 59.0058 64.2397 59.1558 65.2897 59.1558C65.8522 59.1558 66.3772 59.1183 66.8647 59.0808C67.3522 59.1183 67.7647 59.0433 68.2147 58.8933Z" fill="#FF61F6"></path>
  </g>
  <defs>
    <clipPath id="clip0_3709_29">
      <rect width="90" height="90" fill="white"></rect>
    </clipPath>
  </defs>
</svg>
