<?xml version="1.0" encoding="UTF-8"?>
<svg xmlns="http://www.w3.org/2000/svg" width="225" height="66" viewBox="0 0 225 66" fill="none">
  <g clip-path="url(#clip0_166_128)">
    <path d="M0.0263672 12.1846H7.87149V29.6142H24.4173V12.1846H32.2726V54.9688H24.4173V37.1732H7.87149V54.9688H0.0263672V12.1846ZM57.1259 41.0333C57.1259 44.6149 54.2079 47.5293 50.6272 47.5293C47.0452 47.5293 44.129 44.6149 44.129 41.0333V22.6132H36.6891V41.0333C36.6891 48.7181 42.9421 54.9688 50.6272 54.9688C58.3106 54.9688 64.5632 48.7181 64.5632 41.0333V22.6132H57.1259V41.0333ZM85.3326 22.829C81.6421 22.829 79.066 23.8999 76.5783 26.342V12.1846H69.1141V38.4221C69.1141 48.243 76.2148 54.9688 84.1922 54.9688C93.0608 54.9688 100.831 48.123 100.831 38.8994C100.831 29.7926 93.666 22.829 85.3326 22.829V22.829ZM85.5181 48.0637C80.4604 48.0637 76.5928 43.8397 76.5928 38.8994C76.5928 33.9581 80.4604 29.7328 85.5181 29.7328C89.8036 29.7328 93.6734 33.9581 93.6734 38.8994C93.6734 43.8397 89.8036 48.0637 85.5181 48.0637V48.0637ZM113.368 24.7094C113.368 20.9574 115.868 19.7678 118.604 19.7678C120.808 19.7678 123.724 21.4342 125.627 23.4583L130.506 17.745C128.067 14.4719 123.128 12.2096 119.081 12.2096C110.986 12.2096 105.153 16.9118 105.153 24.7094C105.153 39.1718 122.949 34.5874 122.949 42.6839C122.949 45.1809 120.51 47.3852 117.714 47.3852C113.308 47.3852 111.879 45.2424 109.856 42.9801L104.439 48.5739C107.893 52.8001 112.177 54.9438 117.296 54.9438C124.973 54.9438 131.164 50.1823 131.164 42.7415C131.164 26.6725 113.368 31.6726 113.368 24.7094M150.813 22.4098C142.837 22.4098 135.735 29.1316 135.735 38.9547V65.2599H143.199V51.0353C145.687 53.4756 148.262 54.5483 151.954 54.5483C160.287 54.5483 167.453 47.5856 167.453 38.4788C167.453 29.2538 159.68 22.4098 150.813 22.4098V22.4098ZM152.14 47.6453C147.082 47.6453 143.214 43.4156 143.214 38.4788C143.214 33.5376 147.082 29.3122 152.14 29.3122C156.424 29.3122 160.295 33.5376 160.295 38.4788C160.295 43.4156 156.424 47.6453 152.14 47.6453V47.6453ZM222.394 48.0637C217.991 48.0637 216.741 46.16 216.741 43.2425V30.3278H223.585V23.7817H216.741V15.1509L209.185 18.5426V44.8496C209.185 51.5758 213.826 54.9688 220.191 54.9688C221.143 54.9688 222.454 54.9073 223.169 54.7311L225.015 47.9468C224.181 48.0044 223.23 48.0637 222.394 48.0637" fill="#45535E"></path>
    <path d="M202.71 30.7081C201.279 28.2462 199.267 26.2727 196.75 24.7869C194.87 23.6922 192.92 22.9974 190.723 22.699V14.8768C192.92 13.9438 194.284 11.8788 194.284 9.46973C194.284 6.18613 191.65 3.52524 188.369 3.52524C185.086 3.52524 182.406 6.18613 182.406 9.46973C182.406 11.8788 183.691 13.9438 185.889 14.8768V22.7025C184.131 22.9565 182.308 23.5045 180.643 24.3465C177.243 21.7643 166.094 13.293 159.572 8.34516C159.727 7.7875 159.846 7.21269 159.846 6.60625C159.846 2.96934 156.901 0.0214844 153.263 0.0214844C149.625 0.0214844 146.681 2.96934 146.681 6.60625C146.681 10.2427 149.628 13.1915 153.266 13.1915C154.507 13.1915 155.655 12.8285 156.645 12.2317L158.022 13.2758L176.934 26.9024C175.934 27.8204 175.003 28.8645 174.258 30.0361C172.749 32.4246 171.826 35.0525 171.826 37.919V38.5171C171.826 40.5294 172.209 42.4291 172.86 44.2138C173.433 45.7721 174.272 47.1889 175.31 48.4699L169.033 54.762C168.124 54.4234 167.136 54.3539 166.188 54.5618C165.24 54.7697 164.372 55.2462 163.687 55.9344C163.213 56.406 162.838 56.967 162.582 57.5848C162.326 58.2026 162.196 58.865 162.198 59.5335C162.199 60.8928 162.728 62.1703 163.69 63.1313C164.161 63.6056 164.722 63.9817 165.339 64.2377C165.957 64.4937 166.619 64.6246 167.288 64.6228C167.957 64.6246 168.619 64.4936 169.237 64.2376C169.855 63.9816 170.416 63.6056 170.888 63.1313C171.361 62.6598 171.737 62.099 171.992 61.4815C172.248 60.864 172.379 60.2019 172.377 59.5335C172.377 59.0075 172.296 58.4942 172.143 58.0064L178.631 51.5179C179.52 52.1323 180.481 52.6495 181.514 53.0956C183.55 53.9762 185.799 54.5128 188.259 54.5128H188.71C191.43 54.5128 193.996 53.8738 196.408 52.5669C198.95 51.1857 200.94 49.2969 202.442 46.8856C203.953 44.4678 204.785 41.7963 204.785 38.8573V38.7105C204.785 35.8193 204.116 33.1519 202.71 30.7081V30.7081ZM194.783 44.3192C193.022 46.2761 190.998 47.4815 188.71 47.4815H188.333C187.026 47.4815 185.748 47.1203 184.496 46.4633C183.085 45.74 182.013 44.7082 181.136 43.4017C180.229 42.1193 179.736 40.7192 179.736 39.2348V38.7839C179.736 37.3245 180.016 35.9406 180.722 34.6337C181.477 33.205 182.496 32.0941 183.851 31.2108C185.182 30.3336 186.603 29.9034 188.186 29.9034H188.333C189.768 29.9034 191.127 30.1864 192.409 30.8425C193.716 31.5421 194.783 32.4979 195.611 33.7552C196.414 35.0129 196.893 36.3695 197.046 37.8474C197.071 38.1546 197.083 38.4692 197.083 38.7698C197.083 40.7755 196.316 42.6331 194.783 44.3192Z" fill="#F8761F"></path>
  </g>
  <defs>
    <clipPath id="clip0_166_128">
      <rect width="225" height="65.52" fill="white"></rect>
    </clipPath>
  </defs>
</svg>
