<?xml version="1.0" encoding="UTF-8"?>
<svg xmlns="http://www.w3.org/2000/svg" width="200" height="90" viewBox="0 0 200 90" fill="none">
  <rect width="200" height="90" fill="white"></rect>
  <path d="M78.4089 15.9517H84.476L94.706 34.5093L104.937 15.9517H110.885V46.4052H106.007V23.0892L97.0851 39.2677H92.4459L83.4049 23.0892V46.4052H78.528V15.9517H78.4089Z" fill="#1C2B33"></path>
  <path d="M126.706 46.9998C124.446 46.9998 122.424 46.5239 120.758 45.4533C118.974 44.5016 117.665 43.0741 116.713 41.2897C115.762 39.5053 115.286 37.4831 115.286 35.1039C115.286 32.7247 115.762 30.7024 116.713 28.918C117.665 27.1336 118.974 25.7061 120.639 24.7545C122.305 23.6838 124.208 23.208 126.468 23.208C128.61 23.208 130.513 23.6838 132.06 24.7545C133.606 25.8251 134.796 27.2526 135.628 29.037C136.461 30.8213 136.936 33.0816 136.936 35.4608V36.7693H120.282C120.639 38.6726 121.353 40.1002 122.543 41.1708C123.732 42.2414 125.279 42.7172 127.063 42.7172C128.491 42.7172 129.799 42.4793 130.87 42.1224C131.941 41.6466 132.892 41.0518 133.844 40.1001L136.461 43.312C133.725 45.8102 130.513 46.9998 126.706 46.9998ZM130.275 28.918C129.205 27.8474 127.896 27.3716 126.23 27.3716C124.565 27.3716 123.256 27.9663 122.186 29.037C121.115 30.1076 120.402 31.5351 120.164 33.3195H132.178C131.94 31.4162 131.346 29.9887 130.275 28.918Z" fill="#1C2B33"></path>
  <path d="M142.766 27.7285H138.245V23.6839H142.766V17.0222H147.524V23.6839H154.424V27.7285H147.524V37.959C147.524 39.6244 147.762 40.814 148.357 41.6467C148.951 42.3605 149.903 42.7173 151.331 42.7173C151.925 42.7173 152.521 42.7174 152.877 42.5984C153.353 42.5984 153.829 42.4794 154.305 42.3605V46.2861C153.71 46.4051 153.115 46.524 152.52 46.643C151.806 46.7619 151.093 46.762 150.379 46.762C145.264 46.762 142.647 43.9069 142.647 38.3158L142.766 27.7285Z" fill="#1C2B33"></path>
  <path d="M179.048 46.4054H174.409V43.1935C173.576 44.383 172.506 45.3347 171.197 45.9295C169.888 46.5243 168.461 46.8812 166.795 46.8812C164.773 46.8812 162.989 46.4053 161.442 45.3347C159.896 44.2641 158.706 42.9555 157.754 41.1711C156.922 39.3868 156.446 37.3644 156.446 34.9853C156.446 32.725 156.922 30.5838 157.754 28.7994C158.706 27.015 159.896 25.5875 161.442 24.6358C162.989 23.5652 164.892 23.0894 166.914 23.0894C168.461 23.0894 169.888 23.4462 171.078 24.041C172.267 24.6358 173.338 25.4686 174.171 26.5392V23.6842H178.81L179.048 46.4054ZM174.29 31.6544C173.814 30.3459 172.981 29.3942 171.911 28.5615C170.84 27.8478 169.531 27.4909 168.104 27.4909C166.082 27.4909 164.416 28.2046 163.226 29.5132C162.037 30.8217 161.442 32.725 161.442 34.9853C161.442 37.3644 162.037 39.1488 163.226 40.5763C164.416 41.8849 165.963 42.5987 167.985 42.5987C169.412 42.5987 170.721 42.2418 171.911 41.4091C173.1 40.6953 173.933 39.6246 174.409 38.3161L174.29 31.6544Z" fill="#1C2B33"></path>
  <path d="M33.9184 15L33.7993 20.2342C37.2491 20.2342 39.8662 22.9703 45.6952 32.7249L46.0519 33.3197L49.264 28.4424C48.5502 27.2528 47.7176 26.0632 47.0039 24.9926C46.1712 23.803 45.4574 22.7323 44.6247 21.7807C41.0559 16.9034 37.844 15 33.9184 15Z" fill="url(#paint0_linear_3544_71)"></path>
  <path d="M33.9184 15C30.1118 15 26.6617 17.4981 24.1636 21.3048L28.6838 23.803C30.1113 21.6617 31.896 20.2342 33.7994 20.2342L33.9184 15Z" fill="url(#paint1_linear_3544_71)"></path>
  <path d="M24.1636 21.3049C24.1636 21.3049 24.1636 21.4239 24.1636 21.3049C22.4981 23.8031 21.3087 26.896 20.7139 30.3459L25.8289 31.5354C26.4237 28.5615 27.3753 25.8254 28.8028 23.8031L24.1636 21.3049Z" fill="url(#paint2_linear_3544_71)"></path>
  <path d="M25.7098 31.5353L20.5948 30.3457C20.2379 32.1301 20 34.0334 20 35.9367L25.2341 36.4126C25.2341 36.2936 25.2341 36.1747 25.2341 36.0557C25.353 34.5093 25.4719 33.0818 25.7098 31.5353Z" fill="url(#paint3_linear_3544_71)"></path>
  <path d="M25.4722 38.0783C25.3532 37.4835 25.3531 37.0077 25.3531 36.4129L20.119 35.937C20.119 37.0076 20.2376 38.0783 20.3566 39.1489L25.4722 38.0783Z" fill="url(#paint4_linear_3544_71)"></path>
  <path d="M26.6619 40.8141C26.0671 40.2193 25.7102 39.2677 25.4723 38.197L20.3567 39.3866C20.7136 41.4089 21.5467 43.0744 22.6174 44.3829L26.6619 40.8141Z" fill="url(#paint5_linear_3544_71)"></path>
  <path d="M41.7693 26.301C38.6763 30.9404 36.8924 33.9144 36.8924 33.9144C32.8478 40.3382 31.4203 41.7657 29.1601 41.7657C28.2084 41.7657 27.3757 41.4088 26.7809 40.814L22.7358 44.2638C24.2823 46.0482 26.3048 46.9999 28.9219 46.9999C32.8476 46.9999 35.7025 45.0966 40.6988 36.2936C40.6988 36.2936 42.84 32.6058 44.2675 29.9887C43.3159 28.6802 42.483 27.3717 41.7693 26.301Z" fill="#0082FB"></path>
  <path d="M47.2415 18.9258C46.4088 19.8775 45.5761 20.8292 44.8623 21.7808C45.5761 22.7325 46.4088 23.8031 47.2415 24.9927C48.1932 23.5652 49.1452 22.2567 49.9779 21.424L47.2415 18.9258Z" fill="url(#paint6_linear_3544_71)"></path>
  <path d="M62.1113 18.4498C59.9701 16.3086 57.4723 15 54.7362 15C51.8812 15 49.3827 16.5465 47.2415 18.9256L49.9779 21.4238C51.4054 19.8773 52.8325 19.1636 54.379 19.1636C56.0444 19.1636 57.5912 19.9963 58.8998 21.3048L62.1113 18.4498Z" fill="#0082FB"></path>
  <path d="M68.2974 35.2229C68.1785 28.3233 65.7991 22.1374 62.1113 18.4497L58.8998 21.3047C61.6358 24.0407 63.4202 29.2749 63.6581 35.2229H68.2974Z" fill="url(#paint7_linear_3544_71)"></path>
  <path d="M68.2975 35.3419C68.2975 35.2229 68.2975 35.2229 68.2975 35.3419H63.6582C63.6582 35.5798 63.6582 35.9367 63.6582 36.1746C63.6582 37.8401 63.4202 39.1486 62.9443 40.1003L66.394 43.669C67.5836 41.7657 68.2975 39.0297 68.2975 35.8178C68.2975 35.5799 68.2975 35.4609 68.2975 35.3419Z" fill="url(#paint8_linear_3544_71)"></path>
  <path d="M62.9444 40.1006C62.4685 40.9333 61.8736 41.5281 61.0409 41.766L62.5871 46.6433C62.825 46.5244 62.944 46.5244 63.1819 46.4055C63.1819 46.4055 63.301 46.4054 63.301 46.2865H63.4201C64.4907 45.8106 65.3236 44.978 66.0374 44.0263C66.0374 43.9073 66.1559 43.9073 66.1559 43.7884C66.1559 43.7884 66.156 43.6694 66.275 43.6694L62.9444 40.1006Z" fill="url(#paint9_linear_3544_71)"></path>
  <path d="M60.0895 41.7658C59.6136 41.7658 59.1375 41.6468 58.6617 41.5278L57.1155 46.5241C58.0672 46.881 59.0188 47 60.0895 47C61.0411 47 61.8736 46.881 62.8253 46.5241L61.279 41.6468C60.8032 41.7658 60.4463 41.7658 60.0895 41.7658Z" fill="url(#paint10_linear_3544_71)"></path>
  <path d="M56.8773 40.1006L53.1895 43.9073C54.498 45.2158 55.6879 46.1675 57.1154 46.5244L58.6617 41.5281C58.1858 41.2902 57.5911 40.8143 56.8773 40.1006Z" fill="url(#paint11_linear_3544_71)"></path>
  <path d="M56.8773 39.9814C55.8067 38.6729 54.3793 36.5316 52.238 33.0818L49.3831 28.4424L46.171 33.3197L48.1936 36.6506C50.0969 39.8625 51.643 42.2417 53.1895 43.7881L56.8773 39.9814C56.8773 40.1004 56.8773 40.1004 56.8773 39.9814Z" fill="url(#paint12_linear_3544_71)"></path>
  <path d="M9 58.6538H15.8625C17.7579 58.6538 19.1958 59.0459 20.1761 59.8302C21.1565 60.6145 21.6141 61.6602 21.6141 63.0327C21.6141 64.8627 20.6991 66.1045 18.9344 66.7581C21.2873 67.3463 22.3982 68.7188 22.3982 70.8756C22.3982 72.3135 21.8754 73.4245 20.8297 74.2742C19.784 75.0585 18.2809 75.5159 16.3855 75.5159H9V58.6538ZM15.5357 65.8431C17.7579 65.8431 18.869 65.0588 18.869 63.4249C18.869 62.6406 18.6074 62.0524 18.0846 61.6603C17.5617 61.2681 16.7776 61.072 15.6666 61.072H11.6797V65.8431H15.5357V65.8431ZM16.3201 73.0324C18.5423 73.0324 19.6534 72.1827 19.6534 70.5488C19.6534 69.7645 19.3918 69.1763 18.869 68.7842C18.3461 68.392 17.431 68.196 16.1239 68.196H11.6797V73.0324H16.3201Z" fill="#1C2B33"></path>
  <path d="M35.3391 75.3851H32.7899V73.6205C31.8096 74.993 30.5027 75.7119 28.8034 75.7119C27.3655 75.7119 26.189 75.2544 25.4047 74.3394C24.6204 73.4244 24.2284 72.1173 24.2284 70.3526V62.9673H26.8427V70.0912C26.8427 71.2676 27.0387 72.1173 27.4308 72.6401C27.823 73.163 28.4765 73.4898 29.3261 73.4898C30.0451 73.4898 30.764 73.2937 31.3523 72.9015C31.9405 72.5094 32.398 71.9865 32.7248 71.2676V63.0326H35.3391V75.3851Z" fill="#1C2B33"></path>
  <path d="M46.7767 74.6653C45.8617 75.3843 44.6198 75.7111 43.0512 75.7111C41.7441 75.7111 40.5678 75.4496 39.5874 74.9921C38.607 74.5346 37.8879 73.8811 37.4304 73.0968L39.1952 71.5935C39.5873 72.1818 40.0447 72.5739 40.6983 72.9007C41.3518 73.2275 42.1361 73.3582 42.9858 73.3582C44.6197 73.3582 45.4695 72.9007 45.4695 71.9203C45.4695 71.5282 45.3388 71.2014 45.0773 70.94C44.8159 70.6785 44.3583 70.4825 43.7048 70.4171L41.2864 70.025C40.1754 69.8289 39.2604 69.4368 38.6721 68.8486C38.0839 68.2604 37.7572 67.4761 37.7572 66.4957C37.7572 65.3193 38.2148 64.4043 39.1298 63.6853C40.0448 62.9664 41.2867 62.6396 42.8553 62.6396C43.9663 62.6396 45.0118 62.9011 45.9268 63.3586C46.8418 63.8161 47.4955 64.4043 47.953 65.1886L46.1231 66.5611C45.7963 66.0382 45.3388 65.646 44.7505 65.3846C44.1623 65.1232 43.4433 64.9271 42.659 64.9271C41.9401 64.9271 41.3518 65.0578 40.9596 65.3193C40.5675 65.5807 40.3715 65.9075 40.3715 66.365C40.3715 66.7571 40.5023 67.0839 40.7637 67.28C41.0251 67.4761 41.4172 67.6721 42.0054 67.7375L44.6851 68.195C45.7962 68.3911 46.5804 68.7832 47.1686 69.4368C47.7568 70.0903 48.0184 70.8746 48.0184 71.7896C48.1491 72.9661 47.6917 73.9464 46.7767 74.6653Z" fill="#1C2B33"></path>
  <path d="M50.5019 60.8103C50.1751 60.4836 50.0446 60.0914 50.0446 59.6339C50.0446 59.1111 50.1751 58.7189 50.5019 58.4575C50.8286 58.1307 51.2207 58 51.7436 58C52.2664 58 52.6588 58.1307 52.9856 58.4575C53.3124 58.7843 53.4429 59.1764 53.4429 59.6339C53.4429 60.0914 53.3124 60.5489 52.9856 60.8103C52.6588 61.0718 52.2664 61.2679 51.7436 61.2679C51.2207 61.2679 50.8286 61.1371 50.5019 60.8103ZM50.4364 62.9672H53.0507V75.4504H50.4364V62.9672Z" fill="#1C2B33"></path>
  <path d="M55.9266 62.967H58.4755V64.797C59.4558 63.3591 60.7628 62.7056 62.5274 62.7056C64.0307 62.7056 65.1419 63.1631 65.9261 64.0781C66.7104 64.9931 67.1024 66.3002 67.1024 68.0649V75.4502H64.4882V68.3263C64.4882 67.1498 64.2921 66.3002 63.8346 65.7774C63.4424 65.2545 62.7889 64.9277 61.8739 64.9277C61.0896 64.9277 60.4363 65.1238 59.8481 65.5159C59.2598 65.9081 58.8023 66.4963 58.4755 67.2152V75.4502H55.8612V62.967H55.9266Z" fill="#1C2B33"></path>
  <path d="M75.4029 75.7111C74.1611 75.7111 73.05 75.4496 72.135 74.8614C71.1547 74.3385 70.4358 73.5543 69.913 72.5739C69.3901 71.5935 69.1285 70.4825 69.1285 69.1754C69.1285 67.8682 69.3901 66.7571 69.913 65.7768C70.4358 64.7964 71.1546 64.0121 72.0696 63.4893C72.9846 62.9011 74.0303 62.6396 75.272 62.6396C76.4485 62.6396 77.4943 62.9011 78.344 63.4893C79.1936 64.0775 79.8472 64.8618 80.3047 65.8421C80.7622 66.8225 81.0237 68.0643 81.0237 69.3714V70.0903H71.8737C72.0697 71.1361 72.4618 71.9203 73.1154 72.5086C73.769 73.0968 74.6185 73.3582 75.5988 73.3582C76.3831 73.3582 77.1022 73.2275 77.6904 73.0314C78.2786 72.77 78.8015 72.4432 79.3243 71.9203L80.7623 73.685C79.2591 75.0575 77.4943 75.7111 75.4029 75.7111ZM77.429 65.7768C76.8408 65.1886 76.1219 64.9271 75.2069 64.9271C74.2919 64.9271 73.5728 65.2539 72.9845 65.8421C72.3963 66.4303 72.0044 67.2146 71.8737 68.195H78.4748C78.2787 67.1493 77.9519 66.365 77.429 65.7768Z" fill="#1C2B33"></path>
  <path d="M91.6113 74.6653C90.6963 75.3843 89.4547 75.7111 87.8862 75.7111C86.579 75.7111 85.4024 75.4496 84.422 74.9921C83.4417 74.5346 82.7229 73.8811 82.2654 73.0968L84.0302 71.5935C84.4223 72.1818 84.8797 72.5739 85.5332 72.9007C86.1868 73.2275 86.9711 73.3582 87.8207 73.3582C89.4547 73.3582 90.3042 72.9007 90.3042 71.9203C90.3042 71.5282 90.1737 71.2014 89.9123 70.94C89.6509 70.6785 89.1933 70.4825 88.5397 70.4171L86.1214 70.025C85.0103 69.8289 84.0953 69.4368 83.5071 68.8486C82.9189 68.2604 82.5922 67.4761 82.5922 66.4957C82.5922 65.3193 83.0497 64.4043 83.9647 63.6853C84.8797 62.9664 86.1213 62.6396 87.6899 62.6396C88.801 62.6396 89.8468 62.9011 90.7618 63.3586C91.6768 63.8161 92.3304 64.4043 92.7879 65.1886L90.9578 66.5611C90.631 66.0382 90.1737 65.646 89.5855 65.3846C88.9973 65.1232 88.2782 64.9271 87.494 64.9271C86.775 64.9271 86.1867 65.0578 85.7946 65.3193C85.4025 65.5807 85.2065 65.9075 85.2065 66.365C85.2065 66.7571 85.3372 67.0839 85.5987 67.28C85.8601 67.4761 86.2522 67.6721 86.8404 67.7375L89.5201 68.195C90.6312 68.3911 91.4153 68.7832 92.0035 69.4368C92.5917 70.0903 92.8534 70.8746 92.8534 71.7896C93.0494 72.9661 92.5917 73.9464 91.6113 74.6653Z" fill="#1C2B33"></path>
  <path d="M103.833 74.6653C102.918 75.3843 101.676 75.7111 100.108 75.7111C98.8007 75.7111 97.6244 75.4496 96.6441 74.9921C95.6637 74.5346 94.9449 73.8811 94.4874 73.0968L96.2519 71.5935C96.644 72.1818 97.1017 72.5739 97.7553 72.9007C98.4089 73.2275 99.1931 73.3582 100.043 73.3582C101.677 73.3582 102.526 72.9007 102.526 71.9203C102.526 71.5282 102.395 71.2014 102.134 70.94C101.873 70.6785 101.415 70.4825 100.761 70.4171L98.3434 70.025C97.2324 69.8289 96.3174 69.4368 95.7291 68.8486C95.1409 68.2604 94.8142 67.4761 94.8142 66.4957C94.8142 65.3193 95.2715 64.4043 96.1865 63.6853C97.1015 62.9664 98.3434 62.6396 99.9119 62.6396C101.023 62.6396 102.069 62.9011 102.984 63.3586C103.899 63.8161 104.552 64.4043 105.01 65.1886L103.18 66.5611C102.853 66.0382 102.395 65.646 101.807 65.3846C101.219 65.1232 100.5 64.9271 99.716 64.9271C98.9971 64.9271 98.4088 65.0578 98.0166 65.3193C97.6245 65.5807 97.4285 65.9075 97.4285 66.365C97.4285 66.7571 97.559 67.0839 97.8204 67.28C98.0818 67.4761 98.4742 67.6721 99.0624 67.7375L101.742 68.195C102.853 68.3911 103.637 68.7832 104.226 69.4368C104.814 70.0903 105.075 70.8746 105.075 71.7896C105.206 72.9661 104.748 73.9464 103.833 74.6653Z" fill="#1C2B33"></path>
  <path d="M110.761 58.6538H117.101C119.257 58.6538 120.891 59.1113 122.068 60.0917C123.244 61.072 123.833 62.4445 123.833 64.2745C123.833 66.1045 123.244 67.477 122.068 68.4574C120.891 69.4377 119.257 69.8952 117.101 69.8952H113.506V75.3853H110.761V58.6538ZM116.905 67.477C118.277 67.477 119.323 67.2156 120.042 66.6927C120.695 66.1699 121.022 65.3856 121.022 64.3399C121.022 63.2288 120.695 62.4445 120.042 61.9217C119.388 61.3988 118.343 61.1374 116.97 61.1374H113.571V67.477H116.905V67.477Z" fill="#1C2B33"></path>
  <path d="M137.035 75.3852H134.486V73.6206C134.028 74.2741 133.44 74.797 132.721 75.1238C132.002 75.4506 131.218 75.6466 130.303 75.6466C129.192 75.6466 128.212 75.3852 127.362 74.797C126.512 74.2088 125.859 73.4898 125.336 72.5095C124.878 71.5291 124.617 70.4181 124.617 69.1109C124.617 67.8691 124.878 66.6927 125.336 65.7123C125.859 64.732 126.512 63.9477 127.362 63.4248C128.212 62.8366 129.257 62.5752 130.368 62.5752C131.218 62.5752 132.002 62.7713 132.656 63.098C133.31 63.4248 133.898 63.8824 134.355 64.4706V62.902H136.904L137.035 75.3852ZM134.42 67.2809C134.159 66.562 133.701 66.0391 133.113 65.5816C132.525 65.1895 131.806 64.9934 131.022 64.9934C129.911 64.9934 128.996 65.3856 128.342 66.1045C127.689 66.8234 127.362 67.8691 127.362 69.1109C127.362 70.4181 127.689 71.3984 128.342 72.1827C128.996 72.9016 129.846 73.2938 130.957 73.2938C131.741 73.2938 132.46 73.0977 133.113 72.6402C133.767 72.2481 134.224 71.6598 134.486 70.9409L134.42 67.2809Z" fill="#1C2B33"></path>
  <path d="M139.649 62.9671H142.198V64.8625C142.917 63.49 143.963 62.8364 145.335 62.8364C145.596 62.8364 145.858 62.8364 146.119 62.9018V65.32C145.858 65.32 145.596 65.2546 145.335 65.2546C143.832 65.2546 142.786 65.9736 142.329 67.4768V75.4503H139.714L139.649 62.9671Z" fill="#1C2B33"></path>
  <path d="M149.387 65.1238H147.623V62.9017H149.387V59.2417H152.002V62.9017H155.792V65.1238H152.002V70.7445C152.002 71.6595 152.132 72.3131 152.459 72.7706C152.786 73.2281 153.309 73.3588 154.093 73.3588C154.42 73.3588 154.747 73.3588 154.943 73.2935C155.204 73.2935 155.465 73.2281 155.727 73.1628V75.3195C155.4 75.3849 155.073 75.4502 154.746 75.5156C154.354 75.581 153.962 75.581 153.57 75.581C150.76 75.581 149.322 74.0124 149.322 70.9406L149.387 65.1238Z" fill="#1C2B33"></path>
  <path d="M157.818 62.967H160.367V64.797C161.348 63.3591 162.655 62.7056 164.419 62.7056C165.923 62.7056 167.034 63.1631 167.818 64.0781C168.602 64.9931 168.994 66.3002 168.994 68.0649V75.4502H166.38V68.3263C166.38 67.1498 166.184 66.3002 165.727 65.7774C165.334 65.2545 164.681 64.9277 163.766 64.9277C162.982 64.9277 162.328 65.1238 161.74 65.5159C161.152 65.9081 160.694 66.4963 160.367 67.2152V75.4502H157.753V62.967H157.818Z" fill="#1C2B33"></path>
  <path d="M177.36 75.7111C176.118 75.7111 175.007 75.4496 174.092 74.8614C173.112 74.3385 172.393 73.5543 171.87 72.5739C171.347 71.5935 171.086 70.4825 171.086 69.1754C171.086 67.8682 171.347 66.7571 171.87 65.7768C172.393 64.7964 173.112 64.0121 174.027 63.4893C174.942 62.9011 175.987 62.6396 177.229 62.6396C178.406 62.6396 179.451 62.9011 180.301 63.4893C181.151 64.0775 181.804 64.8618 182.262 65.8421C182.719 66.8225 182.981 68.0643 182.981 69.3714V70.0903H173.831C174.027 71.1361 174.419 71.9203 175.073 72.5086C175.726 73.0968 176.576 73.3582 177.556 73.3582C178.34 73.3582 179.059 73.2275 179.648 73.0314C180.236 72.77 180.759 72.4432 181.281 71.9203L182.719 73.685C181.151 75.0575 179.451 75.7111 177.36 75.7111ZM179.321 65.7768C178.733 65.1886 178.014 64.9271 177.099 64.9271C176.184 64.9271 175.465 65.2539 174.877 65.8421C174.288 66.4303 173.896 67.2146 173.765 68.195H180.367C180.236 67.1493 179.909 66.365 179.321 65.7768Z" fill="#1C2B33"></path>
  <path d="M185.072 62.9671H187.621V64.8624C188.406 63.4899 189.517 62.771 190.889 62.771C191.347 62.771 191.739 62.8364 192 62.9017V65.3199C191.608 65.2546 191.216 65.2546 190.824 65.2546C189.255 65.2546 188.209 65.9735 187.621 67.346V75.4503H185.007L185.072 62.9671Z" fill="#1C2B33"></path>
  <defs>
    <linearGradient id="paint0_linear_3544_71" x1="47.1841" y1="31.3975" x2="36.4074" y2="17.2543" gradientUnits="userSpaceOnUse">
      <stop offset="0.0006" stop-color="#0867DF"></stop>
      <stop offset="0.4539" stop-color="#0668E1"></stop>
      <stop offset="0.8591" stop-color="#0064E0"></stop>
    </linearGradient>
    <linearGradient id="paint1_linear_3544_71" x1="26.1833" y1="22.2415" x2="33.5774" y2="16.619" gradientUnits="userSpaceOnUse">
      <stop offset="0.1323" stop-color="#0064DF"></stop>
      <stop offset="0.9988" stop-color="#0064E0"></stop>
    </linearGradient>
    <linearGradient id="paint2_linear_3544_71" x1="23.0424" y1="30.4698" x2="26.004" y2="23.0033" gradientUnits="userSpaceOnUse">
      <stop offset="0.0147" stop-color="#0072EC"></stop>
      <stop offset="0.6881" stop-color="#0064DF"></stop>
    </linearGradient>
    <linearGradient id="paint3_linear_3544_71" x1="22.6376" y1="35.8606" x2="22.9802" y2="31.3024" gradientUnits="userSpaceOnUse">
      <stop offset="0.0731" stop-color="#007CF6"></stop>
      <stop offset="0.9943" stop-color="#0072EC"></stop>
    </linearGradient>
    <linearGradient id="paint4_linear_3544_71" x1="22.8264" y1="38.3367" x2="22.5813" y2="36.5104" gradientUnits="userSpaceOnUse">
      <stop offset="0.0731" stop-color="#007FF9"></stop>
      <stop offset="1" stop-color="#007CF6"></stop>
    </linearGradient>
    <linearGradient id="paint5_linear_3544_71" x1="22.6832" y1="38.8153" x2="24.2109" y2="42.0608" gradientUnits="userSpaceOnUse">
      <stop offset="0.0731" stop-color="#007FF9"></stop>
      <stop offset="1" stop-color="#0082FB"></stop>
    </linearGradient>
    <linearGradient id="paint6_linear_3544_71" x1="46.2255" y1="23.1235" x2="48.2462" y2="20.3242" gradientUnits="userSpaceOnUse">
      <stop offset="0.2799" stop-color="#007FF8"></stop>
      <stop offset="0.9141" stop-color="#0082FB"></stop>
    </linearGradient>
    <linearGradient id="paint7_linear_3544_71" x1="61.623" y1="19.4966" x2="65.8467" y2="35.0585" gradientUnits="userSpaceOnUse">
      <stop stop-color="#0082FB"></stop>
      <stop offset="0.9995" stop-color="#0081FA"></stop>
    </linearGradient>
    <linearGradient id="paint8_linear_3544_71" x1="66.8735" y1="35.6495" x2="64.1996" y2="41.062" gradientUnits="userSpaceOnUse">
      <stop offset="0.0619" stop-color="#0081FA"></stop>
      <stop offset="1" stop-color="#0080F9"></stop>
    </linearGradient>
    <linearGradient id="paint9_linear_3544_71" x1="62.067" y1="43.9301" x2="64.5706" y2="42.2223" gradientUnits="userSpaceOnUse">
      <stop stop-color="#027AF3"></stop>
      <stop offset="1" stop-color="#0080F9"></stop>
    </linearGradient>
    <linearGradient id="paint10_linear_3544_71" x1="58.1358" y1="44.2617" x2="61.6182" y2="44.2617" gradientUnits="userSpaceOnUse">
      <stop stop-color="#0377EF"></stop>
      <stop offset="0.9994" stop-color="#0279F1"></stop>
    </linearGradient>
    <linearGradient id="paint11_linear_3544_71" x1="55.1089" y1="42.3454" x2="57.6104" y2="43.8195" gradientUnits="userSpaceOnUse">
      <stop offset="0.0019" stop-color="#0471E9"></stop>
      <stop offset="1" stop-color="#0377EF"></stop>
    </linearGradient>
    <linearGradient id="paint12_linear_3544_71" x1="47.4772" y1="31.4978" x2="55.4819" y2="41.5777" gradientUnits="userSpaceOnUse">
      <stop offset="0.2765" stop-color="#0867DF"></stop>
      <stop offset="1" stop-color="#0471E9"></stop>
    </linearGradient>
  </defs>
</svg>
