<?xml version="1.0" encoding="UTF-8"?>
<svg xmlns="http://www.w3.org/2000/svg" width="55" height="54" viewBox="0 0 55 54" fill="none">
  <path fill-rule="evenodd" clip-rule="evenodd" d="M28.7251 0.366784C29.6774 0.812479 30.2935 1.41849 30.7658 2.37415C31.1382 3.12771 31.16 3.22744 31.16 4.18521C31.16 5.14299 31.1382 5.24272 30.7658 5.99628C30.2911 6.9569 29.68 7.55521 28.6988 8.02C28.0612 8.32206 27.8978 8.35404 26.9912 8.35404C26.0845 8.35404 25.9211 8.32206 25.2835 8.02C24.3023 7.55521 23.6912 6.9569 23.2165 5.99628C22.8445 5.24357 22.8223 5.14214 22.8223 4.1907C22.8223 3.27778 22.8539 3.11599 23.1564 2.47758C23.5804 1.58239 24.1842 0.927095 24.9718 0.507363C25.8031 0.0643071 26.258 -0.0359556 27.2285 0.0102709C27.862 0.0404553 28.1994 0.120771 28.7251 0.366784ZM26.0504 1.72793C25.1193 2.05679 24.3527 3.16644 24.3527 4.18521C24.3527 4.82267 24.6675 5.56103 25.1415 6.0349C26.1737 7.0673 27.8086 7.0673 28.8408 6.0349C30.8267 4.04917 28.7134 0.787361 26.0504 1.72793ZM17.0176 3.90923C17.6816 4.22321 19.6034 6.1491 19.6034 6.50044C19.6034 6.62909 19.4597 6.87806 19.2841 7.05368C18.8235 7.51426 18.567 7.40428 17.3754 6.23543C16.5193 5.39565 16.3083 5.24061 16.0217 5.24061C15.5552 5.24061 15.0652 5.73253 15.0652 6.20081C15.0652 6.51015 15.4066 6.88809 18.5295 10.0348C20.9133 12.4368 22.1373 13.75 22.4538 14.2452C22.8354 14.8421 22.9511 14.9539 23.132 14.901C24.5353 14.4903 25.3209 14.3854 26.9912 14.3854C28.6614 14.3854 29.447 14.4903 30.8503 14.901C31.0312 14.9539 31.1469 14.8421 31.5285 14.2452C31.845 13.75 33.069 12.4368 35.4528 10.0348C38.5757 6.88809 38.9172 6.51015 38.9172 6.20081C38.9172 5.72968 38.4272 5.24061 37.9553 5.24061C37.6451 5.24061 37.3227 5.52652 34.7546 8.07847C32.6298 10.1899 31.7502 10.9937 31.3183 11.2183L30.7378 11.5202H26.9912H23.2445L22.6672 11.2164C22.0163 10.874 20.792 9.7536 20.6423 9.36363C20.4572 8.88142 20.9034 8.30127 21.4595 8.30127C21.5461 8.30127 21.9488 8.61293 22.3544 8.99382C22.76 9.37471 23.2553 9.75466 23.4549 9.83814C24.0049 10.0679 29.999 10.0589 30.5529 9.82748C30.8034 9.72278 31.9748 8.64142 33.8475 6.78614C36.2612 4.39503 36.8271 3.88601 37.188 3.78237C38.7926 3.32127 40.3191 4.35344 40.4788 6.00768C40.5792 7.04682 40.4757 7.18371 36.7073 10.9925C33.7554 13.976 32.5848 15.2793 32.5848 15.582C32.5848 15.6194 32.7626 15.7348 32.9799 15.8384C34.4245 16.5273 36.4485 18.3765 37.5157 19.9827C37.8699 20.5158 38.1908 21.0501 38.2289 21.1701C38.267 21.2901 38.3343 21.3882 38.3785 21.3882C38.6012 21.3882 39.5962 20.5973 40.6591 19.5755C41.9267 18.3569 42.1497 18.2494 42.6204 18.6306C42.7972 18.7737 42.8643 18.9376 42.8643 19.226C42.8643 19.5946 42.7754 19.7104 41.6559 20.799C40.9913 21.4453 40.1269 22.1813 39.7351 22.4346C39.3433 22.6879 39.0227 22.9136 39.0227 22.936C39.0227 22.9585 39.1169 23.3438 39.2322 23.792C39.5189 24.9079 39.6517 25.9174 39.6517 26.9818C39.6517 28.0462 39.5189 29.0558 39.2322 30.1716C39.1169 30.6199 39.0227 31.0051 39.0227 31.0276C39.0227 31.0501 39.3433 31.2734 39.7351 31.5238C40.2214 31.8347 41.5552 33.0785 43.9382 35.4435C47.0849 38.5664 47.4628 38.9078 47.7722 38.9078C48.2433 38.9078 48.7324 38.4179 48.7324 37.9459C48.7324 37.6357 48.4464 37.3133 45.8945 34.7452C43.7831 32.6205 42.9793 31.7408 42.7547 31.3089L42.4527 30.7285V26.9818V23.2351L42.7088 22.7075C42.8976 22.3182 43.7216 21.416 45.8486 19.2696C48.4359 16.6586 48.7324 16.3242 48.7324 16.0161C48.7324 15.5491 48.2423 15.0558 47.7784 15.0558C47.4919 15.0558 47.263 15.23 46.2522 16.2168C45.2727 17.1729 45.007 17.3777 44.7458 17.3777C44.2916 17.3777 43.9479 17.0635 43.9479 16.6483C43.9479 16.3555 44.1156 16.1399 45.1504 15.1021C45.8119 14.4388 46.5203 13.8166 46.7248 13.7194C48.3683 12.9382 50.3231 14.2081 50.3131 16.0508C50.3085 16.9217 50.0306 17.2824 47.0966 20.2273C45.2737 22.0569 44.2536 23.1598 44.1465 23.4165C44.0112 23.7412 43.9831 24.3557 43.9831 26.9818C43.9831 29.608 44.0112 30.2224 44.1465 30.5472C44.2536 30.8038 45.2737 31.9067 47.0966 33.7364C50.0306 36.6812 50.3085 37.042 50.3131 37.9128C50.3222 39.6011 48.7085 40.8294 47.0701 40.3813C46.6151 40.2567 46.242 39.9211 43.0332 36.7486C39.9624 33.7126 38.6939 32.5754 38.3785 32.5754C38.3343 32.5754 38.2682 32.6698 38.2316 32.7851C38.0594 33.3275 36.7954 35.039 35.9219 35.9126C35.0484 36.786 33.3368 38.0501 32.7945 38.2222C32.6791 38.2588 32.5848 38.3249 32.5848 38.3691C32.5848 38.6846 33.722 39.9531 36.7579 43.0239C39.9304 46.2327 40.2661 46.6058 40.3906 47.0608C40.8387 48.6992 39.6104 50.3129 37.9221 50.3038C37.0513 50.2991 36.6906 50.0213 33.7457 47.0872C31.9161 45.2644 30.8132 44.2442 30.5565 44.1372C29.9768 43.8956 24.0055 43.8956 23.4258 44.1372C23.1691 44.2442 22.0662 45.2644 20.2366 47.0872C18.2094 49.107 17.3091 49.9326 16.9649 50.0876C14.928 51.0049 12.7623 48.7487 13.7285 46.716C13.8256 46.5117 14.5426 45.7083 15.322 44.9305C16.5222 43.7329 16.7885 43.5164 17.0618 43.5164C17.5103 43.5164 17.8092 43.817 17.8092 44.2681C17.8092 44.5969 17.6658 44.7813 16.4372 46.0317C15.2529 47.2371 15.0652 47.4746 15.0652 47.7671C15.0652 48.233 15.5574 48.723 16.0255 48.723C16.3335 48.723 16.668 48.4265 19.2789 45.8392C21.4253 43.7123 22.3276 42.8882 22.7168 42.6994L23.2445 42.4434H26.9912H30.7378L31.3183 42.7453C31.7502 42.9699 32.6298 43.7737 34.7546 45.8852C37.3227 48.4371 37.6451 48.723 37.9553 48.723C38.4272 48.723 38.9172 48.2339 38.9172 47.7628C38.9172 47.4535 38.5757 47.0755 35.4528 43.9289C33.0879 41.5459 31.8441 40.2121 31.5332 39.7257C31.2827 39.3339 31.0594 39.0133 31.0369 39.0133C31.0144 39.0133 30.6292 39.1076 30.181 39.2228C27.994 39.7848 25.9883 39.7848 23.8013 39.2228C23.3531 39.1076 22.9679 39.0133 22.9454 39.0133C22.9229 39.0133 22.7003 39.329 22.4508 39.7149C22.2012 40.1007 21.5654 40.8614 21.0378 41.4052C19.9247 42.5523 19.5882 42.7016 19.1354 42.2489C18.6678 41.7812 18.7607 41.5287 19.8077 40.4225C20.6682 39.5133 21.3975 38.5712 21.3975 38.3691C21.3975 38.3249 21.3032 38.2588 21.1878 38.2222C21.0725 38.1856 20.5382 37.8675 20.0005 37.5153C18.4077 36.4722 16.8298 34.7617 15.9053 33.0764L15.6301 32.5747L15.1102 32.9128C14.8242 33.0989 13.0467 34.7822 11.1602 36.6534C7.55368 40.2309 7.23643 40.4838 6.35052 40.4886C4.99434 40.4959 3.7724 39.3085 3.7724 37.9833C3.7724 37.0235 3.85862 36.9092 6.90102 33.8382C8.7563 31.9655 9.83767 30.794 9.94236 30.5436C10.183 29.9677 10.182 23.9942 9.94131 23.4165C9.83429 23.1598 8.81414 22.0569 6.99126 20.2273C4.05366 17.2788 3.77936 16.9222 3.77472 16.0454C3.76754 14.6918 4.95729 13.4727 6.28551 13.4727C7.25173 13.4727 7.31474 13.5222 11.0546 17.2173C12.9992 19.1385 14.8242 20.8631 15.1102 21.0497L15.6301 21.3889L15.9053 20.8872C17.0055 18.8816 18.9642 16.9075 20.812 15.942C21.1338 15.7739 21.3971 15.6088 21.3973 15.5752C21.3985 15.2815 20.1984 13.9475 17.2266 10.9398C14.3071 7.98475 13.7128 7.33283 13.6078 6.96978C13.329 6.0062 13.5579 5.09866 14.2513 4.41814C15.0388 3.64538 16.0619 3.4571 17.0176 3.90923ZM5.66399 15.3643C5.4489 15.5794 5.35549 15.7772 5.35549 16.0177C5.35549 16.3279 5.6414 16.6503 8.19336 19.2184C10.3048 21.3431 11.1086 22.2228 11.3332 22.6547L11.6351 23.2351V26.9818V30.7285L11.3332 31.3089C11.1086 31.7408 10.3048 32.6205 8.19336 34.7452C5.6414 37.3133 5.35549 37.6357 5.35549 37.9459C5.35549 38.4173 5.84457 38.9078 6.31454 38.9078C6.62229 38.9078 7.01184 38.5562 10.2013 35.3986C12.5278 33.0954 13.9559 31.7624 14.357 31.52C14.835 31.2311 14.9579 31.1046 14.9215 30.9396C14.8959 30.8235 14.7663 30.2773 14.6334 29.7258C14.285 28.2798 14.285 25.6838 14.6334 24.2378C14.7663 23.6863 14.8959 23.1402 14.9215 23.0241C14.9579 22.859 14.835 22.7326 14.357 22.4436C13.9559 22.2012 12.5278 20.8682 10.2013 18.565C7.01184 15.4075 6.62229 15.0558 6.31454 15.0558C6.07718 15.0558 5.87802 15.1503 5.66399 15.3643ZM25.6191 15.9741C25.416 15.9963 24.8492 16.1126 24.3597 16.2328C19.8682 17.3349 16.4829 21.2089 15.9632 25.8411L15.8959 26.4419L16.4495 26.6063C17.1132 26.8033 17.7675 26.8154 18.12 26.637C18.5821 26.4032 18.7426 25.9554 18.9119 24.4282C19.0994 22.7367 19.344 22.0007 19.893 21.4746C20.7138 20.6882 21.5185 20.5465 23.1134 20.9077C24.2266 21.1598 24.6019 21.6185 24.1837 22.2157C23.9084 22.6087 23.6355 22.6483 22.6617 22.4367C20.9969 22.075 20.7377 22.3323 20.4901 24.5917C20.3069 26.2638 20.1194 26.8773 19.6237 27.426C19.0289 28.0844 18.5334 28.292 17.5453 28.2968C17.081 28.2992 16.5466 28.2667 16.358 28.2245C16.0349 28.1525 16.015 28.165 16.015 28.442C16.015 28.9123 16.435 30.4427 16.8046 31.319C17.2249 32.3158 18.671 34.5233 18.7955 34.3582C18.8126 34.3354 18.9544 34.0498 19.1106 33.7236C19.5319 32.8432 20.1376 32.2152 20.9524 31.8142C21.6068 31.4919 21.7322 31.4673 22.7146 31.4673C23.6328 31.4673 23.8487 31.5032 24.3527 31.7406C25.1442 32.1134 25.5442 32.4745 26.1419 33.356C26.4216 33.7683 26.7715 34.2181 26.9197 34.3555C27.2774 34.687 27.9057 34.7468 28.8909 34.543C29.7581 34.3637 30.2253 34.416 30.8115 34.7584C31.2671 35.0245 31.8088 35.7468 31.9677 36.3C32.0378 36.5443 32.1073 36.761 32.1223 36.7816C32.2087 36.9007 34.1077 35.498 34.8075 34.7982C36.12 33.4856 37.0048 32.0057 37.5963 30.1329C37.9843 28.905 37.9843 28.9051 37.0551 28.3538C36.6148 28.0926 36.015 27.6177 35.7224 27.2984C34.0016 25.4218 33.7977 22.3159 35.2866 20.66L35.7607 20.1326L34.879 19.2409C33.9762 18.328 32.6065 17.3513 31.612 16.9115C31.0001 16.6409 29.3035 16.0856 29.2505 16.1385C29.2323 16.1567 29.3459 16.4311 29.5027 16.7483C29.7488 17.2459 29.788 17.4552 29.788 18.2748C29.788 19.1549 29.7616 19.2732 29.4291 19.8865C29.0337 20.6157 27.7939 21.8694 27.3608 21.9781C26.9475 22.0818 26.5871 21.9405 26.4148 21.6072C26.1898 21.1722 26.3619 20.7965 27.0249 20.2755C28.5139 19.1055 28.665 17.7295 27.4272 16.6113C26.9314 16.1634 26.4456 15.8933 26.1785 15.917C26.074 15.9263 25.8223 15.9521 25.6191 15.9741ZM36.3211 21.8641C35.4038 23.264 35.9372 25.6314 37.4139 26.7149C37.6893 26.9169 37.9501 27.0833 37.9937 27.0847C38.2276 27.0924 37.9201 24.8066 37.5255 23.6045C37.2091 22.6405 36.7296 21.5993 36.6021 21.5993C36.543 21.5993 36.4165 21.7184 36.3211 21.8641ZM53.3445 22.9671C53.9919 23.3617 54.0093 23.468 54.0089 27.0029C54.0086 29.9884 53.9949 30.2233 53.8025 30.5386C53.4082 31.1854 53.2994 31.2034 49.7878 31.2034C46.2761 31.2034 46.1673 31.1854 45.773 30.5386C45.5806 30.2233 45.5669 29.9884 45.5666 27.0029C45.5662 23.468 45.5836 23.3617 46.231 22.9671C46.5465 22.7746 46.7809 22.761 49.7878 22.761C52.7946 22.761 53.029 22.7746 53.3445 22.9671ZM7.96919 23.4381L8.36338 23.7994V26.9818V30.1643L7.96919 30.5255C7.32888 31.1123 7.17595 31.0757 3.70897 29.5053C1.94561 28.7065 0.535176 28.0031 0.365573 27.8378C-0.0191195 27.463 -0.10714 26.9186 0.134546 26.4094C0.338977 25.9787 0.126947 26.0916 4.40564 24.1329C7.06376 22.916 7.34049 22.8621 7.96919 23.4381ZM47.1493 26.9818V29.6203H49.7878H52.4262V26.9818V24.3433H49.7878H47.1493V26.9818ZM31.5065 24.7038C32.1391 25.0278 32.8288 25.7377 33.1045 26.3486C33.3725 26.9422 33.3812 27.743 33.1257 28.3011C32.6815 29.271 31.1991 30.2361 29.4808 30.674C27.0502 31.2935 25.468 30.5264 25.4774 28.7329C25.4837 27.5256 26.0017 26.7837 27.0685 26.4542C27.9766 26.1737 28.3413 25.9386 28.7833 25.3486C29.3037 24.654 29.6657 24.4528 30.3983 24.4507C30.8386 24.4494 31.1474 24.5199 31.5065 24.7038ZM4.43265 25.8579C3.14148 26.447 2.08503 26.9528 2.08513 26.9818C2.08513 27.0108 3.15351 27.5165 4.45915 28.1056L6.83305 29.1765V26.971C6.83305 25.758 6.82123 24.7702 6.80667 24.7761C6.7921 24.7819 5.72383 25.2687 4.43265 25.8579ZM29.8809 26.5153C29.3583 27.1531 28.7524 27.5581 27.904 27.8366C27.2854 28.0396 27.1966 28.1038 27.0909 28.4242C26.9935 28.7195 27.0027 28.8307 27.1424 29.0438C27.2896 29.2685 27.3922 29.3037 27.9019 29.3037C29.0954 29.3037 30.8297 28.6449 31.427 27.9647C31.8888 27.4388 31.8513 27.0649 31.2794 26.493C30.6646 25.8782 30.3996 25.8824 29.8809 26.5153ZM21.6302 33.2165C20.9585 33.5575 20.3747 34.4458 20.2009 35.3911C20.1414 35.7151 20.1691 35.7457 21.0059 36.2851C23.6138 37.9661 27.1298 38.5086 29.9172 37.6599C30.6252 37.4444 30.6812 37.3213 30.3811 36.6427C30.1084 36.0261 29.8556 35.9274 29.0412 36.1189C27.1898 36.5545 26.1632 36.1358 24.9859 34.465C24.175 33.3143 23.8032 33.072 22.7696 33.0204C22.2266 32.9934 21.989 33.0342 21.6302 33.2165ZM29.3847 45.7138C29.673 45.9158 31.7404 49.4829 31.7404 49.7784C31.7404 50.0739 29.673 53.6411 29.3847 53.8431C29.2039 53.9696 28.7406 54 26.9912 54C25.2417 54 24.7784 53.9696 24.5976 53.8431C24.3093 53.6411 22.2419 50.0739 22.2419 49.7784C22.2419 49.4829 24.3093 45.9158 24.5976 45.7138C24.9265 45.4835 29.0558 45.4835 29.3847 45.7138ZM24.7012 48.4612L23.9415 49.7784L24.7012 51.0957L25.4608 52.413H26.9912H28.5215L29.2812 51.0957L30.0408 49.7784L29.2812 48.4612L28.5215 47.1438H26.9912H25.4608L24.7012 48.4612Z" fill="#02E0DF"></path>
</svg>
