<?xml version="1.0" encoding="UTF-8"?>
<svg xmlns="http://www.w3.org/2000/svg" width="188" height="38" viewBox="0 0 188 38" fill="none">
  <g clip-path="url(#clip0_3425_109)">
    <path fill-rule="evenodd" clip-rule="evenodd" d="M0.586156 3.47026C1.46154 1.36361 3.64999 -0.145637 5.93224 -0.145637C23.1585 -0.145637 40.3847 -0.145637 57.6423 -0.145637C59.1429 -0.17708 60.6436 0.388894 61.7378 1.39506C62.9883 2.52699 63.7074 4.22489 63.6762 5.92278C63.6762 12.5572 63.6762 19.1915 63.6762 25.8574C63.6449 28.8444 61.05 31.5485 58.08 31.6114C51.796 31.6428 45.512 31.6114 39.228 31.6114C40.0721 33.718 40.9162 35.7932 41.7603 37.8999C38.0087 35.8247 34.3196 33.6866 30.5367 31.6428C22.2831 31.5799 13.9983 31.6428 5.71339 31.6114C2.74335 31.517 0.148465 28.8444 0.117201 25.8574C0.0859376 19.3488 0.117201 12.8401 0.0859375 6.36298C0.0859375 5.38826 0.179729 4.38209 0.586156 3.47026Z" fill="#945C87"></path>
    <path fill-rule="evenodd" clip-rule="evenodd" d="M25.8471 3.94192C26.785 2.93575 28.5983 3.25018 29.3173 4.41355C29.6925 5.01096 29.7238 5.82847 29.4111 6.45732C28.0981 9.0985 27.5353 12.0227 27.0351 14.8839C26.4411 18.6256 25.9409 22.4302 26.1285 26.2347C26.191 27.2094 25.722 28.3728 24.6903 28.6243C23.7212 28.8444 22.8145 28.1841 22.1892 27.4924C19.3755 24.4425 17.7811 20.5122 16.6243 16.5818C15.4676 18.8771 14.3108 21.2039 13.1853 23.4992C12.4037 25.0713 11.5596 26.6749 10.3091 27.9326C9.77758 28.4671 8.87093 28.9388 8.18314 28.4042C7.15144 27.4924 6.90133 26.0461 6.46364 24.8198C4.80666 19.0658 3.86876 13.1232 2.89958 7.21195C2.68074 6.23723 3.08716 5.04241 4.05634 4.6651C4.83793 4.38212 5.86963 4.31923 6.52616 4.91664C6.99512 5.32539 7.12017 5.98569 7.21396 6.5831C7.90176 11.1737 8.68335 15.7329 9.80884 20.2292C11.6847 16.6447 13.5605 13.0603 15.4363 9.44437C15.7177 8.90984 16.0616 8.37532 16.5618 8.06089C17.2496 7.6207 18.25 7.65215 18.844 8.281C19.313 8.78408 19.5006 9.50726 19.6256 10.1676C20.1884 13.1232 20.9387 16.0787 22.0329 18.8771C22.5019 14.6324 23.0959 10.3248 24.6278 6.33155C24.9717 5.4826 25.2843 4.63365 25.8471 3.94192ZM36.4454 6.23723C38.4776 5.98569 40.666 6.67742 42.0416 8.21811C43.1671 9.50725 43.7924 11.1737 44.0112 12.8402C44.3551 15.7014 43.8237 18.7199 42.4481 21.2668C41.6665 22.7131 40.666 24.1281 39.2279 24.977C37.1333 26.2661 34.3195 26.1089 32.2874 24.7569C30.6617 23.625 29.755 21.7384 29.3799 19.8519C28.6295 15.5442 29.9114 10.765 33.1315 7.77791C34.0694 6.92896 35.2262 6.39444 36.4454 6.23723ZM36.8519 10.6392C35.8827 10.9536 35.2574 11.8654 34.726 12.683C33.4129 14.8211 33.0377 17.6194 34.1007 19.9147C34.382 20.5122 34.8197 21.1724 35.5388 21.2982C36.2891 21.424 36.9769 20.9838 37.5084 20.5122C38.6964 19.4746 39.2904 17.9339 39.6031 16.3932C39.9157 14.6638 39.7594 12.7458 38.759 11.2366C38.3525 10.6706 37.5397 10.4191 36.8519 10.6392ZM52.6713 6.23723C54.6409 5.98569 56.7981 6.61454 58.1737 8.09234C59.4242 9.44437 60.0808 11.2366 60.2683 13.0603C60.5497 15.8272 60.0495 18.7199 58.7364 21.1725C57.9548 22.6503 56.9231 24.0966 55.4225 24.977C53.4216 26.2033 50.7329 26.0775 48.7321 24.8827C47.3877 24.0652 46.4811 22.6817 45.9496 21.2039C44.5427 16.7076 45.7307 11.4252 48.9822 8.02945C50.0451 7.08617 51.3269 6.39444 52.6713 6.23723ZM53.109 10.6392C52.046 11.0165 51.4207 12.0541 50.858 12.9659C49.67 15.0726 49.3573 17.8081 50.4516 20.0405C50.7329 20.6694 51.2644 21.2668 51.9835 21.2982C52.7651 21.3297 53.4529 20.8266 54.0156 20.2921C55.2349 19.0972 55.7664 17.3993 55.954 15.7329C56.1415 14.1922 55.8914 12.5257 54.9848 11.2052C54.6096 10.6706 53.7968 10.4191 53.109 10.6392Z" fill="white"></path>
    <path fill-rule="evenodd" clip-rule="evenodd" d="M74.3682 6.83463C76.0877 6.45732 77.901 6.48876 79.6205 6.89752C79.6205 8.31243 79.6205 9.72735 79.6205 11.1423C78.2136 10.7964 76.6191 10.482 75.2748 11.1423C73.6491 11.9598 72.7425 13.8149 72.7425 15.5757C72.6487 17.3364 73.2427 19.3173 74.8059 20.3235C76.244 21.2668 78.0885 21.0781 79.6517 20.6379C79.6517 22.0528 79.6517 23.4677 79.6517 24.8827C77.5571 25.4801 75.2748 25.4172 73.2427 24.6626C70.8041 23.7507 68.8658 21.6126 68.1154 19.0972C67.5527 17.1792 67.4902 15.1355 67.9279 13.186C68.6469 10.0732 71.2731 7.52636 74.3682 6.83463ZM87.0612 6.61452C89.1871 6.36298 91.5006 6.70885 93.2201 8.06088C94.8771 9.35003 95.69 11.4567 96.0026 13.469C96.284 15.7014 96.2214 18.0282 95.5336 20.1663C94.9396 21.9899 93.7204 23.6878 91.9696 24.5368C90.1876 25.3857 88.0929 25.4486 86.1858 25.0084C84.4351 24.5997 82.8719 23.4363 81.9965 21.8327C80.7772 19.6946 80.5584 17.1478 80.6522 14.7267C80.7459 12.6515 81.2774 10.482 82.653 8.87839C83.7785 7.58925 85.4042 6.80318 87.0612 6.61452ZM87.7177 10.6706C86.8111 10.8907 86.2796 11.8026 86.0608 12.6515C85.6231 14.3494 85.6856 16.1102 85.8106 17.8395C85.9357 18.7828 86.0295 19.789 86.686 20.5436C87.5614 21.5498 89.3434 21.424 90.125 20.3864C90.6565 19.7261 90.8128 18.8771 90.9066 18.0596C91.0942 16.6133 91.1255 15.1355 90.9066 13.6891C90.7503 12.8087 90.5002 11.8969 89.8749 11.2366C89.3122 10.6706 88.4681 10.482 87.7177 10.6706ZM171.098 6.89752C172.911 6.42588 174.818 6.48876 176.631 6.86607C176.663 8.28099 176.631 9.6959 176.663 11.1423C175.287 10.7964 173.755 10.482 172.411 11.0794C170.848 11.8026 169.91 13.469 169.785 15.1355C169.597 17.022 170.097 19.1601 171.754 20.2606C173.192 21.2668 175.068 21.0781 176.663 20.6065C176.631 22.0214 176.694 23.4677 176.631 24.8827C174.412 25.4486 171.973 25.3857 169.879 24.4739C167.565 23.4677 165.752 21.3296 165.095 18.8771C164.595 16.9906 164.532 14.9782 165.001 13.0603C165.689 10.1046 168.159 7.68358 171.098 6.89752ZM98.7851 7.02328C100.786 7.02328 102.818 7.02328 104.819 7.02328C105.538 10.2933 106.226 13.5948 106.851 16.8962C107.414 13.5633 108.195 10.2933 108.977 7.02328C111.04 7.02328 113.104 7.02328 115.167 7.02328C115.98 12.9659 116.762 18.9086 117.543 24.8198C115.98 24.8198 114.386 24.8198 112.822 24.8198C112.385 20.7637 112.01 16.6761 111.541 12.6201C110.571 16.6761 109.571 20.7637 108.602 24.8198C107.539 24.8198 106.445 24.8198 105.382 24.8198C104.35 20.7637 103.35 16.6761 102.287 12.5886C101.88 16.6447 101.474 20.7322 101.067 24.8198C99.5667 24.8198 98.066 24.8198 96.5341 24.8198C97.2844 18.9086 98.0347 12.9659 98.7851 7.02328ZM120.419 7.02328C122.42 7.02328 124.452 7.02328 126.453 7.02328C127.172 10.2933 127.86 13.5948 128.485 16.8962C129.08 13.5948 129.83 10.2933 130.611 7.02328H136.77C137.583 12.9659 138.365 18.9086 139.146 24.8198C137.583 24.8198 135.989 24.8198 134.426 24.8198C133.988 20.7637 133.581 16.6761 133.144 12.6201C132.175 16.6761 131.205 20.7637 130.205 24.8198C129.142 24.8198 128.048 24.8198 126.985 24.8198C125.953 20.7322 124.921 16.6761 123.89 12.5886C123.483 16.6761 123.077 20.7322 122.67 24.8198C121.17 24.8198 119.669 24.8198 118.137 24.8198C118.919 18.9086 119.669 12.9659 120.419 7.02328ZM140.522 7.08616C143.742 7.02328 146.994 7.08617 150.214 7.05473C150.214 8.31243 150.214 9.57013 150.214 10.8593C148.588 10.8907 146.962 10.8593 145.337 10.8593C145.337 11.9598 145.337 13.0288 145.337 14.1293C146.743 14.1293 148.15 14.1293 149.557 14.1293C149.557 15.3556 149.557 16.5818 149.557 17.8081C148.15 17.8081 146.743 17.8081 145.337 17.8081C145.337 18.8771 145.337 19.9776 145.337 21.0781C146.962 21.0781 148.619 21.0781 150.245 21.0781C150.245 22.3358 150.245 23.5935 150.245 24.8827C147.025 24.8827 143.773 24.8827 140.553 24.8827C140.522 18.94 140.585 13.0288 140.522 7.08616ZM151.589 7.02328C153.621 7.02328 155.622 6.99184 157.654 7.02328C159.562 7.08617 161.594 7.55781 163.001 8.90984C164.282 10.1047 164.72 12.0855 164.22 13.752C163.813 15.104 162.813 16.2045 161.562 16.8019C162.813 19.4745 164.095 22.1472 165.377 24.8198C163.688 24.8198 162 24.8198 160.343 24.8198C159.03 22.0843 157.748 19.3488 156.404 16.6447C156.373 19.3802 156.404 22.1157 156.404 24.8198C154.809 24.8198 153.215 24.8198 151.621 24.8198C151.589 18.9086 151.589 12.9659 151.589 7.02328ZM156.373 10.4505C156.373 11.8654 156.373 13.2804 156.373 14.6953C157.248 14.6324 158.186 14.6009 158.905 14.0664C159.749 13.4376 159.655 12.1484 159.124 11.3309C158.467 10.5448 157.311 10.5448 156.373 10.4505ZM178.007 7.05473C181.227 7.05473 184.447 7.05473 187.668 7.05473C187.668 8.31243 187.668 9.60157 187.668 10.8593C186.042 10.8593 184.385 10.8593 182.759 10.8593C182.759 11.9598 182.759 13.0288 182.759 14.1293C184.166 14.1293 185.573 14.1293 186.98 14.1293C186.98 15.3556 186.98 16.5818 186.98 17.8081H182.759C182.759 18.9086 182.759 19.9776 182.759 21.0781C184.416 21.0781 186.042 21.0781 187.699 21.0781C187.699 22.3358 187.699 23.5935 187.699 24.8827C184.479 24.8827 181.227 24.8827 178.007 24.8827C177.976 18.9086 178.007 12.9659 178.007 7.05473Z" fill="black"></path>
  </g>
  <defs>
    <clipPath id="clip0_3425_109">
      <rect width="188" height="38" fill="white"></rect>
    </clipPath>
  </defs>
</svg>
