<?xml version="1.0" encoding="UTF-8"?>
<svg xmlns="http://www.w3.org/2000/svg" width="189" height="38" viewBox="0 0 189 38" fill="none">
  <g clip-path="url(#clip0_3425_137)">
    <path fill-rule="evenodd" clip-rule="evenodd" d="M116.164 21.0877C116.164 24.9419 113.499 28.1537 107.373 28.1537H94.9106L90.1497 22.2761H89.4347V23.7856C89.4347 26.8048 89.8084 27.3508 92.2133 27.3508V28.1537H83.6826V27.3508C86.0875 27.3508 86.4774 26.8048 86.4774 23.7856V18.3737C86.4774 15.3706 86.0875 14.8567 83.6826 14.8567V14.0537H91.2221C94.9918 14.0537 97.0067 15.8363 97.0067 18.1649C97.0067 20.0278 95.593 21.6819 92.9445 22.1476L94.9106 24.2513C96.633 26.1142 97.8679 27.0938 99.704 27.3508C102.109 27.3508 102.499 26.8048 102.499 23.7856V18.3737C102.499 15.3706 102.109 14.8567 99.704 14.8567V14.0537H107.373C113.499 14.0537 116.164 17.2334 116.164 21.0877ZM91.1896 20.9592C93.107 20.9592 93.9682 19.6423 93.9682 18.1649C93.9682 16.6393 93.107 15.3224 91.1896 15.3224H89.4347V20.9592H91.1896ZM112.768 21.0395C112.768 18.5503 111.956 15.3224 107.503 15.3224C107.341 15.3224 105.456 15.3224 105.456 15.3224V24.5083C105.456 26.4675 105.667 26.8369 107.211 26.8369H107.503C111.956 26.8369 112.768 23.625 112.768 21.0395Z" fill="#32373C"></path>
    <path d="M59.8288 22.517L62.7861 13.8771C63.6473 11.3879 63.2573 10.6652 60.5113 10.6652V9.81409H68.5707V10.6652C65.8734 10.6652 65.2234 11.3076 64.151 14.391L59.2763 28.8764H58.7076L54.3367 15.6275L49.8845 28.8764H49.332L44.5711 14.391C43.5474 11.3076 42.865 10.6652 40.3789 10.6652V9.81409H49.8845V10.6652C47.3659 10.6652 46.6835 11.2594 47.5772 13.8771L50.4532 22.517L54.7754 9.81409H55.5878L59.8288 22.517Z" fill="#32373C"></path>
    <path fill-rule="evenodd" clip-rule="evenodd" d="M74.3874 28.6998C69.6752 28.6998 65.8242 25.2792 65.8242 21.0877C65.8242 16.9284 69.6752 13.5078 74.3874 13.5078C79.0995 13.5078 82.9668 16.9284 82.9668 21.0877C82.9668 25.2792 79.0995 28.6998 74.3874 28.6998ZM74.3874 14.8246C70.4551 14.8246 69.074 18.3255 69.074 21.0877C69.074 23.882 70.4551 27.3508 74.3874 27.3508C78.3683 27.3508 79.7495 23.882 79.7495 21.0877C79.7495 18.3255 78.3683 14.8246 74.3874 14.8246Z" fill="#32373C"></path>
    <path fill-rule="evenodd" clip-rule="evenodd" d="M126.742 27.3026V28.1538H116.928V27.3026C119.804 27.3026 120.324 26.58 120.324 22.3564V15.5794C120.324 11.3397 119.804 10.6652 116.928 10.6652V9.81409H125.8C130.219 9.81409 132.657 12.0624 132.657 15.0655C132.657 17.9882 130.219 20.2847 125.8 20.2847H123.362V22.3564C123.362 26.58 123.866 27.3026 126.742 27.3026ZM125.8 11.3397H123.362V18.7109H125.8C128.204 18.7109 129.309 17.0568 129.309 15.0655C129.309 13.042 128.204 11.3397 125.8 11.3397Z" fill="#32373C"></path>
    <path fill-rule="evenodd" clip-rule="evenodd" d="M162.733 24.171L162.473 28.1537H144.859L140.114 22.2761H139.383V23.7856C139.383 26.8048 139.773 27.3508 142.162 27.3508V28.1537H133.631V27.3508C136.036 27.3508 136.426 26.8048 136.426 23.7856V18.3737C136.426 15.3706 136.036 14.8567 133.631 14.8567V14.0537H141.187C144.956 14.0537 146.955 15.8363 146.955 18.1649C146.955 20.0278 145.541 21.6819 142.893 22.1476L144.859 24.2513C146.549 26.0982 147.784 27.0617 149.587 27.3347C151.472 27.2384 151.797 26.5478 151.797 23.7856V18.3737C151.797 15.3706 151.423 14.8567 149.019 14.8567V14.0537H161.611L161.92 18.0364H161.221L161.01 17.2334C160.62 15.8363 160.149 15.3224 157.11 15.3224H154.754V20.0599C158.102 20.0599 158.362 19.7708 158.362 17.5707H159.174V23.882H158.362C158.362 21.6819 158.102 21.3767 154.754 21.3767V23.3199C154.754 26.339 155.144 26.8369 157.37 26.8369H157.972C161.01 26.8369 161.481 26.339 161.871 24.9419L162.083 24.171H162.733ZM141.138 20.9592C143.071 20.9592 143.933 19.6423 143.933 18.1649C143.933 16.6393 143.071 15.3224 141.138 15.3224H139.383V20.9592H141.138Z" fill="#32373C"></path>
    <path d="M170.777 28.6997C169.07 28.6997 167.576 27.8165 166.926 27.2705C166.714 27.4792 166.324 28.1056 166.243 28.6997H165.431V22.8542H166.276C166.633 25.6485 168.599 27.3026 171.118 27.3026C172.499 27.3026 173.604 26.5478 173.604 25.2791C173.604 24.171 172.629 23.3199 170.874 22.5169L168.42 21.3767C166.714 20.5738 165.431 19.1766 165.431 17.3137C165.431 15.2903 167.348 13.5398 170.013 13.5398C171.426 13.5398 172.629 14.0537 173.344 14.6479C173.571 14.4712 173.783 14.0055 173.913 13.5077H174.725V18.5021H173.815C173.523 16.5108 172.401 14.8567 170.143 14.8567C168.94 14.8567 167.819 15.5312 167.819 16.5911C167.819 17.6992 168.729 18.2933 170.777 19.2248L173.133 20.365C175.196 21.3446 176.009 22.9024 176.009 24.171C176.009 26.8369 173.653 28.6997 170.777 28.6997Z" fill="#32373C"></path>
    <path d="M183.727 28.6998C182.021 28.6998 180.526 27.8166 179.876 27.2705C179.665 27.4793 179.275 28.1056 179.193 28.6998H178.381V22.8542H179.242C179.583 25.6486 181.549 27.3027 184.084 27.3027C185.449 27.3027 186.554 26.5479 186.554 25.2792C186.554 24.1711 185.579 23.32 183.824 22.517L181.371 21.3768C179.665 20.5738 178.381 19.1767 178.381 17.3138C178.381 15.2903 180.314 13.5399 182.963 13.5399C184.377 13.5399 185.579 14.0538 186.31 14.648C186.522 14.4713 186.733 14.0056 186.863 13.5078H187.675V18.5022H186.782C186.473 16.5108 185.368 14.8567 183.093 14.8567C181.891 14.8567 180.786 15.5312 180.786 16.5911C180.786 17.6992 181.679 18.2934 183.727 19.2248L186.083 20.3651C188.146 21.3447 188.959 22.9024 188.959 24.1711C188.959 26.8369 186.603 28.6998 183.727 28.6998Z" fill="#32373C"></path>
    <path fill-rule="evenodd" clip-rule="evenodd" d="M38.4453 18.9679C38.4453 29.4867 29.8171 38.0141 19.1741 38.0141C8.53112 38.0141 -0.113281 29.4867 -0.113281 18.9679C-0.113281 8.44904 8.53112 -0.0944824 19.1741 -0.0944824C29.8171 -0.0944824 38.4453 8.44904 38.4453 18.9679ZM12.1221 2.45894C11.0497 2.9086 10.0098 3.47067 9.03483 4.11304C8.07615 4.75541 7.18246 5.49414 6.35377 6.2971C5.54132 7.11612 4.79388 7.99938 4.14392 8.94688C3.49397 9.91044 2.92526 10.9382 2.47029 11.9981C1.52785 14.1983 1.05664 16.5429 1.05664 18.9679C1.05664 21.3767 1.52785 23.7375 2.47029 25.9376C2.92526 26.9975 3.49397 28.0253 4.14392 28.9728C4.79388 29.9203 5.54132 30.8196 6.35377 31.6226C7.18246 32.4416 8.07615 33.1803 9.03483 33.8227C10.0098 34.465 11.0497 35.0271 12.1221 35.4768C14.3482 36.4082 16.7205 36.8739 19.1741 36.8739C21.6115 36.8739 24 36.4082 26.2261 35.4768C27.2986 35.0271 28.3385 34.465 29.2972 33.8227C30.2559 33.1803 31.1658 32.4416 31.9782 31.6226C32.8069 30.8196 33.5544 29.9203 34.2043 28.9728C34.8543 28.0253 35.423 26.9975 35.878 25.9376C36.8204 23.7375 37.2916 21.3767 37.2916 18.9679C37.2916 16.5429 36.8204 14.1983 35.878 11.9981C35.423 10.9382 34.8543 9.91044 34.2043 8.94688C33.5544 7.99938 32.8069 7.11612 31.9782 6.2971C31.1658 5.49414 30.2559 4.75541 29.2972 4.11304C28.3385 3.47067 27.2986 2.9086 26.2261 2.45894C24 1.5275 21.6115 1.06178 19.1741 1.06178C16.7205 1.06178 14.3482 1.5275 12.1221 2.45894Z" fill="#32373C"></path>
    <path d="M4.50092 12.496L12.1541 33.2606C6.80826 30.6751 3.10352 25.247 3.10352 18.9679C3.10352 16.6714 3.60723 14.4713 4.50092 12.496ZM28.8417 23.4002L27.1843 28.5874L21.3835 11.5164C22.3584 11.4682 23.2196 11.3718 23.2196 11.3718C24.0971 11.2755 23.9833 10.0068 23.1221 10.055C23.1221 10.055 20.5223 10.2638 18.8324 10.2638C17.2563 10.2638 14.6077 10.055 14.6077 10.055C13.7465 10.0068 13.649 11.3237 14.5102 11.3718C14.5102 11.3718 15.3227 11.4682 16.2001 11.5164L18.7024 18.2934L15.1764 28.7158L9.32683 11.5164C10.3018 11.4682 11.163 11.3718 11.163 11.3718C12.0404 11.2755 11.9267 10.0068 11.0655 10.055C11.0655 10.055 8.46564 10.2638 6.77576 10.2638C6.48328 10.2638 6.12581 10.2638 5.75208 10.2477C8.62813 5.92776 13.5515 3.08527 19.1736 3.08527C23.3496 3.08527 27.1681 4.67513 30.0279 7.26067C29.9467 7.24461 29.8817 7.24462 29.8167 7.24462C28.2405 7.24462 27.1193 8.60965 27.1193 10.055C27.1193 11.3718 27.883 12.4799 28.6955 13.7807C29.2967 14.8406 30.0116 16.2057 30.0116 18.1649C30.0116 19.5299 29.5892 21.1359 28.8417 23.4002ZM24.3895 33.7263C24.422 33.8013 24.4599 33.8762 24.5033 33.9512C22.8296 34.5293 21.0423 34.8505 19.1736 34.8505C17.5975 34.8505 16.0701 34.6096 14.6402 34.1921L19.4499 20.349L24.3895 33.7263ZM35.2438 18.9679C35.2438 24.8295 32.0265 29.9363 27.2493 32.6985L32.1565 18.6788C33.0664 16.4145 33.3752 14.5998 33.3752 12.9938C33.3752 12.3996 33.3427 11.8536 33.2777 11.3558C34.5288 13.6201 35.2438 16.2057 35.2438 18.9679Z" fill="#32373C"></path>
  </g>
  <defs>
    <clipPath id="clip0_3425_137">
      <rect width="189" height="38" fill="white"></rect>
    </clipPath>
  </defs>
</svg>
