<?xml version="1.0" encoding="UTF-8"?>
<svg xmlns="http://www.w3.org/2000/svg" width="90" height="90" viewBox="0 0 90 90" fill="none">
  <g clip-path="url(#clip0_3709_10)">
    <path d="M15.9375 0H74.0625C82.875 0 90 7.30769 90 16.3462V73.6538C90 82.6923 82.875 90 74.0625 90H15.9375C7.125 90 0 82.6923 0 73.6538V16.3462C0 7.30769 7.125 0 15.9375 0Z" fill="#330000"></path>
    <path d="M45.0161 56.7797H31.0661L28.2161 65.5234C28.1411 65.8583 27.8411 66.0815 27.5036 66.0443H20.4536C20.0411 66.0443 19.9286 65.8211 20.0411 65.3746L32.1161 30.8834C32.2286 30.5113 32.3411 30.102 32.4911 29.6555C32.6411 28.8742 32.7161 28.0556 32.7161 27.237C32.6786 27.051 32.8286 26.865 33.0161 26.8278H42.7286C43.0286 26.8278 43.1786 26.9394 43.2161 27.1254L56.9036 65.449C57.0161 65.8583 56.9036 66.0443 56.5286 66.0443H48.6911C48.4286 66.0815 48.1661 65.8955 48.0911 65.635L45.0161 56.7797ZM33.2411 49.2266H42.7661C42.5411 48.4452 42.2411 47.515 41.9036 46.5477C41.5661 45.5431 41.2286 44.464 40.8911 43.3478C40.5161 42.1944 40.1786 41.0782 39.8036 39.9247C39.4286 38.7713 39.0911 37.6923 38.7911 36.6133C38.4911 35.5715 38.2286 34.6041 37.9661 33.7111H37.8911C37.5536 35.311 37.1411 36.911 36.6161 38.5109C36.0536 40.2968 35.4911 42.1572 34.8911 44.0176C34.3661 45.9151 33.8036 47.6639 33.2411 49.2266ZM65.2661 33.339C64.0286 33.3763 62.8286 32.8926 61.9286 32.0368C61.0661 31.1066 60.6161 29.8788 60.6536 28.6137C60.6161 27.3487 61.1036 26.158 62.0036 25.3023C62.9036 24.4465 64.1036 24 65.3411 24C66.8036 24 67.9286 24.4465 68.7536 25.3023C69.5786 26.1952 70.0286 27.3859 69.9911 28.6137C70.0286 29.8788 69.5786 31.1066 68.6786 32.0368C67.8161 32.9298 66.5411 33.4135 65.2661 33.339ZM61.0661 65.635V36.9854C61.0661 36.6133 61.2161 36.4645 61.5536 36.4645H68.9786C69.3161 36.4645 69.4661 36.6505 69.4661 36.9854V65.635C69.4661 66.0443 69.3161 66.2303 68.9786 66.2303H61.6286C61.2536 66.2303 61.0661 66.0071 61.0661 65.635Z" fill="#FF9A00"></path>
  </g>
  <defs>
    <clipPath id="clip0_3709_10">
      <rect width="90" height="90" fill="white"></rect>
    </clipPath>
  </defs>
</svg>
