<?xml version="1.0" encoding="UTF-8"?>
<svg xmlns="http://www.w3.org/2000/svg" width="90" height="90" viewBox="0 0 90 90" fill="none">
  <g clip-path="url(#clip0_3709_13)">
    <path d="M15.9375 0H74.0625C82.875 0 90 7.30769 90 16.3462V73.6538C90 82.6923 82.875 90 74.0625 90H15.9375C7.125 90 0 82.6923 0 73.6538V16.3462C0 7.30769 7.125 0 15.9375 0Z" fill="#49021F"></path>
    <path d="M32.3625 26.7183V65.3433C32.3625 65.7558 32.175 65.9433 31.8375 65.9433H24.4875C24.15 65.9433 24 65.7558 24 65.3433V26.7183C24 26.3808 24.1875 26.2308 24.525 26.2308H31.8375C32.0625 26.1933 32.2875 26.3433 32.325 26.6058C32.3625 26.6433 32.3625 26.6808 32.3625 26.7183Z" fill="#FF3366"></path>
    <path d="M54.0375 66.3933C51.2625 66.4308 48.4875 65.8683 45.975 64.7058C43.6125 63.6183 41.6625 61.8183 40.3125 59.6058C38.925 57.3183 38.25 54.4683 38.25 51.0558C38.2125 48.2808 38.925 45.5433 40.3125 43.1433C41.7375 40.7058 43.8 38.6808 46.275 37.3308C48.9 35.8683 52.05 35.1558 55.7625 35.1558C55.95 35.1558 56.2125 35.1558 56.55 35.1933C56.8875 35.2308 57.2625 35.2308 57.7125 35.2683V23.4183C57.7125 23.1558 57.825 23.0058 58.0875 23.0058H65.7C65.8875 22.9683 66.0375 23.1183 66.075 23.2683V23.3433V59.0433C66.075 59.7183 66.1125 60.4683 66.15 61.2933C66.225 62.0808 66.2625 62.8308 66.3 63.4683C66.3 63.7308 66.1875 63.9558 65.925 64.0683C63.975 64.8933 61.9125 65.4933 59.8125 65.8683C57.9375 66.2058 55.9875 66.3933 54.0375 66.3933ZM57.7125 58.8933V42.3933C57.375 42.3183 57.0375 42.2433 56.7 42.2058C56.2875 42.1683 55.875 42.1308 55.4625 42.1308C54 42.1308 52.5375 42.4308 51.225 43.1058C49.95 43.7433 48.8625 44.6808 48.0375 45.8808C47.2125 47.0808 46.8 48.6933 46.8 50.6433C46.7625 51.9558 46.9875 53.2683 47.4375 54.5058C47.8125 55.5183 48.375 56.4183 49.125 57.1683C49.8375 57.8433 50.7 58.3683 51.675 58.6683C52.6875 59.0058 53.7375 59.1558 54.7875 59.1558C55.35 59.1558 55.875 59.1183 56.3625 59.0808C56.85 59.1183 57.3 59.0433 57.7125 58.8933Z" fill="#FF3366"></path>
  </g>
  <defs>
    <clipPath id="clip0_3709_13">
      <rect width="90" height="90" fill="white"></rect>
    </clipPath>
  </defs>
</svg>
