<?xml version="1.0" encoding="UTF-8"?>
<svg xmlns="http://www.w3.org/2000/svg" width="62" height="88" viewBox="0 0 62 88" fill="none">
  <g clip-path="url(#clip0_3425_163)">
    <path d="M62 17.2941L56.3516 80.922L30.962 88L5.64238 80.932L0 17.2941H62Z" fill="#264DE4"></path>
    <path d="M51.516 76.8704L56.3429 22.4974H31V82.5899L51.516 76.8704Z" fill="#2965F1"></path>
    <path d="M12.9346 46.0998L13.6302 53.9046H30.9995V46.0998H12.9346Z" fill="#EBEBEB"></path>
    <path d="M30.9999 30.3024H30.9731H11.5371L12.2427 38.1074H30.9999V30.3024Z" fill="#EBEBEB"></path>
    <path d="M31 74.4905V66.3701L30.966 66.3792L22.3217 64.032L21.7691 57.8073H17.5687H13.9775L15.065 70.0621L30.9643 74.5004L31 74.4905Z" fill="#EBEBEB"></path>
    <path d="M14.5908 0H23.9916V3.95313H18.5221V7.90625H23.9916V11.8594H14.5908V0Z" fill="black"></path>
    <path d="M25.8721 0H35.2729V3.4375H29.8033V4.125H35.2729V12.0312H25.8721V8.42188H31.3416V7.73438H25.8721V0Z" fill="black"></path>
    <path d="M37.1533 0H46.5541V3.4375H41.0846V4.125H46.5541V12.0312H37.1533V8.42188H42.6229V7.73438H37.1533V0Z" fill="black"></path>
    <path d="M40.5304 53.9047L39.6294 64.0271L30.9727 66.3766V74.4967L46.8847 70.0621L47.0014 68.7435L48.8253 48.1957L49.0147 46.0998L50.416 30.3024H30.9727V38.1074H41.9097L41.2035 46.0998H30.9727V53.9047H40.5304Z" fill="white"></path>
  </g>
  <defs>
    <clipPath id="clip0_3425_163">
      <rect width="62" height="88" fill="white"></rect>
    </clipPath>
  </defs>
</svg>
