<?xml version="1.0" encoding="UTF-8"?>
<svg xmlns="http://www.w3.org/2000/svg" width="160" height="36" viewBox="0 0 160 36" fill="none">
  <path d="M44.3955 1.45565H51.7749L51.7749 16.302L65.3838 1.45565H74.2967L60.6401 15.8653L74.9196 35.418L66.0548 35.418L55.6564 20.96L51.7749 25.0353L51.7749 35.418H44.3955L44.3955 1.45465V1.45565Z" fill="#231F20"></path>
  <path d="M70.9961 22.5607V22.464C70.9961 14.9923 76.9382 8.92731 84.9405 8.92731C92.895 8.92731 98.789 14.895 98.789 22.3666V22.4637C98.789 29.9354 92.847 35.9997 84.8447 35.9997C76.8901 35.9997 70.9961 30.0321 70.9961 22.5604V22.5607ZM91.6012 22.5607V22.464C91.6012 18.631 88.8699 15.2833 84.8447 15.2833C80.6758 15.2833 78.1839 18.5339 78.1839 22.367V22.4641C78.1839 26.2967 80.9152 29.6444 84.9405 29.6444C89.1094 29.6444 91.6012 26.3938 91.6012 22.5607V22.5607Z" fill="#231F20"></path>
  <path d="M100.8 28.0434V15.72H97.7334V9.41269H100.8L100.8 2.76569H108.084V9.41269H114.121V15.72H108.084V26.8307C108.084 28.5285 108.802 29.3536 110.432 29.3536C111.774 29.3536 112.972 29.014 114.026 28.4314V34.3508C112.492 35.2726 110.719 35.8548 108.275 35.8548C103.819 35.8548 100.8 34.0595 100.8 28.0434L100.8 28.0434Z" fill="#231F20"></path>
  <path d="M116.215 0H123.498L123.498 35.4167H116.215L116.215 0H116.215Z" fill="#231F20"></path>
  <path d="M126.131 0H133.798V6.55H126.131L126.131 0H126.131ZM126.323 9.41233H133.606L133.606 35.4177L126.323 35.4177L126.323 9.41233V9.41233Z" fill="#231F20"></path>
  <path d="M136.376 9.41231H143.66V13.0996C145.337 10.9163 147.493 8.92731 151.183 8.92731C156.694 8.92731 159.904 12.6146 159.904 18.5823V35.4176L152.621 35.4176V20.911C152.621 17.418 150.991 15.6226 148.212 15.6226C145.433 15.6226 143.66 17.4179 143.66 20.911L143.66 35.4176H136.376L136.376 9.4123L136.376 9.41231Z" fill="#231F20"></path>
  <path d="M16.8927 1.43854L0.0546875 19.3673V35.3933L16.8686 18.341L33.5932 1.43854H16.8927Z" fill="url(#paint0_linear_3425_215)"></path>
  <path d="M0.0546875 35.3933L16.8686 18.341L33.5932 35.3933H0.0546875Z" fill="url(#paint1_linear_3425_215)"></path>
  <path d="M0.0546875 1.43854H16.893L0.0546875 19.3673V1.43854Z" fill="url(#paint2_linear_3425_215)"></path>
  <defs>
    <linearGradient id="paint0_linear_3425_215" x1="-3.74636" y1="30.7897" x2="23.4785" y2="3.90055" gradientUnits="userSpaceOnUse">
      <stop offset="0.10753" stop-color="#C757BC"></stop>
      <stop offset="0.21383" stop-color="#D0609A"></stop>
      <stop offset="0.42537" stop-color="#E1725C"></stop>
      <stop offset="0.60485" stop-color="#EE7E2F"></stop>
      <stop offset="0.74303" stop-color="#F58613"></stop>
      <stop offset="0.82323" stop-color="#F88909"></stop>
    </linearGradient>
    <linearGradient id="paint1_linear_3425_215" x1="11.8833" y1="40.3833" x2="26.2255" y2="26.2168" gradientUnits="userSpaceOnUse">
      <stop offset="0.09677" stop-color="#0095D5"></stop>
      <stop offset="0.30073" stop-color="#238AD9"></stop>
      <stop offset="0.62106" stop-color="#557BDE"></stop>
      <stop offset="0.86432" stop-color="#7472E2"></stop>
      <stop offset="1" stop-color="#806EE3"></stop>
    </linearGradient>
    <linearGradient id="paint2_linear_3425_215" x1="-1.48352" y1="11.9603" x2="11.0524" y2="-0.420832" gradientUnits="userSpaceOnUse">
      <stop offset="0.09677" stop-color="#0095D5"></stop>
      <stop offset="0.30073" stop-color="#238AD9"></stop>
      <stop offset="0.62106" stop-color="#557BDE"></stop>
      <stop offset="0.86432" stop-color="#7472E2"></stop>
      <stop offset="1" stop-color="#806EE3"></stop>
    </linearGradient>
  </defs>
</svg>
