<?xml version="1.0" encoding="UTF-8"?>
<svg xmlns="http://www.w3.org/2000/svg" width="44" height="44" viewBox="0 0 44 44" fill="none">
  <path fill-rule="evenodd" clip-rule="evenodd" d="M19.9326 0.0931736C18.2248 0.256222 16.0456 0.74803 14.4638 1.32742C13.3993 1.71729 11.2378 2.76872 10.3729 3.31752C7.6075 5.07185 5.04049 7.63343 3.27555 10.3998C2.57372 11.4999 1.53489 13.7186 1.08222 15.0841C0.654877 16.3734 0.315548 17.8402 0.108075 19.2957C-0.0361828 20.3084 -0.0360105 23.7003 0.108506 24.7106C0.850896 29.9026 3.05283 34.2752 6.69244 37.7853C8.45014 39.4805 10.145 40.6708 12.3107 41.731C13.9152 42.5165 14.9476 42.8973 16.6113 43.3173C21.7021 44.6025 26.9278 44.0652 31.6314 41.7727C33.9119 40.6612 35.6678 39.4 37.5498 37.5219C39.4478 35.6276 40.638 33.9766 41.766 31.6726C42.5653 30.0404 42.9523 28.9968 43.3603 27.375C43.8763 25.3239 43.9971 24.3168 43.9999 22.0461C44.0024 20.0412 43.9363 19.3012 43.6079 17.6626C42.4713 11.9909 39.0377 6.92211 34.1001 3.6266C32.9637 2.86817 30.7371 1.75348 29.4527 1.30009C26.3844 0.21677 23.0565 -0.205074 19.9326 0.0931736ZM24.6264 2.27906C28.5018 2.80689 31.961 4.35477 34.9952 6.91884C35.5993 7.4293 35.6035 7.43583 35.4137 7.56347C33.9409 8.55379 33.1727 9.54359 32.7082 11.0493C32.4787 11.7931 32.4963 13.5063 32.7411 14.2453C32.8389 14.5402 33.6946 16.2806 34.6428 18.113C35.591 19.9453 36.4363 21.6765 36.5212 21.9602C36.7062 22.5782 36.717 24.0116 36.5408 24.5425C36.375 25.0417 33.2473 32.2275 33.1958 32.2275C33.1655 32.2274 27.678 16.9779 26.153 12.656C26.124 12.5738 26.3695 12.5486 27.2009 12.5486H28.2867V11.5172V10.4858H21.4829H14.6791V11.5172V12.5486H15.6077H16.5362L18.9202 19.2004L21.3043 25.8522L19.6109 29.7395L17.9174 33.6267L17.7726 33.2083C17.6159 32.7554 10.4946 12.9133 10.4074 12.6863C10.3605 12.5645 10.4798 12.5486 11.4402 12.5486H12.526V11.5172V10.4858H9.16713C7.31976 10.4858 5.80829 10.4564 5.80829 10.4204C5.80829 10.3844 6.08853 10.0073 6.43114 9.58236C9.9282 5.24401 14.9861 2.57817 20.5355 2.14833C21.6398 2.06281 23.4676 2.12126 24.6264 2.27906ZM37.619 9.63573C38.6431 10.9174 39.656 12.606 40.291 14.0903L40.7049 15.0577L39.5129 17.7999C38.4625 20.2161 38.191 20.7633 38.191 20.4633C38.191 20.42 37.4578 18.9745 36.5617 17.2512C35.6657 15.5278 34.8715 13.9382 34.7968 13.7188C34.5743 13.0647 34.5433 12.4798 34.6966 11.8263C34.8735 11.0721 35.1726 10.5247 35.6798 10.0272C36.0495 9.66453 36.9119 9.11487 37.1144 9.11281C37.1618 9.11238 37.3889 9.34771 37.619 9.63573ZM12.4059 24.4527C14.7485 30.9764 16.6507 36.3912 16.6331 36.4858C16.5707 36.8193 14.8938 40.5683 14.8085 40.5648C14.761 40.5628 14.2764 40.3588 13.7317 40.1113L12.7413 39.6616L8.37349 27.5017C5.97123 20.8139 3.92225 15.0901 3.82011 14.7824L3.6346 14.2228L4.02732 13.384L4.42014 12.5452L6.28335 12.5684L8.14664 12.5916L12.4059 24.4527ZM24.0054 12.9139C24.0755 13.1148 25.8277 17.9979 27.8991 23.7651C29.9706 29.5324 31.7334 34.4455 31.8165 34.6831L31.9675 35.1151L30.8282 37.7343L29.6889 40.3536L29.2904 40.5194C29.0711 40.6106 28.8773 40.6687 28.8596 40.6484C28.8224 40.6057 18.892 12.9261 18.8324 12.699C18.7955 12.5583 18.9564 12.5486 21.3355 12.5486H23.8782L24.0054 12.9139ZM6.19464 27.6342C8.15973 33.1106 9.75001 37.6088 9.72857 37.6301C9.65011 37.7084 7.93598 36.1482 7.22554 35.3518C4.39378 32.1777 2.74468 28.5701 2.18453 24.3238C2.03648 23.2021 2.05655 20.5435 2.22147 19.4246C2.37512 18.3818 2.53703 17.5925 2.58707 17.6424C2.60619 17.6614 4.22954 22.1578 6.19464 27.6342ZM41.7707 19.383C41.9473 20.6256 41.9696 23.144 41.8144 24.3238C41.2143 28.8867 39.2613 32.8852 36.083 36.0585C34.9307 37.2089 32.4764 39.1263 32.703 38.699C32.7218 38.6635 34.7273 34.0616 37.1596 28.4726C39.5918 22.8835 41.5915 18.3202 41.6031 18.3319C41.6148 18.3435 41.6903 18.8165 41.7707 19.383ZM24.6256 35.095C25.8433 38.4901 26.8233 41.284 26.8035 41.3037C26.7412 41.366 25.176 41.665 24.325 41.7772C23.3043 41.9118 20.6488 41.913 19.6743 41.7793C18.7283 41.6494 17.1402 41.3398 17.0107 41.2599C16.9411 41.217 17.7421 39.2855 19.6055 35.0024C21.0881 31.5948 22.326 28.8328 22.3565 28.8645C22.387 28.8962 23.4081 31.7 24.6256 35.095Z" fill="white"></path>
</svg>
