<?xml version="1.0" encoding="UTF-8"?>
<svg xmlns="http://www.w3.org/2000/svg" width="201" height="52" viewBox="0 0 201 52" fill="none">
  <path d="M51.6719 37.3237V16.6172H54.3403L67.0241 33.3037V16.6172H69.5539V37.3237H66.8682L54.2017 20.4986V37.3237H51.6719Z" fill="#CCCCCC"></path>
  <path d="M90.1049 36.5093C88.4415 37.1447 86.6394 37.4624 84.6987 37.4624C77.2017 37.4624 73.4531 33.8698 73.4531 26.6846C73.4531 19.8806 77.0746 16.4786 84.3175 16.4786C86.3968 16.4786 88.326 16.7674 90.1049 17.345V19.6669C88.326 18.9854 86.495 18.6446 84.6121 18.6446C78.9633 18.6446 76.1389 21.3246 76.1389 26.6846C76.1389 32.4258 78.9171 35.2964 84.4735 35.2964C85.363 35.2964 86.3506 35.1809 87.4365 34.9499V27.9148H90.1049V36.5093Z" fill="#CCCCCC"></path>
  <path d="M94.3838 29.3356V16.6172H97.0522V29.3356C97.0522 33.3094 99.0334 35.2963 102.996 35.2963C106.946 35.2963 108.922 33.3094 108.922 29.3356V16.6172H111.607V29.3356C111.607 34.7649 108.737 37.4738 102.996 37.4623C97.2544 37.4738 94.3838 34.7649 94.3838 29.3356Z" fill="#CCCCCC"></path>
  <path d="M119.059 16.6172V35.1577H129.889V37.3237H116.391V16.6172H119.059Z" fill="#CCCCCC"></path>
  <path d="M133.753 37.3236H130.98L141.273 13.8967L151.566 37.3236H148.603L145.917 30.8084H139.072L139.8 28.6425H145.016L141.152 19.2509L133.753 37.3236Z" fill="#CCCCCC"></path>
  <path d="M154.39 37.3237V16.6172H163.209C167.149 16.6172 169.118 18.2749 169.118 21.5902C169.118 24.2818 167.195 26.2744 163.348 27.5682L170.452 37.3237H166.917L160.333 28.0187V26.2687C164.295 25.6333 166.276 24.1143 166.276 21.7115C166.276 19.7939 165.173 18.8351 162.967 18.8351H157.058V37.3237H154.39Z" fill="#CCCCCC"></path>
  <path d="M180.485 16.6172V31.363C180.485 35.3368 178.146 37.3237 173.468 37.3237V35.1577C176.367 35.1577 177.817 33.8928 177.817 31.363V16.6172H180.485Z" fill="#CCCCCC"></path>
  <path d="M185.267 36.596V34.1355C187.439 34.9094 189.784 35.2964 192.302 35.2964C195.86 35.2964 197.639 33.9911 197.639 31.3804C197.639 29.1624 196.328 28.0535 193.705 28.0535H191.037C186.705 28.0535 184.539 26.1705 184.539 22.4047C184.539 18.454 187.317 16.4786 192.874 16.4786C195.288 16.4786 197.529 16.7674 199.597 17.345V19.8055C197.529 19.0316 195.288 18.6446 192.874 18.6446C189.108 18.6446 187.225 19.9037 187.225 22.422C187.225 24.6399 188.496 25.7489 191.037 25.7489H193.705C198.118 25.7489 200.324 27.6261 200.324 31.3804C200.324 35.435 197.65 37.4624 192.302 37.4624C189.784 37.4624 187.439 37.1736 185.267 36.596Z" fill="#CCCCCC"></path>
  <path d="M52.3477 36.6479V15.9414H55.0161L67.6999 32.6279V15.9414H70.2297V36.6479H67.5439L54.8775 19.8228V36.6479H52.3477Z" fill="black"></path>
  <path d="M90.7797 35.8334C89.1163 36.4688 87.32 36.7864 85.3909 36.7864C77.8822 36.7864 74.1279 33.1938 74.1279 26.0087C74.1279 19.2047 77.7494 15.8027 84.9923 15.8027C87.0716 15.8027 89.0008 16.0915 90.7797 16.6691V18.991C89.0008 18.3095 87.1698 17.9687 85.2869 17.9687C79.6381 17.9687 76.8137 20.6487 76.8137 26.0087C76.8137 31.7499 79.5919 34.6205 85.1483 34.6205C86.0378 34.6205 87.0254 34.505 88.1113 34.2739V27.2389H90.7797V35.8334Z" fill="black"></path>
  <path d="M95.0605 28.6598V15.9414H97.729V28.6598C97.729 32.6336 99.7101 34.6205 103.672 34.6205C107.623 34.6205 109.598 32.6336 109.598 28.6598V15.9414H112.284V28.6598C112.284 34.0776 109.414 36.7865 103.672 36.7865C97.9312 36.7865 95.0605 34.0776 95.0605 28.6598Z" fill="black"></path>
  <path d="M119.735 15.9414V34.4819H130.565V36.6479H117.066V15.9414H119.735Z" fill="black"></path>
  <path d="M134.429 36.6478H131.656L141.949 13.2209L152.241 36.6478H149.278L146.593 30.1327H139.748L140.493 27.9667H145.692L141.828 18.5752L134.429 36.6478Z" fill="black"></path>
  <path d="M155.065 36.6479V15.9414H163.885C167.824 15.9414 169.794 17.5991 169.794 20.9144C169.794 23.606 167.871 25.5986 164.024 26.8924L171.128 36.6479H167.593L161.009 27.343V25.5929C164.971 24.9575 166.952 23.4327 166.952 21.0184C166.952 19.1124 165.849 18.1593 163.643 18.1593H157.734V36.6479H155.065Z" fill="black"></path>
  <path d="M181.161 15.9414V30.6872C181.161 34.661 178.822 36.6479 174.144 36.6479V34.4819C177.043 34.4819 178.493 33.217 178.493 30.6872V15.9414H181.161Z" fill="#A6120D"></path>
  <path d="M185.944 35.9201V33.4595C188.115 34.2335 190.46 34.6205 192.979 34.6205C196.536 34.6205 198.315 33.3151 198.315 30.7045C198.315 28.4865 197.004 27.3776 194.382 27.3776H191.714C187.382 27.3776 185.216 25.4946 185.216 21.7288C185.216 17.7781 187.994 15.8027 193.55 15.8027C195.965 15.8027 198.206 16.0915 200.273 16.6691V19.1296C198.206 18.3557 195.965 17.9687 193.55 17.9687C189.785 17.9687 187.902 19.222 187.902 21.7288C187.902 23.9582 189.172 25.073 191.714 25.073H194.382C198.795 25.073 201.001 26.9501 201.001 30.7045C201.001 34.7591 198.327 36.7864 192.979 36.7864C190.46 36.7864 188.115 36.4976 185.944 35.9201Z" fill="#A6120D"></path>
  <path d="M48.5172 8.35189L44.6878 40.044L24.2066 51.3936L3.8294 40.1827L0 8.50784L24.172 0L48.5172 8.35189Z" fill="#B3B3B3"></path>
  <path d="M42.5393 38.5192L24.1201 48.7079V2.70312L46.1088 10.1886L42.5393 38.5192Z" fill="#A6120D"></path>
  <path d="M24.1203 2.70312V48.7079L5.99562 38.6579L2.7207 10.3273L24.1203 2.70312Z" fill="#DD1B16"></path>
  <path fill-rule="evenodd" clip-rule="evenodd" d="M30.167 27.187L24.1197 30.0287H17.7432L14.7455 37.5143L9.16602 37.6182L24.1197 4.36658L30.167 27.187ZM29.5779 25.7662L24.1544 15.023L19.7185 25.5755H24.1197L29.5779 25.7662Z" fill="#F2F2F2"></path>
  <path d="M39.7669 37.7222L34.43 37.6182L31.1378 30.0287L24.1201 30.0114L24.1374 25.5929H29.2144L24.1548 15.023L24.1201 4.36658L39.7669 37.7222Z" fill="#B3B3B3"></path>
</svg>
