<?xml version="1.0" encoding="UTF-8"?>
<svg xmlns="http://www.w3.org/2000/svg" width="152" height="41" viewBox="0 0 152 41" fill="none">
  <path d="M22.751 37.4688C22.751 37.7006 22.6273 37.9016 22.4419 38.0098C22.2564 38.118 22.0245 38.118 21.8391 38.0098L15.7959 34.5477C15.4095 34.3158 15.1776 33.914 15.1776 33.4812V26.1242C15.1776 25.6915 14.9458 25.2742 14.5594 25.0578L11.9937 23.574C11.8083 23.4658 11.5919 23.4195 11.3909 23.4195C11.1746 23.4195 10.9582 23.4658 10.7727 23.574L8.19159 25.0578C7.82065 25.2742 7.58881 25.6915 7.58881 26.1242V33.4812C7.58881 33.914 7.35697 34.3158 6.97058 34.5477L0.92735 38.0098C0.74188 38.118 0.510042 38.118 0.324572 38.0098C0.123647 37.9016 0.0154559 37.7006 0.0154559 37.4688L0 21.7193C0 21.2866 0.231837 20.8847 0.602777 20.6529L10.7727 14.8106C10.9427 14.7178 11.1436 14.656 11.3291 14.656C11.3446 14.656 11.4219 14.656 11.4373 14.656C11.6382 14.656 11.8237 14.7178 11.9937 14.8106L22.1637 20.6529C22.5346 20.8847 22.7664 21.2866 22.7664 21.7193L22.751 37.4688Z" fill="#333333"></path>
  <path fill-rule="evenodd" clip-rule="evenodd" d="M83.0904 3.45051C83.4768 3.66689 83.7086 4.0842 83.7086 4.53242V33.7903C83.7086 34.2231 83.4768 34.6249 83.1059 34.8413L72.9359 40.7145C72.5495 40.9309 72.0859 40.9309 71.6995 40.7145L61.545 34.8413C61.1586 34.6249 60.9268 34.2231 60.9268 33.7903V22.0439C60.9268 21.6111 61.1586 21.2093 61.545 20.9774L71.7149 15.1197C72.0859 14.9033 72.5495 14.9033 72.9359 15.1197L75.4861 16.588C75.6098 16.6652 75.7798 16.6652 75.9035 16.588C76.0426 16.5107 76.1198 16.3561 76.1198 16.217V0.60664C76.1198 0.390259 76.2435 0.189334 76.429 0.0811431C76.6144 -0.0270477 76.8463 -0.0270477 77.0317 0.0811431L83.0904 3.45051ZM76.1044 25.8924C76.1044 25.7842 76.0426 25.676 75.9498 25.6296L72.4568 23.6049C72.3641 23.5585 72.2404 23.5585 72.1477 23.6049L68.6547 25.6296C68.5619 25.676 68.5001 25.7842 68.5001 25.8924V29.9263C68.5001 30.0345 68.5619 30.1273 68.6547 30.1891L72.1477 32.1983C72.2404 32.2447 72.3641 32.2447 72.4568 32.1983L75.9498 30.1891C76.0426 30.1273 76.1044 30.0345 76.1044 29.9263V25.8924Z" fill="#333333"></path>
  <path d="M107.326 29.3235C107.125 29.4317 106.893 29.4472 106.707 29.3235C106.522 29.2153 106.398 29.0144 106.398 28.798V25.9078C106.398 25.6914 106.29 25.475 106.089 25.3668L102.905 23.543C102.72 23.4348 102.488 23.4348 102.302 23.543L99.1185 25.3668C98.9176 25.475 98.8094 25.6914 98.8094 25.9078V29.5863C98.8094 29.8026 98.9176 30.0036 99.1185 30.1118L109.335 35.985C109.536 36.0932 109.644 36.2941 109.644 36.5259C109.644 36.7423 109.52 36.9432 109.335 37.0514L103.23 40.4517C102.843 40.6526 102.395 40.6526 102.024 40.4362L91.9161 34.6867C91.5451 34.4703 91.2979 34.0684 91.2979 33.6202V21.8893C91.2979 21.441 91.5297 21.0392 91.9161 20.8228L102.071 14.9496C102.457 14.7332 102.921 14.7332 103.307 14.965L113.415 20.8228C113.786 21.0392 114.018 21.441 114.018 21.8893V24.7331C114.018 25.1659 113.786 25.5677 113.415 25.7841L107.326 29.3235Z" fill="#333333"></path>
  <path d="M41.2512 14.8878C41.6376 14.6714 42.1013 14.6714 42.4877 14.8878L52.6576 20.761C53.0286 20.9773 53.2604 21.3792 53.2604 21.8274V33.5584C53.2604 34.0066 53.0286 34.4085 52.6576 34.6248L42.4877 40.4981C42.1013 40.7144 41.6376 40.7144 41.2512 40.4981L31.0967 34.6248C30.7104 34.4085 30.4785 34.0066 30.4785 33.5584V21.8274C30.4785 21.3792 30.7104 20.9773 31.0967 20.761L41.2512 14.8878Z" fill="#80BD01"></path>
  <path d="M133.152 40.6681C132.797 40.6681 132.441 40.5754 132.148 40.4054L128.933 38.5043C128.469 38.2416 128.701 38.1488 128.856 38.087C129.489 37.8706 129.613 37.8088 130.293 37.4224C130.37 37.3915 130.463 37.407 130.54 37.4533L132.998 38.9062C133.09 38.9525 133.214 38.9525 133.291 38.9062L142.874 33.373C142.967 33.3266 143.029 33.2184 143.029 33.1102V22.0593C143.029 21.9511 142.967 21.8429 142.874 21.7966L133.291 16.2634C133.214 16.217 133.09 16.217 132.998 16.2634L123.415 21.7966C123.322 21.8429 123.276 21.9511 123.276 22.0593V33.1102C123.276 33.2184 123.322 33.3266 123.415 33.373L126.043 34.8877C127.465 35.5986 128.345 34.764 128.345 33.9139V23.0021C128.345 22.8476 128.469 22.7239 128.624 22.7239H129.845C129.984 22.7239 130.123 22.8476 130.123 23.0021V33.9139C130.123 35.815 129.087 36.9124 127.279 36.9124C126.723 36.9124 126.29 36.9124 125.069 36.3096L122.55 34.8567C121.931 34.5013 121.545 33.8367 121.545 33.1102V22.0593C121.545 21.3329 121.931 20.6683 122.55 20.3128L132.148 14.7642C132.75 14.4241 133.554 14.4241 134.157 14.7642L143.739 20.3128C144.358 20.6683 144.744 21.3329 144.744 22.0593V33.1102C144.744 33.8367 144.358 34.5013 143.739 34.8567L134.157 40.4054C133.848 40.5754 133.508 40.6681 133.152 40.6681V40.6681Z" fill="#80BD01"></path>
  <path d="M136.105 33.0484C131.916 33.0484 131.035 31.1165 131.035 29.5091C131.035 29.3545 131.159 29.2309 131.313 29.2309H132.55C132.689 29.2309 132.797 29.3236 132.828 29.4627C133.013 30.7301 133.57 31.3638 136.105 31.3638C138.129 31.3638 138.979 30.9001 138.979 29.8336C138.979 29.2154 138.748 28.7517 135.61 28.4581C132.983 28.1953 131.36 27.608 131.36 25.5215C131.36 23.574 132.983 22.4303 135.718 22.4303C138.794 22.4303 140.309 23.4967 140.51 25.7842C140.51 25.8615 140.479 25.9388 140.432 26.0006C140.386 26.047 140.309 26.0779 140.231 26.0779H138.979C138.856 26.0779 138.748 25.9851 138.717 25.8615C138.423 24.5323 137.697 24.115 135.718 24.115C133.524 24.115 133.261 24.8878 133.261 25.4596C133.261 26.1552 133.57 26.3561 136.537 26.7579C139.489 27.1443 140.881 27.6853 140.881 29.7564C140.881 31.8429 139.149 33.0484 136.105 33.0484V33.0484Z" fill="#80BD01"></path>
  <path d="M102.549 25.2431C102.61 25.1968 102.703 25.1968 102.78 25.2431L104.728 26.3714C104.805 26.4023 104.852 26.4796 104.852 26.5724V28.8289C104.852 28.9062 104.805 28.9835 104.728 29.0298L102.78 30.1581C102.703 30.189 102.61 30.189 102.549 30.1581L100.586 29.0298C100.524 28.9835 100.478 28.9062 100.478 28.8289V26.5724C100.478 26.4796 100.524 26.4023 100.586 26.3714L102.549 25.2431Z" fill="#80BD01"></path>
  <path fill-rule="evenodd" clip-rule="evenodd" d="M151.376 17.7626C151.376 18.7827 150.556 19.6173 149.536 19.6173C148.532 19.6173 147.682 18.7981 147.682 17.7626C147.682 16.7116 148.547 15.9233 149.536 15.9233C150.526 15.9233 151.376 16.7116 151.376 17.7626ZM147.991 17.7626C147.991 18.6127 148.686 19.3082 149.536 19.3082C150.386 19.3082 151.082 18.6127 151.082 17.7626C151.082 16.8971 150.386 16.217 149.536 16.217C148.686 16.217 147.991 16.8971 147.991 17.7626ZM148.841 16.727H149.552C149.799 16.727 150.278 16.727 150.278 17.2835C150.278 17.6544 150.031 17.7317 149.892 17.778C150.17 17.809 150.185 17.9944 150.232 18.2572C150.247 18.4272 150.278 18.7054 150.34 18.7981H149.892C149.892 18.7054 149.815 18.1799 149.815 18.149C149.784 18.0253 149.753 17.9635 149.598 17.9635H149.243V18.7981H148.841V16.727ZM149.227 17.6389H149.552C149.815 17.6389 149.861 17.4535 149.861 17.3453C149.861 17.0671 149.675 17.0671 149.567 17.0671H149.227V17.6389Z" fill="#80BD01"></path>
</svg>
