<?xml version="1.0" encoding="UTF-8"?>
<svg xmlns="http://www.w3.org/2000/svg" width="44" height="44" viewBox="0 0 44 44" fill="none">
  <path fill-rule="evenodd" clip-rule="evenodd" d="M3.77273 13.1914V26.3828H2.52607H1.2794L1.28026 16.6074L1.28112 6.83203L1.48291 6.39882C1.66759 6.0023 1.96094 5.68416 2.35394 5.45402C2.49752 5.36998 2.49512 5.33577 2.31001 4.8284C2.20228 4.53312 2.07993 4.27049 2.03815 4.24463C1.90377 4.16161 1.22524 4.62301 0.821149 5.07229C0.605348 5.31205 0.339766 5.72877 0.230833 5.99827L0.0327432 6.48828L0.0101314 19.0286C-0.0145439 32.7127 -0.0347484 32.1009 0.470279 32.9624C0.914348 33.7197 1.80421 34.3151 2.71496 34.4642C2.99636 34.5103 5.84752 34.5461 9.25374 34.5464L15.2936 34.5469V36.9102V39.2734H14.1482C12.8048 39.2734 12.394 39.3806 11.8283 39.8782C11.1788 40.4496 11.0506 40.8708 11.0111 42.5605L10.9774 44H21.9998H33.0222L32.9885 42.5605C32.949 40.8708 32.8207 40.4496 32.1713 39.8782C31.6056 39.3806 31.1947 39.2734 29.8513 39.2734H28.706V36.9102V34.5469L34.7458 34.5464C38.1521 34.5461 41.0032 34.5103 41.2846 34.4642C42.1954 34.3151 43.0852 33.7197 43.5293 32.9624C44.035 32.0998 44.0147 32.7129 43.9897 19.0276L43.9668 6.48828L43.7594 5.97266C43.4757 5.26737 42.695 4.48697 41.9894 4.20337L41.4735 3.99609L30.6619 3.97298L19.8504 3.94986V4.59473V5.23961L30.576 5.26238L41.3015 5.28516L41.6455 5.47018C42.0874 5.70788 42.3228 5.96423 42.541 6.44531C42.7142 6.82722 42.7164 6.95372 42.7183 16.6078L42.7202 26.3834L31.2208 26.3617L19.7214 26.3398L19.6996 16.8143L19.6776 7.28862L18.1092 4.67552C17.2465 3.2383 16.5115 2.07212 16.4758 2.08398C16.4402 2.09584 15.6953 3.29768 14.8206 4.75475L13.2302 7.40386V16.896V26.3881L12.1769 26.364L11.1237 26.3398L11.102 13.1699L11.0802 0H7.42648H3.77273V13.1914ZM9.7911 13.8359V26.3828H7.42674H5.06238V25.6114V24.8398L6.63145 24.8164L8.20053 24.793L8.22572 24.1719L8.251 23.5507L6.67814 23.5274L5.10537 23.5039L5.08018 22.8839L5.05499 22.2639L5.93994 22.2393L6.8249 22.2148V21.5703V20.9258L5.93994 20.9013L5.05499 20.8767L5.08018 20.2568L5.10537 19.6367L6.67814 19.6133L8.251 19.5899L8.22572 18.9687L8.20053 18.3477L6.63145 18.3242L5.06238 18.3008V17.6582V17.0156H5.96892H6.87545L6.85018 16.3926L6.8249 15.7695L5.94364 15.745L5.06238 15.7205V15.079V14.4375H6.65673H8.25108L8.2258 13.8145L8.20053 13.1914L6.63145 13.1679L5.06238 13.1446V12.5019V11.8594H5.96892H6.87545L6.85018 11.2363L6.8249 10.6133L5.94364 10.5888L5.06238 10.5643V9.92277V9.28125H6.65295H8.24352V8.63672V7.99219H6.65295H5.06238V7.34766V6.70312H5.96513H6.86789V6.05859V5.41406H5.96513H5.06238V4.76953V4.125H6.65295H8.24352V3.48047V2.83594H6.65295H5.06238V2.0625V1.28906H7.42674H9.7911V13.8359ZM17.3141 5.86068C17.7396 6.57671 18.0983 7.20423 18.1111 7.2551C18.124 7.30598 17.7628 7.57058 17.3084 7.843L16.4822 8.33843L15.7375 7.89388C15.3278 7.64938 14.9475 7.4146 14.8922 7.37223C14.8203 7.31715 15.0258 6.90482 15.6133 5.92496C16.0651 5.17129 16.4585 4.55563 16.4875 4.55675C16.5165 4.55787 16.8885 5.14456 17.3141 5.86068ZM21.054 7.17578V7.82031H21.6989H22.3437V15.8125V23.8047H21.6989H21.054V24.4492V25.0938H22.9885H24.923V24.4492V23.8047H24.2782H23.6333V15.8125V7.82031H24.2782H24.923V7.17578V6.53125H22.9885H21.054V7.17578ZM26.3846 10.1836V13.8359H33.9076H41.4305V10.1836V6.53125H33.9076H26.3846V10.1836ZM40.1409 10.1836V12.5469H33.9076H27.6742V10.1836V7.82031H33.9076H40.1409V10.1836ZM15.6573 9.33616C16.0753 9.58959 16.445 9.79679 16.4788 9.7967C16.5126 9.7967 16.9562 9.5468 17.4645 9.24155L18.3888 8.68648V15.8176V22.9486L16.4758 22.9255L14.5628 22.9023L14.5408 15.7878L14.5188 8.67307L14.708 8.7743C14.812 8.82999 15.2393 9.08282 15.6573 9.33616ZM15.8095 13.4062V15.5547H16.4543H17.0991V13.4062V11.2578H16.4543H15.8095V13.4062ZM26.3846 17.4873V19.8516H29.825H33.2655L33.2426 17.5098L33.2197 15.168L29.8022 15.1455L26.3846 15.123V17.4873ZM34.5524 17.4883V19.8516H37.9914H41.4305V17.4883V15.125H37.9914H34.5524V17.4883ZM31.9542 17.5098L31.9784 18.5625H29.8263H27.6742V17.4868V16.4111L29.8022 16.4341L31.9301 16.457L31.9542 17.5098ZM40.1409 17.4883V18.5625H37.9914H35.842V17.4883V16.4141H37.9914H40.1409V17.4883ZM15.8095 17.4883V18.1328H16.4543H17.0991V17.4883V16.8438H16.4543H15.8095V17.4883ZM15.8095 20.4961V21.5703H16.4543H17.0991V20.4961V19.4219H16.4543H15.8095V20.4961ZM27.0223 21.6868C26.9977 21.7509 26.9893 22.0505 27.0035 22.3528L27.0294 22.9023L28.5125 22.9259L29.9956 22.9494V22.2599V21.5703H28.5313C27.3785 21.5703 27.0575 21.5951 27.0223 21.6868ZM31.3211 21.6868C31.2965 21.7509 31.2881 22.0505 31.3024 22.3528L31.3283 22.9023L31.9516 22.9276L32.5749 22.9529V22.2616V21.5703H31.9704C31.541 21.5703 31.3529 21.6041 31.3211 21.6868ZM35.1901 21.6868C35.1655 21.7509 35.1571 22.0505 35.1713 22.3528L35.1972 22.9023L36.6803 22.9259L38.1634 22.9494V22.2599V21.5703H36.6991C35.5463 21.5703 35.2253 21.5951 35.1901 21.6868ZM39.4889 21.6868C39.4643 21.7509 39.4559 22.0505 39.4702 22.3528L39.496 22.9023L40.1194 22.9276L40.7427 22.9529V22.2616V21.5703H40.1382C39.7088 21.5703 39.5207 21.6041 39.4889 21.6868ZM18.3888 25.3102V26.3861L16.4758 26.363L14.5628 26.3398L14.5386 25.2871L14.5145 24.2344H16.4516H18.3888V25.3102ZM42.7193 29.6699C42.7185 31.5853 42.7101 31.6859 42.5167 32.1012C42.4057 32.3394 42.1914 32.6382 42.0405 32.765C41.418 33.2887 42.6732 33.2578 21.9998 33.2578C1.32635 33.2578 2.58161 33.2887 1.95905 32.765C1.80816 32.6382 1.59391 32.3394 1.48291 32.1012C1.28946 31.6859 1.28104 31.5853 1.28026 29.6699L1.2794 27.6719H21.9998H42.7202L42.7193 29.6699ZM18.7504 30.4434L18.7757 31.0664L19.399 31.0917L20.0223 31.1169V30.4686V29.8203H19.3737H18.7251L18.7504 30.4434ZM21.3297 30.4434L21.355 31.0664H21.9998H22.6446L22.6699 30.4434L22.6952 29.8203H21.9998H21.3044L21.3297 30.4434ZM23.9772 30.4686V31.1169L24.6006 31.0917L25.2239 31.0664L25.2492 30.4434L25.2745 29.8203H24.6259H23.9772V30.4686ZM27.4163 36.9102V39.2734H21.9998H16.5833V36.9102V34.5469H21.9998H27.4163V36.9102ZM31.1585 40.7357C31.5548 40.9806 31.7151 41.3738 31.7151 42.1009V42.7109H21.9998H12.2844V42.0865C12.2844 41.3717 12.438 40.9999 12.8433 40.7333C13.0959 40.5671 13.2846 40.5636 21.9896 40.5631C30.7517 40.5625 30.882 40.565 31.1585 40.7357Z" fill="white"></path>
</svg>
