<?xml version="1.0" encoding="UTF-8"?>
<svg xmlns="http://www.w3.org/2000/svg" width="44" height="44" viewBox="0 0 44 44" fill="none">
  <path fill-rule="evenodd" clip-rule="evenodd" d="M16.6778 0.114471C14.7441 0.527893 13.0581 1.81465 12.2074 3.52621C11.6583 4.63114 11.5231 5.24157 11.5319 6.57627C11.5404 7.86971 11.7315 8.6172 12.332 9.70623C12.7795 10.5176 13.9295 11.6756 14.7352 12.1263C17.7462 13.81 21.4246 12.9099 23.3183 10.0258C24.6614 7.9805 24.7243 5.30441 23.4796 3.16697C23.0463 2.42273 21.8672 1.25759 21.1308 0.845701C19.8091 0.106616 18.0587 -0.180856 16.6778 0.114471ZM31.5609 0.825657C31.1208 0.96533 30.3703 1.74793 30.2354 2.20785C30.1754 2.41226 30.1264 3.0337 30.1264 3.58878C30.1264 4.54013 30.139 4.61092 30.3465 4.81975C30.6376 5.113 31.0496 5.113 31.3408 4.81975C31.548 4.6111 31.5609 4.53959 31.5609 3.59682C31.5609 2.65405 31.5738 2.58254 31.781 2.37389L32.001 2.15224H36.5817H41.1623L41.3824 2.37389L41.6025 2.59545V7.20828V11.8211L41.3824 12.0427L41.1623 12.2643H36.5817H32.001L31.781 12.0427L31.5609 11.8211V9.37515V6.9292L31.3408 6.70764C31.0496 6.41439 30.6376 6.41439 30.3465 6.70764L30.1264 6.9292V9.38319C30.1264 11.0459 30.1615 11.9569 30.2354 12.2087C30.3809 12.7046 31.1236 13.4526 31.6161 13.5991C31.8849 13.6791 33.2384 13.7089 36.5985 13.7089C41.8911 13.7089 41.7801 13.7226 42.4362 12.9877C42.6494 12.7489 42.8717 12.3923 42.9304 12.1953C43.0812 11.6884 43.0812 2.72817 42.9304 2.22121C42.8717 2.02421 42.6494 1.66767 42.4362 1.42886C41.778 0.691582 41.8996 0.706298 36.5433 0.716862C33.414 0.723092 31.7712 0.758935 31.5609 0.825657ZM18.8803 1.52646C19.7456 1.68338 20.7965 2.24695 21.4487 2.90378C22.4541 3.91625 22.9064 5.0275 22.9064 6.48598C22.9064 7.93427 22.4537 9.05617 21.4694 10.0472C20.4853 11.0384 19.3712 11.4943 17.933 11.4943C16.4847 11.4943 15.3812 11.0389 14.3758 10.0264C12.2474 7.88308 12.52 4.19632 14.9351 2.46083C16.1833 1.56393 17.4427 1.26562 18.8803 1.52646ZM16.0013 3.81847L15.7812 4.04004V6.48598V8.93194L16.0013 9.1535C16.1339 9.28694 16.3211 9.37344 16.472 9.37082C16.6098 9.36838 17.7716 8.83 19.0537 8.17452C21.5701 6.88776 21.6649 6.81183 21.4693 6.2377C21.3975 6.02688 21.033 5.80947 19.0537 4.79745C17.7716 4.14197 16.6098 3.60359 16.472 3.60115C16.3211 3.59853 16.1339 3.68503 16.0013 3.81847ZM36.5817 3.71482C36.1416 3.8545 35.3911 4.6371 35.2562 5.09702C35.1962 5.30143 35.1472 5.69751 35.1472 5.97731V6.48598H34.65C34.0517 6.48598 33.7126 6.74727 33.7126 7.20828C33.7126 7.66928 34.0517 7.93057 34.65 7.93057H35.1472V9.1535C35.1472 10.3316 35.1552 10.3846 35.3673 10.5981C35.506 10.7378 35.6898 10.8197 35.8644 10.8197C36.0391 10.8197 36.2229 10.7378 36.3616 10.5981C36.5736 10.3846 36.5817 10.3316 36.5817 9.1535V7.93057H37.0788C37.6771 7.93057 38.0162 7.66928 38.0162 7.20828C38.0162 6.74727 37.6771 6.48598 37.0788 6.48598H36.5817V5.98535C36.5817 5.57409 36.621 5.44498 36.8018 5.26306C37.009 5.0544 37.08 5.0414 38.0162 5.0414C38.9524 5.0414 39.0234 5.0284 39.2306 4.81975C39.3694 4.68008 39.4507 4.49499 39.4507 4.31911C39.4507 4.14323 39.3694 3.95815 39.2306 3.81847C39.0206 3.60693 38.9622 3.59727 37.953 3.60603C37.3714 3.61108 36.7543 3.66011 36.5817 3.71482ZM19.0985 6.48598C19.0985 6.51298 18.6749 6.74727 18.1571 7.00658L17.2157 7.47805V6.48598V5.49392L18.1571 5.96539C18.6749 6.2247 19.0985 6.45899 19.0985 6.48598ZM0.22169 7.42993L0.0015823 7.65149V13.7089V19.7663L0.22169 19.9879L0.441709 20.2095H5.02238H9.60305L9.82307 19.9879L10.0432 19.7663V13.7089V7.65149L9.82307 7.42993L9.60305 7.20828H5.02238H0.441709L0.22169 7.42993ZM8.60866 13.7089V18.7649H5.02238H1.4361V13.7089V8.65286H5.02238H8.60866V13.7089ZM4.52523 10.3191C4.38644 10.4588 4.30512 10.6439 4.30512 10.8197C4.30512 10.9956 4.38644 11.1807 4.52523 11.3204C4.73243 11.529 4.80344 11.542 5.73963 11.542C6.67583 11.542 6.74684 11.529 6.95404 11.3204C7.09283 11.1807 7.17415 10.9956 7.17415 10.8197C7.17415 10.6439 7.09283 10.4588 6.95404 10.3191C6.74684 10.1104 6.67583 10.0974 5.73963 10.0974C4.80344 10.0974 4.73243 10.1104 4.52523 10.3191ZM26.874 11.6549C26.7921 11.717 26.1994 12.4755 25.5567 13.3405C24.2856 15.0516 24.205 15.248 24.6084 15.6541C24.8495 15.897 25.2476 15.9461 25.4889 15.7629C25.5708 15.7009 26.1635 14.9423 26.8062 14.0773C28.0773 12.3662 28.1579 12.1698 27.7545 11.7637C27.5134 11.5208 27.1153 11.4717 26.874 11.6549ZM3.09072 13.2083C2.95193 13.3479 2.87061 13.533 2.87061 13.7089C2.87061 13.8848 2.95193 14.0699 3.09072 14.2095C3.30894 14.4294 3.32463 14.4312 5.02238 14.4312C6.72012 14.4312 6.73581 14.4294 6.95404 14.2095C7.09283 14.0699 7.17415 13.8848 7.17415 13.7089C7.17415 13.533 7.09283 13.3479 6.95404 13.2083C6.73581 12.9884 6.72012 12.9866 5.02238 12.9866C3.32463 12.9866 3.30894 12.9884 3.09072 13.2083ZM28.326 16.3301C27.467 16.9773 26.7138 17.5742 26.6521 17.6566C26.4702 17.8996 26.519 18.3005 26.7602 18.5433C27.1635 18.9495 27.3585 18.8684 29.0576 17.5883C29.9167 16.9412 30.67 16.3443 30.7315 16.2618C30.9135 16.0188 30.8647 15.6179 30.6235 15.3751C30.2202 14.9689 30.0252 15.05 28.326 16.3301ZM3.09072 16.0974C2.95193 16.2371 2.87061 16.4222 2.87061 16.5981C2.87061 16.7739 2.95193 16.959 3.09072 17.0987C3.30894 17.3186 3.32463 17.3204 5.02238 17.3204C6.72012 17.3204 6.73581 17.3186 6.95404 17.0987C7.09283 16.959 7.17415 16.7739 7.17415 16.5981C7.17415 16.4222 7.09283 16.2371 6.95404 16.0974C6.73581 15.8776 6.72012 15.8758 5.02238 15.8758C3.32463 15.8758 3.30894 15.8776 3.09072 16.0974ZM21.3848 15.985C21.2862 16.0421 18.9596 17.9535 16.2146 20.2327C11.2602 24.3464 11.2119 24.3836 9.58001 25.3275C7.76167 26.3792 7.36987 26.7005 7.01285 27.4324C6.80566 27.8573 6.77123 28.0402 6.77464 28.6996L6.77858 29.4701L6.24889 29.7817C5.33528 30.3191 4.87812 31.2744 5.10343 32.1755C5.36164 33.2082 6.17071 33.8428 7.22911 33.8428C7.69407 33.8428 7.88522 33.7902 8.37806 33.527L8.96926 33.211L9.33336 33.4767C10.2281 34.1293 11.3445 34.1943 12.3743 33.6535C12.6948 33.4852 12.9837 33.3349 13.0161 33.3195C13.0487 33.304 13.3914 33.8523 13.7778 34.5377C14.1642 35.2232 14.6217 35.9428 14.7946 36.137C15.6318 37.0776 17.0982 37.0725 17.9446 36.1262C18.3608 35.6608 18.4995 35.2284 18.4555 34.5328C18.4238 34.0312 18.3481 33.8496 17.6816 32.6779C17.2753 31.9635 16.9618 31.3597 16.9852 31.3362C17.0085 31.3128 19.4403 30.3821 22.389 29.2681C27.9048 27.1845 28.1539 27.0694 28.1539 26.6057C28.1539 26.424 24.8417 20.5345 24.4172 19.9612C24.2372 19.7183 24.14 19.6678 23.8523 19.6678C23.5836 19.6678 23.4626 19.7218 23.319 19.9057C22.9774 20.343 22.886 20.1278 24.8993 23.6272C25.7093 25.0352 26.3564 26.2029 26.3372 26.2222C26.3181 26.2416 23.6661 27.2532 20.4441 28.4705C14.6491 30.6596 14.5693 30.6932 13.0542 31.5749C12.2118 32.0651 11.3948 32.494 11.2387 32.528C10.8218 32.6188 10.2989 32.4425 9.98759 32.1065C9.83723 31.9441 9.37792 31.2228 8.96693 30.5034C8.15186 29.0768 8.01639 28.6054 8.27639 28.102C8.48736 27.6934 8.73938 27.5003 10.0796 26.7206L11.3263 25.9953L12.2762 27.6386C13.3098 29.4269 13.4655 29.5887 13.9784 29.4086C14.2955 29.2973 14.4364 29.0924 14.4364 28.7421C14.4364 28.6049 14.0391 27.8168 13.4926 26.8698C12.9736 25.9703 12.56 25.2053 12.5737 25.1699C12.5873 25.1344 13.8895 24.0335 15.4674 22.7236C17.0454 21.4138 19.0326 19.7637 19.8833 19.0569C21.3478 17.8402 21.6089 17.6584 21.6089 17.8557C21.6089 18.0557 22.2213 18.5844 22.453 18.5844C22.7707 18.5844 23.1331 18.2126 23.1331 17.8865C23.1331 17.597 22.4202 16.2727 22.1359 16.0338C21.9204 15.8528 21.6442 15.835 21.3848 15.985ZM30.8884 19.8854C29.9022 20.0941 29.0284 20.296 28.9467 20.334C28.7456 20.4274 28.5721 20.8745 28.6459 21.1088C28.7357 21.3936 29.0547 21.6541 29.314 21.6542C29.4402 21.6542 30.3904 21.4838 31.4253 21.2756C32.9532 20.9682 33.3452 20.8586 33.5098 20.6928C33.9484 20.2511 33.6036 19.4768 32.977 19.4965C32.8145 19.5016 31.8747 19.6767 30.8884 19.8854ZM2.37346 22.5981L2.15335 22.8196V30.5433V38.2668H1.29758C0.498462 38.2668 0.426467 38.2822 0.211828 38.4983C-0.0169768 38.7287 -0.0178732 38.7357 0.0161068 40.0106C0.048473 41.223 0.0653286 41.3236 0.332058 41.8945C0.723591 42.7324 1.23222 43.2561 2.04935 43.6628L2.7268 44H12.9122H23.0976L23.7751 43.6628C24.5922 43.2561 25.1008 42.7324 25.4923 41.8945C25.7591 41.3236 25.7759 41.223 25.8083 40.0106C25.8423 38.7357 25.8414 38.7287 25.6126 38.4983C25.3979 38.2822 25.3259 38.2668 24.5268 38.2668H23.671V34.6224C23.671 31.0722 23.6662 30.9718 23.4852 30.7401C23.2228 30.404 22.6848 30.404 22.4224 30.7401C22.2414 30.9718 22.2365 31.0722 22.2365 34.6224V38.2668H12.9122H3.58787V31.0439V23.821H6.67601H9.76416L10.0083 23.6095C10.1827 23.4585 10.2523 23.3127 10.2523 23.0987C10.2523 22.8847 10.1827 22.7389 10.0083 22.5879L9.76416 22.3764H6.17887H2.59348L2.37346 22.5981ZM31.5609 23.2167C31.1208 23.3564 30.3703 24.139 30.2354 24.5989C30.156 24.8695 30.1264 26.229 30.1264 29.5993C30.1264 32.9696 30.156 34.3292 30.2354 34.5997C30.3809 35.0957 31.1236 35.8436 31.6161 35.9902C31.8849 36.0701 33.2384 36.0999 36.5985 36.0999C41.8911 36.0999 41.7801 36.1137 42.4362 35.3787C42.935 34.82 43.037 34.4534 43.037 33.2188C43.037 32.2675 43.0243 32.1967 42.8169 31.9878C42.5258 31.6946 42.1137 31.6946 41.8226 31.9878C41.6154 32.1965 41.6025 32.268 41.6025 33.2108C41.6025 34.1535 41.5896 34.2251 41.3824 34.4337L41.1623 34.6554H36.5817H32.001L31.781 34.4337L31.5609 34.2121V29.5993V24.9865L31.781 24.7649L32.001 24.5433H36.5817H41.1623L41.3824 24.7649L41.6025 24.9865V27.4324V29.8784L41.8226 30.1C41.9613 30.2397 42.1451 30.3216 42.3197 30.3216C42.4944 30.3216 42.6782 30.2397 42.8169 30.1L43.037 29.8784V27.4244C43.037 25.7898 43.0014 24.8509 42.9304 24.6123C42.8717 24.4152 42.6494 24.0587 42.4362 23.8199C41.778 23.0826 41.8996 23.0973 36.5433 23.1079C33.414 23.1141 31.7712 23.15 31.5609 23.2167ZM35.9092 26.7888C35.0833 27.0064 34.3555 27.6083 33.9847 28.3804C33.6701 29.0356 33.6684 30.1779 33.9811 30.8182C34.2621 31.3938 34.7997 31.9352 35.3713 32.2182C36.0071 32.5331 37.1415 32.5314 37.792 32.2146C38.3637 31.9361 38.9022 31.3938 39.1787 30.8182C39.4933 30.1631 39.495 29.0208 39.1823 28.3804C38.8985 27.7993 38.3583 27.2586 37.792 26.989C37.3117 26.7602 36.3899 26.6622 35.9092 26.7888ZM37.1491 28.2779C38.0702 28.6655 38.2948 29.8816 37.5785 30.6031C36.5712 31.6175 34.9205 30.7089 35.1855 29.2859C35.344 28.436 36.3262 27.9316 37.1491 28.2779ZM7.81878 31.3861L8.14962 31.998L7.77395 32.1983C7.25798 32.4735 6.87738 32.4608 6.64275 32.1603C6.31765 31.7442 6.42677 31.3654 6.9761 31.003C7.159 30.8824 7.34898 30.7815 7.39829 30.779C7.4476 30.7764 7.63687 31.0496 7.81878 31.3861ZM16.3099 33.211C17.1829 34.7304 17.2334 35.1085 16.5983 35.3734C16.1206 35.5727 15.9111 35.3783 15.0942 33.9782C14.6886 33.283 14.3544 32.6731 14.3517 32.6229C14.3464 32.526 15.3069 31.9524 15.4806 31.9488C15.5371 31.9478 15.9103 32.5157 16.3099 33.211ZM24.3883 40.2201C24.3883 41.0038 24.2271 41.4147 23.7189 41.9265C23.1648 42.4845 22.8112 42.6006 21.6658 42.6006H20.802V42.0999C20.802 41.4974 20.5426 41.156 20.0848 41.156C19.627 41.156 19.3675 41.4974 19.3675 42.0999V42.6006H12.9122H6.45689V42.0999C6.45689 41.4974 6.19742 41.156 5.73963 41.156C5.28185 41.156 5.02238 41.4974 5.02238 42.0999V42.6006H4.15862C3.01316 42.6006 2.65965 42.4845 2.10548 41.9265C1.5973 41.4147 1.4361 41.0038 1.4361 40.2201V39.7114H12.9122H24.3883V40.2201Z" fill="white"></path>
</svg>
