<?xml version="1.0" encoding="UTF-8"?>
<svg xmlns="http://www.w3.org/2000/svg" width="41" height="44" viewBox="0 0 41 44" fill="none">
  <path fill-rule="evenodd" clip-rule="evenodd" d="M13.465 0.163119C10.6539 0.759252 8.46459 2.84146 7.67786 5.66732C7.52909 6.20173 7.49076 6.63806 7.45699 8.18346L7.41616 10.0531H4.36761C2.63487 10.0531 1.31905 10.0863 1.31905 10.1299C1.31905 10.1721 1.00679 15.5199 0.625095 22.0139C0.0208117 32.2956 -0.0562851 33.9088 0.0287367 34.5006C0.400869 37.0902 2.25645 39.1801 4.82614 39.9036C5.49227 40.0912 5.55326 40.0926 13.6911 40.119L21.8851 40.1457L22.6498 40.8945C26.8702 45.0281 33.4124 45.0361 37.5888 40.9128C40.6333 37.907 41.555 33.5206 39.991 29.4801C38.8237 26.4644 35.9838 23.9649 32.8133 23.1623C31.8756 22.9248 30.3018 22.7357 29.8109 22.8015C29.5969 22.8301 29.4643 22.8103 29.443 22.7463C29.4092 22.6445 28.7084 10.7223 28.7108 10.2895L28.7121 10.0531H25.6656H22.619L22.5716 8.26942C22.5342 6.86672 22.4858 6.33299 22.3446 5.77073C21.3487 1.80298 17.423 -0.676196 13.465 0.163119ZM16.0592 2.69808C17.7635 3.0586 19.2397 4.427 19.7741 6.1419C19.9383 6.66858 19.9621 6.94718 19.9652 8.37687L19.9687 10.0101L14.994 10.0323L10.0194 10.0545L10.0208 8.57096C10.0233 6.1597 10.3168 5.28204 11.5243 4.07516C12.7947 2.80545 14.3434 2.33516 16.0592 2.69808ZM7.43511 14.2222V15.8124H8.72724H10.0194V14.2222V12.6319H15.0156H20.0118V14.2222V15.8124H21.3039H22.596V14.2222V12.6319H24.4011H26.2062L26.2497 12.9113C26.2835 13.129 26.5361 17.4587 26.8369 22.9786C26.855 23.3101 26.8539 23.3112 26.3382 23.5047C23.4532 24.587 21.0419 27.0928 20.0662 30.0223C19.6621 31.2357 19.5434 32.0014 19.5434 33.3913C19.5434 34.7723 19.6703 35.6003 20.061 36.767C20.1761 37.1108 20.2702 37.4299 20.2702 37.4762C20.2702 37.5944 6.62908 37.5884 5.88456 37.4699C4.24752 37.2094 2.90328 35.9048 2.60989 34.292C2.54235 33.9207 2.6552 31.5734 3.12725 23.5246C3.45933 17.8637 3.73102 13.097 3.73102 12.932V12.6319H5.58307H7.43511V14.2222ZM31.8267 25.5717C34.8291 26.202 37.2306 28.5889 37.9871 31.6947C38.2048 32.5881 38.1836 34.3081 37.9431 35.2772C37.359 37.631 35.748 39.5924 33.5298 40.6506C29.0215 42.8014 23.64 40.2639 22.3273 35.3683C22.0568 34.3599 22.0542 32.5681 22.3217 31.5001C23.2445 27.8153 26.7347 25.2055 30.4706 25.4069C30.8929 25.4296 31.5033 25.5038 31.8267 25.5717ZM31.2621 31.8084C29.9404 33.1786 28.8283 34.2887 28.7909 34.2753C28.7535 34.2619 28.2127 33.6768 27.589 32.9751L26.4551 31.6995L26.2268 31.9064C26.1013 32.0202 25.6778 32.3976 25.2856 32.7452C24.8934 33.0927 24.5833 33.4074 24.5964 33.4446C24.6392 33.5655 28.6551 38.0761 28.7199 38.0761C28.7894 38.0761 35.4689 31.2098 35.483 31.1239C35.4879 31.0944 35.0809 30.6759 34.5785 30.1937L33.6652 29.317L31.2621 31.8084Z" fill="white"></path>
</svg>
