<?xml version="1.0" encoding="UTF-8"?>
<svg xmlns="http://www.w3.org/2000/svg" width="49" height="44" viewBox="0 0 49 44" fill="none">
  <path fill-rule="evenodd" clip-rule="evenodd" d="M11.8889 0.0794196C11.7838 0.122761 11.6119 0.254227 11.5069 0.371663C11.3243 0.575781 11.3146 0.740979 11.2886 4.12527L11.2614 7.66534L7.94594 7.69629C4.74154 7.72617 4.61203 7.73463 4.08112 7.94922C3.05128 8.36524 2.31828 9.1106 1.8801 10.187L1.6698 10.7039L1.6443 23.7859L1.6187 36.8678L1.0791 36.9129C0.622485 36.951 0.497754 37.0048 0.268923 37.2625C0.0179351 37.5452 -0.00145253 37.6242 7.55584e-05 38.3585C0.00475533 40.5827 1.04338 42.4123 2.83907 43.3595C4.13269 44.0418 2.7046 43.9995 24.4478 43.9995C46.1911 43.9995 44.763 44.0418 46.0566 43.3595C47.9117 42.381 48.9927 40.3949 48.881 38.1704C48.8473 37.4977 48.8235 37.4289 48.5353 37.1697C48.2815 36.9415 48.1399 36.8914 47.7497 36.8914H47.2737V25.393V13.8946L47.7131 13.3576C48.5194 12.372 48.8379 11.486 48.8397 10.2234C48.8411 9.16721 48.6228 8.35362 48.1345 7.59634C47.7448 6.99167 41.428 0.495056 40.9267 0.183401C40.6111 -0.0129334 40.5551 -0.0137983 30.1431 0.0113801L19.6769 0.0366547L19.4229 0.292187C19.0669 0.650452 19.0669 1.24878 19.4229 1.60704L19.6769 1.86257L29.8265 1.88785L39.9762 1.91322L43.2777 5.25138C46.9424 8.95684 46.9394 8.95271 46.9394 10.1753C46.9394 11.4008 46.9447 11.3936 43.2762 15.1005L39.9711 18.44H26.5761H13.1811L13.1558 9.49472L13.1305 0.549449L12.8185 0.269027C12.5051 -0.0128374 12.2428 -0.0662695 11.8889 0.0794196ZM15.7091 0.0952764C14.9978 0.506877 15.0162 1.43675 15.743 1.81202C16.4375 2.17067 17.2699 1.36717 16.9648 0.632673C16.8945 0.463439 16.7697 0.268835 16.6875 0.200219C16.4751 0.0229122 15.9343 -0.0350365 15.7091 0.0952764ZM17.7911 5.54334C16.4627 6.02086 15.7569 6.97764 15.7569 8.30038C15.7569 9.70912 16.903 10.9217 18.3984 11.0951C19.1462 11.1819 19.2608 11.2195 19.5697 11.4812C19.9821 11.8304 19.9855 12.3614 19.5775 12.7068C19.2105 13.0176 18.9698 13.0913 18.5687 13.0156C18.0991 12.927 17.7007 12.5505 17.6228 12.1219C17.5348 11.6367 17.358 11.3823 17.0077 11.2363C16.6465 11.0858 16.2894 11.1683 15.9874 11.4722C15.4678 11.9951 15.8772 13.5462 16.71 14.21C17.3757 14.7405 17.9163 14.9292 18.7749 14.9309C19.4721 14.9322 19.6134 14.8991 20.2039 14.596C21.8241 13.7643 22.2919 11.8951 21.2434 10.442C20.7249 9.72325 20.0216 9.38343 18.6009 9.16519C18.0553 9.08129 17.667 8.70218 17.667 8.25329C17.667 7.96229 17.7271 7.83506 17.9562 7.64103C18.6984 7.01262 19.7603 7.35407 19.9142 8.27039C20.0262 8.93733 20.5975 9.33654 21.1669 9.14559C21.9829 8.87189 22.0031 7.61566 21.2086 6.55672C20.4812 5.58725 18.9401 5.13029 17.7911 5.54334ZM23.3018 5.49048C23.1705 5.55794 22.9879 5.76398 22.8961 5.94821C22.7453 6.25064 22.729 6.66166 22.729 10.1753C22.729 13.689 22.7453 14.1 22.8961 14.4024C23.1751 14.9623 23.2952 14.9856 25.759 14.9576L27.9775 14.9323L28.2314 14.6768C28.5871 14.3185 28.5872 13.7202 28.2314 13.3619C27.9788 13.1074 27.9707 13.1063 26.3083 13.0762L24.6389 13.0459V12.0912V11.1363H25.6849C26.8439 11.1363 27.1618 11.0429 27.3679 10.6419C27.6236 10.1444 27.4463 9.54229 26.9814 9.32914C26.836 9.26244 26.2925 9.2143 25.6849 9.2143H24.6389V8.25944V7.30467L26.3083 7.2744C27.9707 7.24432 27.9788 7.24317 28.2314 6.9887C28.5872 6.63043 28.5871 6.03211 28.2314 5.67384L27.9775 5.41831L25.759 5.39303C24.1057 5.3742 23.4797 5.39909 23.3018 5.49048ZM31.7063 5.52335C30.0265 5.97233 28.7056 7.26575 28.2542 8.90351C27.5383 11.5015 29.0982 14.1474 31.7502 14.8331C34.6481 15.5825 37.5734 13.2427 37.5734 10.1753C37.5734 7.09565 34.6111 4.74685 31.7063 5.52335ZM34.0417 7.58856C36.2032 8.67488 36.1954 11.6609 34.028 12.7739C33.415 13.0887 32.3466 13.1034 31.7014 12.806C29.6099 11.8417 29.3845 8.95137 31.3074 7.75385C32.1252 7.24452 33.2248 7.17811 34.0417 7.58856ZM40.9225 7.42096C40.2812 7.63469 39.9586 7.84303 39.5559 8.30345C39.0928 8.83278 38.8692 9.44234 38.8692 10.1753C38.8692 10.9252 39.0991 11.5326 39.5915 12.0837C40.9033 13.5519 43.301 13.2374 44.2492 11.4727C44.4196 11.1555 44.4557 10.9285 44.4557 10.1753C44.4557 9.13232 44.3111 8.75417 43.6764 8.13787C42.9735 7.45536 41.7639 7.14044 40.9225 7.42096ZM42.1183 9.35941C42.4593 9.53691 42.5939 9.77351 42.5939 10.1957C42.5939 10.5957 42.4012 10.8817 42.0265 11.0378C41.4428 11.2811 40.7793 10.8469 40.7793 10.2214C40.7793 9.78216 40.906 9.54392 41.2353 9.36412C41.5704 9.18114 41.7736 9.18009 42.1183 9.35941ZM11.2895 14.6899L11.3158 19.7812L11.5807 20.0476L11.8454 20.314L26.1453 20.3406C34.0101 20.3553 40.5521 20.341 40.683 20.3089C40.8198 20.2753 41.8649 19.3062 43.1423 18.0284L45.3635 15.8062V26.3488V36.8914H44.5536H43.7435L43.7179 29.6379L43.6922 22.3845L43.4296 22.1202C43.063 21.7514 42.5068 21.7514 42.1402 22.1202L41.8776 22.3845L41.8519 29.6379L41.8263 36.8914H24.446H7.06586V25.071V13.2505H8.12119C9.23736 13.2505 9.63925 13.139 9.83265 12.7753C9.97466 12.5084 9.95346 11.9802 9.79158 11.7475C9.52913 11.3705 9.19477 11.3141 7.41483 11.3462L5.7326 11.3766L5.46805 11.6431L5.2035 11.9094L5.17857 24.4005L5.15365 36.8914H4.34156H3.52948L3.55469 23.8937L3.57991 10.8961L3.85305 10.491C4.02869 10.2305 4.29964 9.99887 4.61194 9.84232L5.09777 9.5987H8.1805H11.2632L11.2895 14.6899ZM10.9243 25.2055C10.4837 25.6488 10.4837 26.0307 10.9243 26.474L11.249 26.8008H24.3476C38.4603 26.8008 37.8381 26.8223 38.1023 26.3256C38.2285 26.0882 38.2285 25.5913 38.1023 25.354C37.8381 24.8572 38.4603 24.8788 24.3476 24.8788H11.249L10.9243 25.2055ZM11.2203 29.7746C10.6124 30.0251 10.4508 30.827 10.9142 31.2935L11.1768 31.5578L15.9738 31.5818C19.6764 31.6003 20.8253 31.5782 21.0097 31.4849C21.141 31.4184 21.3272 31.2022 21.4234 31.0044C21.5931 30.6558 21.5931 30.6339 21.4234 30.2852C21.3272 30.0874 21.141 29.8718 21.0097 29.8061C20.8288 29.7156 19.6373 29.6877 16.0911 29.6913C13.5172 29.6939 11.3254 29.7314 11.2203 29.7746ZM24.1136 29.7711C23.5049 30.0332 23.344 30.8271 23.8054 31.2913C24.0021 31.4893 24.1592 31.5534 24.4478 31.5534C25.5585 31.5534 25.6872 29.92 24.5911 29.7367C24.4335 29.7102 24.2186 29.7257 24.1136 29.7711ZM27.695 29.8061C27.5637 29.8718 27.3775 30.0874 27.2813 30.2852C27.1116 30.6339 27.1116 30.6558 27.2813 31.0044C27.3775 31.2022 27.5637 31.4178 27.695 31.4835C27.8756 31.5738 29.0931 31.6033 32.69 31.6044C37.7715 31.6059 37.8533 31.5987 38.1023 31.1306C38.2285 30.8932 38.2285 30.3964 38.1023 30.159C37.8533 29.6909 37.7715 29.6837 32.69 29.6852C29.0931 29.6863 27.8756 29.7158 27.695 29.8061ZM46.9871 38.8893C46.9871 38.931 46.9232 39.2121 46.8451 39.5139C46.5871 40.5108 45.9142 41.3027 44.9338 41.7635L44.3607 42.0328H24.4478H4.53496L3.96193 41.7635C2.98147 41.3027 2.30863 40.5108 2.05058 39.5139C1.97245 39.2121 1.90856 38.931 1.90856 38.8893C1.90856 38.8475 12.0512 38.8134 24.4478 38.8134C36.8445 38.8134 46.9871 38.8475 46.9871 38.8893ZM19.9113 39.5755C19.3166 39.825 19.1571 40.6449 19.6139 41.1045L19.8679 41.3601H24.4478H29.0278L29.2818 41.1045C29.6378 40.7463 29.6378 40.148 29.2818 39.7897L29.0279 39.5342L24.5651 39.5147C22.1106 39.5042 20.0164 39.5315 19.9113 39.5755Z" fill="white"></path>
</svg>
