<?xml version="1.0" encoding="UTF-8"?>
<svg xmlns="http://www.w3.org/2000/svg" width="44" height="44" viewBox="0 0 44 44" fill="none">
  <path fill-rule="evenodd" clip-rule="evenodd" d="M34.7922 1.41C33.5406 2.20426 32.5259 2.89495 32.5371 2.94488C32.5805 3.13639 33.0938 3.90357 33.1787 3.90357C33.2278 3.90357 33.9103 3.49933 34.6955 3.00515C35.4807 2.51106 36.1753 2.09388 36.2392 2.07819C36.3248 2.05715 36.6998 3.33799 37.6699 6.96469C38.393 9.66797 38.9716 11.8929 38.9558 11.9091C38.9256 11.9398 31.8149 11.6943 29.8122 11.5933L28.6536 11.5348L28.1182 9.51241C27.8237 8.40006 27.6146 7.46879 27.6536 7.44292C27.6925 7.41705 28.6481 6.81785 29.777 6.11146C30.9059 5.40499 31.8769 4.78388 31.9346 4.73111C32.0159 4.65678 31.9636 4.51459 31.7031 4.10069L31.3665 3.56624L29.1078 4.99316C27.8656 5.77801 26.7526 6.46914 26.6345 6.52898C26.5164 6.58891 25.4345 6.90045 24.2301 7.2214C23.0258 7.54225 22.0106 7.83207 21.9741 7.86536C21.9151 7.91908 23.4759 13.9535 23.5744 14.0525C23.5963 14.0744 23.9802 13.9923 24.4275 13.8699C24.8748 13.7475 25.2966 13.6474 25.3649 13.6474C25.445 13.6474 25.7987 14.3737 26.3643 15.6999C26.8458 16.8288 27.334 17.8918 27.4491 18.0619C27.7099 18.4474 28.4277 18.8213 28.9054 18.8206C29.7126 18.8195 30.4382 18.3619 30.7128 17.6806C31.0018 16.9637 30.9287 16.598 30.1133 14.6848C29.7046 13.7257 29.3833 12.9279 29.3992 12.912C29.4151 12.896 31.9391 12.9773 35.0082 13.0926C38.0773 13.208 40.6114 13.2928 40.6396 13.2809C40.6928 13.2585 37.186 0.060951 37.1106 0.000418359C37.087 -0.0186382 36.0437 0.615748 34.7922 1.41ZM40.1777 1.81528L39.2558 2.74388L39.7095 3.19373L40.1632 3.64368L41.085 2.71516L42.0068 1.78656L41.5531 1.33671L41.0995 0.886765L40.1777 1.81528ZM33.9084 5.03084C33.4498 5.31893 33.0747 5.58201 33.0747 5.61564C33.0747 5.68911 33.6756 6.66289 33.7209 6.66289C33.7479 6.66289 35.3842 5.64763 35.4633 5.58184C35.5012 5.55037 34.8463 4.50717 34.7888 4.50717C34.763 4.50717 34.3668 4.74283 33.9084 5.03084ZM42.1448 5.07378C41.5839 5.23244 41.1089 5.37851 41.0892 5.39826C41.0695 5.41809 41.1177 5.69127 41.1963 6.00548C41.2995 6.41809 41.378 6.57641 41.479 6.57563C41.5559 6.57503 41.9666 6.47741 42.3917 6.35868C42.8167 6.24003 43.3137 6.10197 43.496 6.05205C43.86 5.95237 43.8609 5.9465 43.6322 5.09387C43.5238 4.68972 43.5031 4.68946 42.1448 5.07378ZM31.3573 6.62685C31.0976 6.79431 30.8975 6.97763 30.9126 7.03419C30.9336 7.11232 31.3366 7.79904 31.4968 8.02971C31.5332 8.08213 32.5595 7.41809 32.5595 7.34212C32.5595 7.23192 31.9618 6.31763 31.8914 6.32022C31.8575 6.32143 31.6171 6.45939 31.3573 6.62685ZM26.8961 9.92424C27.2556 11.2987 27.3305 11.6915 27.2433 11.7456C27.1494 11.8039 24.7644 12.4471 24.5417 12.4742C24.4822 12.4814 23.4351 8.80171 23.4864 8.76584C23.4941 8.76058 24.1378 8.58381 24.9171 8.37298C25.8441 8.12223 26.3519 8.02126 26.3859 8.08084C26.4145 8.13094 26.6441 8.96046 26.8961 9.92424ZM41.3642 9.04954C41.2864 9.32564 41.2056 9.61089 41.1848 9.68349C41.155 9.78757 41.4022 9.88363 42.3595 10.1399C43.0265 10.3183 43.5958 10.4407 43.6247 10.4117C43.7206 10.3153 43.9701 9.29374 43.9103 9.24226C43.8779 9.21432 43.3684 9.06282 42.7781 8.90545C42.1877 8.74808 41.66 8.60322 41.6053 8.58347C41.5459 8.562 41.4486 8.75015 41.3642 9.04954ZM4.13653 10.402C3.1048 10.6289 2.18058 11.3994 1.79494 12.354C1.61067 12.8102 1.60242 12.9492 1.57795 15.9972L1.55253 19.1661H2.20051H2.84848L2.84934 16.1696C2.85011 13.1946 2.85166 13.17 3.05474 12.7319C3.16766 12.4884 3.39642 12.1857 3.56524 12.0564C4.17406 11.5901 4.31137 11.5779 8.96269 11.5779H13.2463L13.2211 10.9528L13.1958 10.3276L8.90232 10.3129C5.82345 10.3024 4.4752 10.3275 4.13653 10.402ZM14.5268 10.9302V11.5779H17.7937H21.0605L21.0352 10.9528L21.01 10.3276L17.7684 10.305L14.5268 10.2824V10.9302ZM28.7691 14.8201C29.2008 15.8445 29.5541 16.7951 29.5541 16.9327C29.5541 17.465 28.905 17.7235 28.5472 17.3337C28.4493 17.227 28.0017 16.2666 27.5527 15.1996L26.7363 13.2594L27.2221 13.1155C27.4892 13.0364 27.77 12.9685 27.8459 12.9646C27.9464 12.9595 28.1983 13.4658 28.7691 14.8201ZM4.99523 24.7705V35.8083H18.6486H32.3019V35.1615V34.5148H19.2926H6.28329V24.771V15.0271H14.1442H22.0051L21.9798 14.4019L21.9546 13.7768L13.4749 13.7548L4.99523 13.7328V24.7705ZM37.6259 24.5554V34.5148H35.6079H33.59V35.1628V35.8107L36.2734 35.7879L38.9569 35.7651L38.9787 25.1805L39.0005 14.596H38.3132H37.6259V24.5554ZM41.1465 16.881V19.1661H41.7906H42.4346V16.881V14.596H41.7906H41.1465V16.881ZM18.8203 22.7035C18.8203 25.9827 18.8517 28.6527 18.89 28.6369C19.0946 28.5524 27.4073 22.7631 27.4073 22.7052C27.4073 22.6517 19.3915 17.0732 18.9277 16.8038C18.8422 16.7542 18.8203 17.9582 18.8203 22.7035ZM22.731 20.9787C24.0732 21.9025 25.1716 22.6778 25.1721 22.7015C25.1731 22.752 20.3891 26.0609 20.2217 26.1254C20.129 26.1611 20.1084 25.539 20.1084 22.7035C20.1084 20.2952 20.1362 19.2472 20.1996 19.2685C20.2498 19.2852 21.3889 20.0548 22.731 20.9787ZM1.56043 29.2117V37.964H0.780216H0L0.0288523 39.7985L0.0577047 41.633L0.338843 42.2062C0.690911 42.9239 1.37177 43.5718 2.03624 43.8214L2.51144 44H22.0377H41.5639L42.1881 43.6766C42.9225 43.2961 43.4294 42.7308 43.7273 41.9602C43.9006 41.512 43.9264 41.2633 43.961 39.7101L44 37.964H43.2173H42.4346V29.2117V20.4595H41.791H41.1474L41.1255 29.1902L41.1036 37.9209L34.2555 37.9429L27.4073 37.965V38.3792C27.4073 39.1905 27.863 39.1249 22.0455 39.1516L16.9273 39.1751L16.7146 38.9616C16.5506 38.7968 16.5018 38.6581 16.5018 38.3559V37.964H11.8219H7.14199V38.6107V39.2574H11.2638C14.0144 39.2574 15.3855 39.2867 15.3855 39.3455C15.3855 39.3941 15.5454 39.6079 15.7409 39.8209C16.3498 40.4842 16.2375 40.4733 22.1787 40.4456L27.3644 40.4215L27.7341 40.2233C27.9373 40.1144 28.2249 39.8524 28.3731 39.6413L28.6426 39.2574H35.6792H42.7158L42.6728 40.2706C42.6237 41.4295 42.5179 41.7573 42.0432 42.2201C41.409 42.8386 42.945 42.7968 21.7797 42.772L2.71968 42.7497L2.36306 42.5582C1.92512 42.323 1.53132 41.857 1.4008 41.4199C1.34696 41.2391 1.30282 40.6787 1.30282 40.1744V39.2574H3.57838H5.85393V38.6107V37.964H4.35121H2.84848V29.2117V20.4595H2.20446H1.56043V29.2117ZM12.1225 30.8501V33.2214H14.0545H15.9866V30.8501V28.4788H14.0545H12.1225V30.8501ZM14.6986 30.8501V31.928H14.0545H13.4105V30.8501V29.7722H14.0545H14.6986V30.8501ZM8.2583 30.8526V31.5018L9.39608 31.4778L10.5339 31.4537L10.5591 30.8285L10.5843 30.2034H9.42132H8.2583V30.8526ZM17.6181 30.8539V31.5044L18.2407 31.4791L18.8633 31.4537L18.8885 30.8285L18.9137 30.2034H18.2659H17.6181V30.8539ZM20.1942 30.8501V31.4968H20.8383H21.4823V30.8501V30.2034H20.8383H20.1942V30.8501ZM22.7703 30.8501V31.4968H29.2535H35.7367V30.8501V30.2034H29.2535H22.7703V30.8501ZM3.27783 41.0289V41.6794L3.90039 41.6541L4.52295 41.6287L4.54819 41.0035L4.57344 40.3784H3.92564H3.27783V41.0289ZM5.85393 41.0269V41.6754L7.54987 41.6521L9.2458 41.6287L9.27105 41.0035L9.29629 40.3784H7.57511H5.85393V41.0269Z" fill="white"></path>
</svg>
