<?xml version="1.0" encoding="UTF-8"?>
<svg xmlns="http://www.w3.org/2000/svg" width="57" height="54" viewBox="0 0 57 54" fill="none">
  <path fill-rule="evenodd" clip-rule="evenodd" d="M29.888 0.0966977C39.6006 0.868389 48.255 6.82453 52.2782 15.5062C52.5948 16.1893 52.8702 16.7646 52.8902 16.7846C52.9102 16.8046 53.1905 16.2316 53.5129 15.5113C54.1162 14.1641 54.3654 13.8811 54.9488 13.8811C55.5076 13.8811 56.0434 14.4162 56.0434 14.9743C56.0434 15.1621 54.2527 19.3437 53.7517 20.3256C53.5428 20.7351 53.1544 20.996 52.7536 20.996C52.4589 20.996 47.3889 18.4469 47.1451 18.1762C47.0372 18.0563 46.9202 17.781 46.885 17.5645C46.8289 17.2186 46.8681 17.1237 47.2071 16.7847C47.4745 16.5173 47.6924 16.3987 47.9162 16.3987C48.094 16.3987 48.795 16.6713 49.474 17.0046C50.1531 17.3378 50.734 17.5851 50.765 17.554C50.8794 17.4397 49.3633 14.5543 48.5513 13.3408C46.0762 9.64181 42.7644 6.73631 38.8035 4.78869C35.2294 3.03131 31.9086 2.24594 28.0217 2.23872C24.6543 2.23248 21.7523 2.80747 18.6082 4.1038C12.1749 6.75623 6.79001 12.4541 4.66102 18.8615C4.10595 20.5321 4.0418 20.6663 3.71715 20.8341C3.3093 21.045 3.00664 21.0387 2.62123 20.8109C2.14651 20.5305 2.01384 20.1092 2.18493 19.4251C2.66075 17.5226 4.2246 14.1392 5.53779 12.1716C6.93844 10.073 9.25329 7.53077 11.1102 6.05219C15.4504 2.59599 20.5749 0.531691 25.8872 0.0994341C27.5072 -0.0324649 28.2568 -0.0329027 29.888 0.0966977ZM30.0467 8.73713C32.8412 9.04449 33.387 9.42136 32.9942 10.7724C32.7308 11.6787 32.8187 12.9042 33.2035 13.6909C33.5518 14.4029 34.3934 15.2257 35.1128 15.558C35.5285 15.75 35.8319 15.7965 36.669 15.7965C37.5684 15.7966 37.7935 15.757 38.335 15.5032C38.6795 15.3417 39.1721 14.9929 39.4296 14.728C40.367 13.7638 40.8451 13.7284 41.6235 14.5652C42.3201 15.3141 43.1978 16.4799 43.7868 17.4385C44.8359 19.1463 45.827 21.6196 45.6977 22.2079C45.6189 22.567 45.072 23.0757 44.7648 23.0757C44.3145 23.0757 43.3278 23.5513 42.8074 24.0191C42.4577 24.3336 42.1278 24.7779 41.8991 25.2423C41.5784 25.8937 41.54 26.0716 41.54 26.9045C41.54 27.6835 41.5875 27.9386 41.8284 28.4524C42.3633 29.5933 43.2665 30.3554 44.4582 30.6718C45.3223 30.9012 45.4187 30.9539 45.5941 31.2931C45.8322 31.7536 45.7945 32.0626 45.3573 33.2329C44.5508 35.3918 43.1435 37.7613 41.8494 39.1389C41.2586 39.7679 41.1697 39.8231 40.7462 39.8231C40.3372 39.8231 40.2051 39.7502 39.5679 39.1726C38.65 38.3409 37.9208 38.0493 36.7498 38.0455C36.0129 38.0432 35.8098 38.0883 35.2174 38.3861C34.3965 38.7986 34.1974 38.9608 33.6795 39.6393C33.0194 40.504 32.9221 41.0216 33.1299 42.5638C33.3916 44.5063 33.2772 44.6761 31.4616 45.0395C30.0247 45.327 26.1063 45.3225 24.538 45.0316C22.7142 44.6931 22.5695 44.4822 22.833 42.547C22.9986 41.3302 22.9982 41.2043 22.8254 40.6762C22.2336 38.8669 20.445 37.7674 18.5819 38.0674C17.7004 38.2094 17.0716 38.5331 16.3132 39.2351C15.7503 39.7563 15.6248 39.8231 15.2079 39.8231C14.7881 39.8231 14.6859 39.7676 14.2557 39.3055C13.5674 38.5665 12.6645 37.343 12.0763 36.3526C11.0549 34.6329 10.1193 32.2469 10.2314 31.6475C10.3037 31.2612 10.8431 30.7379 11.1692 30.7379C11.2827 30.7379 11.6482 30.6359 11.9814 30.5112C12.7829 30.2113 13.6944 29.3713 14.0881 28.5695C14.3577 28.0203 14.394 27.8236 14.394 26.9068C14.394 25.9928 14.3574 25.7924 14.0916 25.2512C13.5673 24.1838 12.5157 23.3653 11.301 23.0794C10.1996 22.8202 10.04 22.1804 10.6698 20.5496C11.4507 18.5275 12.5897 16.5939 13.9245 15.0244C15.018 13.7387 15.4322 13.6784 16.4791 14.6523C17.4828 15.5861 17.9731 15.7867 19.2649 15.7922C20.1665 15.7961 20.387 15.7581 20.923 15.5068C22.5582 14.7401 23.4946 12.8015 23.0458 11.1119C22.6261 9.53224 22.8976 9.19313 24.8141 8.90274C26.7318 8.61201 28.4227 8.5586 30.0467 8.73713ZM26.3251 10.8812C26.1445 10.9074 25.8472 10.9529 25.6644 10.9825L25.3322 11.0362L25.3284 11.9934C25.3219 13.6812 24.7335 15.0895 23.5339 16.2892C21.4584 18.3647 18.149 18.6281 15.7169 16.9117L15.3979 16.6865L15.0803 17.0625C14.332 17.9483 12.8068 20.7012 12.8068 21.1662C12.8068 21.2532 12.873 21.3243 12.954 21.3243C13.035 21.3243 13.409 21.5232 13.7851 21.7663C16.4369 23.4803 17.3974 26.8251 16.024 29.5631C15.4064 30.7944 14.3016 31.8906 13.1656 32.3993L12.7035 32.6063L12.9269 33.1771C13.4296 34.4624 14.9089 36.9086 15.2662 37.0457C15.3364 37.0727 15.6861 36.9186 16.0432 36.7036C17.9445 35.5583 20.3649 35.5596 22.2751 36.7068C22.6363 36.9238 23.0673 37.2303 23.2328 37.388C23.3983 37.5457 23.5339 37.6273 23.5339 37.5691C23.5339 37.5109 23.6316 36.7751 23.751 35.9341C24.061 33.7516 24.0965 33.9257 23.2066 33.2639C21.288 31.8372 20.1406 29.4992 20.1406 27.0163C20.1406 24.0047 21.7186 21.4253 24.4263 20.0106C25.47 19.4654 25.9329 19.4376 26.3882 19.8929L26.7082 20.2129V22.9578V25.7027H27.967H29.2258V23.0685C29.2258 20.3359 29.2555 20.13 29.7038 19.767C30.0653 19.4741 30.6079 19.5338 31.4741 19.9618C35.3936 21.8985 36.9877 26.7788 34.9607 30.6362C34.3266 31.8429 33.3059 32.9725 32.196 33.6958L31.9401 33.8625L32.1895 35.7402L32.4389 37.6179L33.0489 37.1448C34.2422 36.2192 35.3196 35.8525 36.8311 35.8577C37.9987 35.8616 39.1661 36.1999 40.1218 36.8113L40.7116 37.1886L41.4804 36.0388C42.1745 35.0007 42.9817 33.4814 43.1747 32.8496C43.239 32.6388 43.1656 32.566 42.6016 32.2813C41.2798 31.614 40.1057 30.2454 39.6054 28.7884C39.2488 27.7501 39.2488 26.0635 39.6054 25.0252C40.1042 23.5724 41.2661 22.2065 42.5571 21.5548L43.2263 21.217L43.0546 20.8054C42.5065 19.4918 41.2455 17.3677 40.7448 16.9145C40.5372 16.7267 40.5098 16.7333 39.9448 17.1053C38.946 17.7631 38.1174 17.9858 36.669 17.9858C35.6137 17.9858 35.2952 17.9436 34.6988 17.7244C32.2041 16.8079 30.6487 14.5925 30.6487 11.9554C30.6487 11.1219 30.6319 11.0557 30.4025 10.9884C30.1056 10.9013 26.7889 10.814 26.3251 10.8812ZM23.8622 23.1463C22.7946 24.3031 22.3298 25.4768 22.3298 27.0163C22.3298 27.9929 22.5496 28.9199 22.9628 29.6854C23.3779 30.4546 24.3778 31.4889 25.1373 31.9347C26.171 32.5413 26.2713 32.6633 26.2636 33.3019C26.2598 33.6075 25.9749 35.877 25.6303 38.3453C25.0104 42.7872 25.0062 42.8342 25.2267 42.9282C25.778 43.1634 30.6806 43.1114 30.9243 42.8679C30.9435 42.8486 30.6689 40.7394 30.3139 38.1809C29.959 35.6224 29.6675 33.38 29.6661 33.1978C29.6627 32.7528 29.9126 32.424 30.4644 32.147C32.9738 30.887 34.2479 27.9279 33.4042 25.3192C33.1261 24.4597 32.3099 23.1877 31.7707 22.7736L31.415 22.5004V24.8113V27.1222L31.0958 27.4797L30.7766 27.8372L28.2772 27.8721C26.6635 27.8946 25.6322 27.8639 25.3669 27.7854C24.6346 27.5689 24.5808 27.3788 24.519 24.7878L24.4643 22.494L23.8622 23.1463ZM6.10326 34.3375C7.53259 35.0529 8.79039 35.7364 8.89832 35.8563C9.00624 35.9762 9.12325 36.2515 9.15839 36.468C9.21454 36.8139 9.17536 36.9088 8.83636 37.2478C8.56895 37.5152 8.35102 37.6339 8.12717 37.6339C7.94941 37.6339 7.24843 37.3612 6.56945 37.0279C5.89036 36.6947 5.30924 36.4476 5.27782 36.4789C5.1676 36.5892 6.77447 39.6722 7.53423 40.8082C10.9435 45.9057 16.0978 49.5605 21.9733 51.0464C22.8015 51.2558 23.5925 51.4763 23.7311 51.5362C24.1081 51.6993 24.3412 52.3378 24.1905 52.7945C23.9101 53.644 23.1545 53.6929 20.7974 53.0142C14.5198 51.2066 9.20163 47.3066 5.62864 41.8904C4.89165 40.7733 3.7201 38.5898 3.35221 37.6475C3.24931 37.3842 3.15003 37.1871 3.13143 37.2097C3.11293 37.2322 2.83709 37.8319 2.51845 38.5422C1.92595 39.863 1.67266 40.1514 1.10522 40.1514C0.54095 40.1514 0 39.6215 0 39.0689C0 38.8731 1.77631 34.7171 2.29242 33.7057C2.50969 33.2797 2.83501 33.0566 3.2573 33.044C3.39325 33.0398 4.67393 33.6219 6.10326 34.3375ZM53.5915 33.4087C53.8251 33.6423 53.9637 33.8875 53.9637 34.0673C53.9637 34.4671 53.1857 36.7523 52.5996 38.0743C50.1147 43.6784 45.5349 48.4602 39.987 51.2429C37.4953 52.4926 33.1101 53.8054 32.3784 53.5207C31.7071 53.2595 31.4778 52.2984 31.9694 51.8067C32.1764 51.5998 32.6367 51.437 33.9446 51.1081C41.8416 49.1226 48.0718 43.6486 51.051 36.0778C51.3284 35.3725 51.5556 34.7463 51.5556 34.6863C51.5556 34.6263 51.6578 34.3041 51.7827 33.9702C52.1539 32.978 52.9223 32.7395 53.5915 33.4087ZM28.7964 52.1836C29.3789 52.7661 29.1782 53.6881 28.4139 53.9404C27.3186 54.3018 26.5009 52.9322 27.3558 52.1684C27.8273 51.7471 28.3655 51.7527 28.7964 52.1836Z" fill="#02E0DF"></path>
</svg>
