<?xml version="1.0" encoding="UTF-8"?>
<svg xmlns="http://www.w3.org/2000/svg" width="59" height="55" viewBox="0 0 59 55" fill="none">
  <path fill-rule="evenodd" clip-rule="evenodd" d="M24.9593 0.113648C32.864 0.953864 39.6606 5.46077 43.1365 12.1671C44.6133 15.0167 45.3283 17.9419 45.3283 21.1356C45.3283 29.1066 40.4531 36.2973 32.5699 39.9537C27.0999 42.4908 21.1258 42.8927 15.3909 41.1093L13.9009 40.6459L13.3713 40.9995C12.7182 41.4355 11.3621 42.0746 10.5125 42.3468C7.67456 43.256 4.11639 42.9926 1.45157 41.6761C-0.0301217 40.9441 -0.139526 40.2996 0.895428 38.3975C2.0189 36.3329 2.4991 34.303 2.35253 32.2389C2.26829 31.0521 2.15127 30.5574 1.28527 27.7257C0.363871 24.7129 0.0938236 23.4202 0.0167329 21.6543C-0.303632 14.3114 3.99913 7.00301 10.9544 3.07616C15.1 0.735509 20.3541 -0.375932 24.9593 0.113648ZM21.0242 3.34212C14.4003 3.89295 8.45897 7.66732 5.52537 13.1882C4.12066 15.8318 3.52667 18.1768 3.5307 21.0633C3.53313 22.8468 3.70647 23.7729 4.54096 26.4613C5.71971 30.2587 5.76276 30.4651 5.82554 32.615C5.87689 34.3742 5.85624 34.666 5.59715 35.8388C5.44055 36.548 5.11914 37.6063 4.88291 38.1904C4.55192 39.0092 4.4873 39.272 4.60086 39.3373C4.68187 39.3839 5.193 39.4811 5.73668 39.5532C7.90214 39.8403 10.2677 39.2017 11.9809 37.8674C12.6707 37.3302 13.2028 37.0746 13.6312 37.0746C13.7838 37.0746 14.5514 37.3142 15.3371 37.6071C18.1087 38.6404 20.0281 38.9532 23.0888 38.8707C25.3733 38.809 26.5548 38.6268 28.4995 38.036C33.3326 36.5677 37.8092 32.9435 39.9542 28.7628C42.0088 24.7581 42.392 20.3192 41.0472 16.103C39.0515 9.84614 33.4863 5.05479 26.6012 3.66579C25.6377 3.4714 22.9325 3.20253 22.3171 3.24004C22.1834 3.2481 21.6017 3.29409 21.0242 3.34212ZM13.6979 18.9097C15.5845 19.8059 15.6912 22.3318 13.8864 23.3708C13.3863 23.6586 13.2199 23.696 12.4378 23.696C11.6557 23.696 11.4893 23.6586 10.9892 23.3708C8.93178 22.1863 9.38048 19.4042 11.7447 18.6862C12.1729 18.5562 13.2013 18.6737 13.6979 18.9097ZM23.5064 18.76C24.3523 18.994 25.0575 19.662 25.3092 20.468C25.6228 21.4727 25.3282 22.3988 24.4634 23.1263C23.8742 23.6217 23.3233 23.7838 22.4113 23.7297C21.5437 23.6783 20.9073 23.3255 20.3497 22.5869C20.0641 22.2085 19.9959 21.9981 19.9584 21.3802C19.9193 20.7347 19.9556 20.5504 20.2233 20.0411C20.6591 19.2117 21.6137 18.6337 22.6013 18.6014C22.7644 18.5961 23.1716 18.6675 23.5064 18.76ZM34.0973 18.8987C35.811 19.7211 36.1732 21.7494 34.8296 23.0005C33.4932 24.2448 31.3079 23.9144 30.434 22.3358C30.0966 21.7265 30.0449 21.1704 30.2613 20.4776C30.7352 18.9597 32.6133 18.1867 34.0973 18.8987ZM53.2259 19.2411C53.7189 19.4718 54.2442 20.0386 55.2264 21.3993C56.9895 23.8418 58.2058 26.7514 58.7919 29.9286C59.0913 31.5508 59.0629 35.102 58.7375 36.7522C58.4686 38.1164 58.0326 39.5751 57.4048 41.2117C56.2044 44.3414 56.4201 47.2213 58.0929 50.3954C58.7727 51.6854 58.8497 51.8962 58.8039 52.3402C58.733 53.0275 58.4521 53.3344 57.4458 53.8244C53.8457 55.5774 49.3951 55.3565 45.9007 53.2516L45.0711 52.752L44.1019 53.0786C39.9676 54.4715 34.9786 54.6734 30.6218 53.624C28.3929 53.0871 25.8834 52.0738 24.036 50.9644C22.8993 50.2818 21.3506 49.1421 21.1972 48.8751C20.601 47.8378 21.0767 46.7169 22.2365 46.4261C22.9175 46.2554 23.2683 46.3884 24.592 47.3194C30.1613 51.2361 37.332 52.1236 43.7469 49.69C45.3395 49.0859 45.8066 49.0696 46.5022 49.5937C48.4262 51.0434 49.7612 51.5722 51.721 51.6608C52.9818 51.7179 54.5607 51.5504 54.5607 51.3595C54.5607 51.3073 54.4115 50.9128 54.2291 50.4828C53.4588 48.6661 53.1473 47.1007 53.1539 45.0802C53.1604 43.1101 53.3664 42.0993 54.2707 39.5998C55.0988 37.3109 55.3351 36.3043 55.4748 34.4683C55.7199 31.2513 55.0169 27.9268 53.4921 25.093C52.9177 24.0253 52.4218 23.2951 51.5238 22.1951C50.9172 21.4523 50.8182 21.2649 50.7748 20.7779C50.7105 20.0559 51.0414 19.514 51.7223 19.2262C52.3322 18.9682 52.6495 18.9714 53.2259 19.2411Z" fill="#02E0DF"></path>
</svg>
