<?xml version="1.0" encoding="UTF-8"?>
<svg xmlns="http://www.w3.org/2000/svg" width="49" height="48" viewBox="0 0 49 48" fill="none">
  <path fill-rule="evenodd" clip-rule="evenodd" d="M18.3213 0.127693C19.9772 0.444508 21.6376 1.37658 23.1493 2.83802L24.0138 3.6737L24.9934 2.74848C27.3389 0.533112 29.8003 -0.348984 32.3014 0.129568C36.2538 0.885743 39.3256 4.84345 39.5471 9.4646C39.6091 10.7602 39.4655 11.6692 39.0064 12.8868C37.927 15.7492 35.5721 18.316 28.3969 24.4506C26.0346 26.4703 24.0671 28.1229 24.0245 28.1229C23.9529 28.1229 20.621 25.2995 16.8494 22.0428C11.7886 17.6728 9.45571 14.7638 8.67965 11.8555C8.43991 10.9572 8.44038 8.89576 8.6805 7.77692C9.1222 5.71926 10.0358 3.96098 11.4018 2.53958C13.3437 0.518954 15.8323 -0.348608 18.3213 0.127693ZM15.9885 2.93478C13.9774 3.44755 12.3422 5.23471 11.583 7.74992C11.3723 8.44759 11.3328 8.76075 11.325 9.79276C11.3167 10.8923 11.3402 11.0787 11.5655 11.6967C12.1102 13.1903 13.1841 14.6641 15.2041 16.6902C16.782 18.273 17.577 18.9844 21.467 22.2954L24.0248 24.4723L26.8582 22.0556C32.4306 17.3029 34.1837 15.5773 35.5223 13.5274C36.4885 12.0477 36.8397 10.8801 36.7394 9.4812C36.4213 5.04335 32.8699 1.89807 29.5104 3.07879C27.8807 3.65167 26.4918 4.9284 24.767 7.43948C24.3915 7.98601 24.0557 8.43324 24.0206 8.43324C23.9856 8.43324 23.6111 7.93294 23.1885 7.32134C21.5263 4.9164 20.1311 3.64698 18.53 3.08282C17.8334 2.83736 16.6427 2.76798 15.9885 2.93478ZM3.43893 11.5683C5.08564 12.0138 6.2011 13.0303 6.80539 14.6356C7.19627 15.6741 7.32998 16.7362 7.42336 19.5438C7.55275 23.4315 7.69592 24.8414 8.09178 26.1229L8.27076 26.7025L8.57389 26.6138C9.041 26.4771 10.5744 26.5052 11.4083 26.6657C13.8213 27.1302 16.8326 28.485 18.8842 30.0291C20.3348 31.1208 21.5463 32.5416 22.1078 33.8096C22.5986 34.9179 22.6095 35.0898 22.6113 41.7884L22.6129 48H16.9404H11.2679L11.2646 46.8983C11.2562 44.0437 10.6448 42.8889 8.12694 40.9715C5.9052 39.2796 4.58168 37.9994 3.56748 36.5613C2.1247 34.5155 1.18494 32.1094 0.638131 29.0605C0.12442 26.1968 0.0870096 25.5116 0.041911 18.148L0 11.3142L1.43819 11.3651C2.31428 11.3962 3.09624 11.4757 3.43893 11.5683ZM25.4257 12.7462V14.1526H26.8321H28.2385V15.559V16.9654H26.8321H25.4257V18.3718V19.7782H24.0193H22.6129V18.3718V16.9654H21.2065H19.8001V15.559V14.1526H21.2065H22.6129V12.7462V11.3398H24.0193H25.4257V12.7462ZM48.0214 17.1295C48.0212 20.3138 47.9779 23.6153 47.9252 24.4662C47.5959 29.7853 46.6171 33.3559 44.7005 36.23C43.5895 37.896 42.2712 39.1986 39.8505 41.0216C37.4145 42.8562 36.7824 44.0639 36.7739 46.8983L36.7706 48H31.0945H25.4185L25.4455 41.5071L25.4726 35.0142L25.7228 34.3292C26.5941 31.9445 28.7695 29.8869 32.1812 28.2208C33.6228 27.5167 35.3494 26.9103 36.5911 26.6718C37.4612 26.5047 38.9935 26.4725 39.4614 26.6115C39.7601 26.7002 39.7617 26.6989 39.9192 26.2247C40.2575 25.2063 40.4265 23.7926 40.5217 21.1846C40.6935 16.4821 40.8367 15.4098 41.4714 14.078C42.0333 12.8988 43.2498 11.9325 44.6071 11.587C45.3834 11.3894 45.5745 11.3697 46.8733 11.3539L48.0219 11.3398L48.0214 17.1295ZM2.8309 18.6765C2.83174 21.0616 2.87431 23.6458 2.9255 24.4193C3.23641 29.1132 4.10416 32.3425 5.70643 34.7691C6.41263 35.8386 7.81819 37.219 9.44042 38.4365C12.3083 40.5887 13.3783 42.0244 13.8604 44.3668L14.0292 45.1872H16.9146H19.8001V40.45C19.8001 35.0659 19.8184 35.2143 19.0126 34.085C17.4861 31.9457 13.5091 29.7729 10.3592 29.3571C9.63469 29.2615 9.65063 29.3071 10.6874 30.2976C11.4554 31.0314 12.6666 31.8104 13.7994 32.2992C14.1346 32.4439 14.443 32.5911 14.4846 32.6264C14.5443 32.677 13.6921 35.1059 13.5727 35.2254C13.5179 35.2802 11.8867 34.5361 11.1741 34.1311C7.3026 31.9307 5.24231 28.5173 4.80305 23.5755C4.74801 22.9567 4.66231 21.269 4.61253 19.8251C4.50827 16.7978 4.4311 16.2004 4.04031 15.3957C3.82054 14.9432 3.66499 14.757 3.35483 14.5753C3.13421 14.4459 2.92569 14.3401 2.89156 14.3401C2.85743 14.3401 2.83015 16.2916 2.8309 18.6765ZM44.6877 14.5701C44.216 14.8529 43.8444 15.5052 43.6584 16.3766C43.5769 16.7584 43.4858 18.061 43.4304 19.6376C43.3127 22.9889 43.2685 23.6098 43.0498 24.9819C42.7975 26.5643 42.4732 27.6179 41.8342 28.9309C40.5983 31.4698 38.7068 33.2827 35.8799 34.6376C34.3235 35.3835 34.5322 35.456 33.9678 33.9732C33.7 33.2696 33.5038 32.6711 33.5318 32.6431C33.5597 32.6152 33.8977 32.4552 34.2829 32.2878C35.4091 31.7981 36.57 31.044 37.3608 30.2884C38.3974 29.298 38.4078 29.2627 37.6322 29.3612C36.3534 29.5236 34.0959 30.3055 32.7539 31.0508C30.789 32.1421 29.2037 33.5519 28.6134 34.7329L28.2854 35.3893L28.2587 40.2882L28.2321 45.1872L31.1184 45.1868L34.0047 45.1865L34.2118 44.2353C34.5648 42.6146 35.3254 41.2766 36.55 40.1218C36.9041 39.7879 37.8226 39.0335 38.5912 38.4454C41.0708 36.5479 42.1586 35.3339 43.0936 33.4203C44.0777 31.4063 44.6049 29.3754 44.9865 26.1272C45.1503 24.7327 45.2934 14.3394 45.1488 14.341C45.1046 14.3415 44.8971 14.4446 44.6877 14.5701Z" fill="#02E0DF"></path>
</svg>
